<?xml version="1.0" encoding="utf-8"?>
<!-- Generator: Adobe Illustrator 25.0.0, SVG Export Plug-In . SVG Version: 6.00 Build 0)  -->
<svg version="1.1" id="Layer_1" xmlns="http://www.w3.org/2000/svg" xmlns:xlink="http://www.w3.org/1999/xlink" x="0px" y="0px"
	 viewBox="0 0 2558 1252.8" style="enable-background:new 0 0 2558 1252.8;" xml:space="preserve">
<style type="text/css">
	.st0{fill:#13375B;}
	.st1{fill:#D9C5C8;}
	.st2{fill:#FACF9C;}
	.st3{fill-rule:evenodd;clip-rule:evenodd;fill:#6A7458;}
	.st4{fill-rule:evenodd;clip-rule:evenodd;fill:#62766B;}
	.st5{fill-rule:evenodd;clip-rule:evenodd;fill:#3D3D6B;}
	.st6{fill-rule:evenodd;clip-rule:evenodd;fill:#DEBEB4;}
	.st7{opacity:0.3;fill-rule:evenodd;clip-rule:evenodd;fill:#E4E3DB;}
	.st8{fill-rule:evenodd;clip-rule:evenodd;fill:#715E60;}
	.st9{fill-rule:evenodd;clip-rule:evenodd;fill:#D2B38E;}
	.st10{fill-rule:evenodd;clip-rule:evenodd;fill:#D29C7F;}
	.st11{fill-rule:evenodd;clip-rule:evenodd;fill:#D6CDC6;}
	.st12{fill-rule:evenodd;clip-rule:evenodd;fill:#F2C7AE;}
	.st13{fill-rule:evenodd;clip-rule:evenodd;fill:#E7C1B7;}
	.st14{fill-rule:evenodd;clip-rule:evenodd;fill:#B5B2A4;}
	.st15{fill-rule:evenodd;clip-rule:evenodd;fill:#B47A64;}
	.st16{fill-rule:evenodd;clip-rule:evenodd;fill:#534741;}
	.st17{fill-rule:evenodd;clip-rule:evenodd;fill:#C7BBB2;}
	.st18{fill-rule:evenodd;clip-rule:evenodd;fill:#56548C;}
	.st19{fill-rule:evenodd;clip-rule:evenodd;fill:#C7B299;}
	.st20{fill-rule:evenodd;clip-rule:evenodd;fill:#A67C52;}
	.st21{fill:#395C1C;}
	.st22{opacity:0.5;fill:#477323;}
	.st23{fill:#3F6B2C;}
	.st24{fill:#55913B;}
	.st25{opacity:0.5;fill:#55913B;}
	.st26{fill:url(#SVGID_1_);}
	.st27{opacity:0.5;fill:#4E8536;}
	.st28{fill:#52783B;}
	.st29{fill:#598240;}
	.st30{opacity:0.5;fill:#68994B;}
	.st31{opacity:0.5;fill:#618F46;}
	.st32{fill:#68994B;}
	.st33{fill:#875224;}
	.st34{opacity:0.5;fill:#A6652C;}
	.st35{opacity:0.7;fill:#A6652C;}
	.st36{fill:#E6E6E6;}
	.st37{fill-rule:evenodd;clip-rule:evenodd;fill:#CCCCCC;}
	.st38{fill-rule:evenodd;clip-rule:evenodd;fill:#B3B3B3;}
	.st39{enable-background:new    ;}
	.st40{clip-path:url(#SVGID_3_);enable-background:new    ;}
	.st41{fill:#3C332D;}
	.st42{clip-path:url(#SVGID_5_);enable-background:new    ;}
	.st43{fill:#3E352F;}
	.st44{fill:#403731;}
	.st45{fill:#3A322C;}
	.st46{fill:#67584E;}
	.st47{clip-path:url(#SVGID_7_);enable-background:new    ;}
	.st48{fill:#313159;}
	.st49{fill-rule:evenodd;clip-rule:evenodd;fill:#F2CDA0;}
	.st50{fill-rule:evenodd;clip-rule:evenodd;fill:#313340;}
	.st51{clip-path:url(#SVGID_9_);enable-background:new    ;}
	.st52{clip-path:url(#SVGID_11_);enable-background:new    ;}
	.st53{clip-path:url(#SVGID_13_);enable-background:new    ;}
	.st54{clip-path:url(#SVGID_15_);enable-background:new    ;}
	.st55{clip-path:url(#SVGID_17_);enable-background:new    ;}
	.st56{fill:#84595C;}
	.st57{fill:#5B3E41;}
	.st58{fill:#E6B67E;}
	.st59{fill:#CA7E3F;}
	.st60{fill:#BD824F;}
	.st61{fill:#E6BF87;}
	.st62{fill:#F4BD73;}
	.st63{fill:#442E27;}
	.st64{display:none;}
	.st65{display:inline;fill-rule:evenodd;clip-rule:evenodd;fill:#9794D3;}
	.st66{display:inline;}
	.st67{fill:#3D3D6B;}
	.st68{fill:#32325B;}
	.st69{display:inline;fill-rule:evenodd;clip-rule:evenodd;fill:#7979B2;}
	.st70{display:inline;fill-rule:evenodd;clip-rule:evenodd;fill:#A8A1E2;}
	.st71{display:inline;fill:#3D3C3B;}
	.st72{fill-rule:evenodd;clip-rule:evenodd;fill:#1F1D26;}
	.st73{fill-rule:evenodd;clip-rule:evenodd;fill:#F8BD8C;}
	.st74{fill-rule:evenodd;clip-rule:evenodd;fill:#BF9A78;}
	.st75{fill-rule:evenodd;clip-rule:evenodd;fill:#E8AA80;}
	.st76{fill:#3D3C3B;}
	.st77{fill:#E8AA80;}
	.st78{fill:#F8BD8C;}
	.st79{fill-rule:evenodd;clip-rule:evenodd;fill:#778B91;}
	.st80{opacity:0.75;fill-rule:evenodd;clip-rule:evenodd;fill:#C1D7DE;}
	.st81{fill-rule:evenodd;clip-rule:evenodd;fill:#333333;}
	.st82{fill-rule:evenodd;clip-rule:evenodd;fill:#51545A;}
	.st83{fill:#FFFFFF;}
	.st84{fill-rule:evenodd;clip-rule:evenodd;fill:#4D4D4D;}
	.st85{fill-rule:evenodd;clip-rule:evenodd;fill:#EDAA62;}
	.st86{fill-rule:evenodd;clip-rule:evenodd;fill:#C69C6D;}
	.st87{fill-rule:evenodd;clip-rule:evenodd;fill:#E4E3DB;}
	.st88{fill-rule:evenodd;clip-rule:evenodd;fill:#FEFCFF;}
	.st89{fill-rule:evenodd;clip-rule:evenodd;fill:#998675;}
	.st90{fill-rule:evenodd;clip-rule:evenodd;fill:#3C262D;}
	.st91{opacity:0.11;fill-rule:evenodd;clip-rule:evenodd;fill:#A8A1E2;}
	.st92{fill:#4D4D4D;}
	.st93{display:inline;fill:#333333;}
	.st94{display:inline;opacity:0.3;}
	.st95{fill:#808080;}
	.st96{display:inline;fill:#534741;}
	.st97{fill:#8F7A63;}
	.st98{opacity:0.5;fill:#735227;}
	.st99{opacity:0.5;fill:#B8A372;}
	.st100{display:inline;fill:#43591F;}
	.st101{display:inline;fill:#6C8E20;}
	.st102{display:inline;fill:#325E00;}
	.st103{display:inline;fill:#344518;}
	.st104{display:inline;fill:#5A751B;}
	.st105{display:inline;fill:#5E7D2C;}
	.st106{display:inline;fill:#536E26;}
	.st107{fill:url(#SVGID_18_);}
	.st108{fill:#F2F2F2;}
	.st109{fill:#B3B3B3;}
	.st110{fill:url(#SVGID_19_);}
	.st111{fill:#DEDEDE;}
	.st112{fill:url(#SVGID_20_);}
	.st113{fill:url(#SVGID_21_);}
	.st114{fill:url(#SVGID_22_);}
	.st115{fill:url(#SVGID_23_);}
	.st116{fill:#73695F;}
	.st117{fill:#BAAC61;}
	.st118{fill:#F2DDB8;}
	.st119{fill:url(#SVGID_24_);}
	.st120{fill:url(#SVGID_25_);}
	.st121{opacity:0.5;fill:#52783B;}
	.st122{opacity:0.3;fill:#A6652C;}
	.st123{opacity:0.4;fill:#A6652C;}
</style>
<rect x="8.2" y="1239.9" class="st0" width="2549.8" height="12.5"/>
<path class="st1" d="M2493.4,1241.3H81.1c0,0,0-0.1,0-0.1c141.8-162.7,427.3-127.8,620.5-118.1c290,14.5,580.7,32.8,870.6,14.5
	C1882.8,1117.9,2222,1050.7,2493.4,1241.3z"/>
<path class="st2" d="M2405,1241.3H140.6c152.3-102.2,392-74.4,561-65.9c290,14.5,580.7,32.8,870.6,14.4
	C1849.9,1172.3,2150.5,1116.6,2405,1241.3z"/>
<g>
	<path class="st3" d="M2131.8,551.1c0,0-19-131.6-128.9-200c0,0-53-28.7-88.2-6.1c-35.1,22.6-12.5,85.4,49.4,97.1
		C2026.1,453.8,2095.4,473.9,2131.8,551.1L2131.8,551.1z"/>
	<path class="st4" d="M2138.3,651.7c0,0-19.9-98.3-66.7-139.5c-46.8-41.2-87.5-27.8-90.8,0.2c-3.3,28,22.5,51.4,49,63.9
		C2056.2,588.9,2109.4,597.1,2138.3,651.7L2138.3,651.7z"/>
	<path class="st3" d="M2165.7,486.9c0,0,11.2-205.5-57.7-339.8c-69.8-136.1-228-65-136.6,41.5
		C2019.8,245.2,2112.6,335.1,2165.7,486.9L2165.7,486.9z"/>
	<path class="st4" d="M2227.3,479.9c0,0-19.4-209.5,20.9-324.5c40.3-115,81.6-148.3,123.5-137.2c41.9,11.1,59.3,88.7,5.8,168
		C2324.1,265.4,2276.1,343.9,2227.3,479.9L2227.3,479.9z"/>
	<path class="st3" d="M2253.2,586.4c0,0,19-132.9,81.7-201c62.7-68.1,136.4-47.8,148.1-20.3c11.8,27.4,2.3,69.8-47.4,87.5
		C2386,470.3,2314.3,477.4,2253.2,586.4L2253.2,586.4z"/>
	<path class="st3" d="M2253.7,716c0,0,26.1-137,100-177.6c73.9-40.6,104,34.6,62.6,65.2C2374.9,634.2,2325.9,634.7,2253.7,716
		L2253.7,716z"/>
	<path class="st5" d="M2347.3,81.4c1-1.8,0.3-4.2-1.6-5.3c-1.9-1.1-4.2-0.5-5.2,1.3c-0.5,1-192.4,339.8-122.5,962.1
		c0.2,2.1,2.1,3.7,4.3,3.6c2.1-0.1,3.6-2,3.4-4.1C2156.1,419.2,2346.8,82.4,2347.3,81.4L2347.3,81.4z"/>
	<path class="st5" d="M2059.6,161.5c-1-1.9-3.4-2.6-5.2-1.7c-1.9,1-2.5,3.3-1.5,5.2c0.6,1,196.4,350.3,134.1,859.5
		c-0.3,2.1,1.2,4.1,3.4,4.4c2.1,0.3,4-1.1,4.3-3.2C2257.3,514,2060.2,162.6,2059.6,161.5L2059.6,161.5z"/>
	<path class="st5" d="M1952.1,380.2c-2.1-0.2-3.9,1.4-4,3.5c-0.1,2.1,1.6,4,3.7,4.1c0.8,0.1,272.3,15,235.2,636.9
		c-0.1,2.1,1.5,4,3.6,4.2c2.1,0.2,3.9-1.3,4.1-3.5C2232.3,395.7,1952.9,380.3,1952.1,380.2L1952.1,380.2z"/>
	<path class="st5" d="M2034.8,529.8c-2.1-0.6-4.2,0.5-4.7,2.5c-0.5,2,0.7,4.2,2.7,4.8c0.5,0.2,175.5,49.9,137.6,468
		c-0.2,2.1,1.4,4,3.5,4.3c2.1,0.3,4-1.2,4.2-3.3C2216.5,581.5,2035.3,529.9,2034.8,529.8L2034.8,529.8z"/>
	<path class="st5" d="M2446.2,393.9c2.1,0,3.8-1.8,3.7-3.9c-0.1-2.1-1.9-3.8-4-3.8c-0.8,0-276.5-3.7-221.1,605.8
		c0.2,2.1,2.1,3.8,4.2,3.7c2.1-0.1,3.7-1.9,3.5-4C2177.7,390.2,2445.4,393.9,2446.2,393.9L2446.2,393.9z"/>
	<path class="st5" d="M2380.2,575.5c2.1-0.4,3.4-2.4,2.9-4.5c-0.5-2.1-2.5-3.5-4.6-3.1c-0.5,0.1-184.6,30-144.5,443.5
		c0.2,2.1,2.1,3.8,4.2,3.6c2.1-0.1,3.7-1.9,3.5-4.1C2202.3,604.3,2379.7,575.5,2380.2,575.5L2380.2,575.5z"/>
	<path class="st6" d="M2257.5,1190.7h-103.4c-7.7,0-14.1-5.9-14.8-13.5L2119,947.9c-0.8-8.7,6.1-16.1,14.8-16.1h143.9
		c8.7,0,15.5,7.5,14.8,16.1l-20.3,229.3C2271.6,1184.8,2265.1,1190.7,2257.5,1190.7z"/>
	<path class="st7" d="M2138.1,1163.3l1.2,13.8c0.7,7.7,7.1,13.5,14.8,13.5h103.4c7.7,0,14.1-5.9,14.8-13.5l20.3-229.3
		c0.8-8.7-6.1-16.1-14.8-16.1h-3.7l-19.3,218c-0.7,7.7-7.1,13.5-14.8,13.5H2138.1z"/>
</g>
<g>
	<polygon class="st8" points="535.5,288.5 799.3,288.5 799.3,24.7 535.5,24.7 535.5,288.5 	"/>
	<polygon class="st9" points="840.2,288.5 997.6,288.5 997.6,165.4 840.2,165.4 840.2,288.5 	"/>
	<polygon class="st10" points="840.2,130.2 997.6,130.2 997.6,24.7 840.2,24.7 840.2,130.2 	"/>
	<polygon class="st10" points="550.4,288.5 814.3,288.5 814.3,24.7 550.4,24.7 550.4,288.5 	"/>
	<rect x="575" y="51.3" class="st11" width="210.6" height="210.6"/>
	<polygon class="st12" points="851.2,130.2 1008.6,130.2 1008.6,24.7 851.2,24.7 851.2,130.2 	"/>
	<rect x="864.5" y="38" class="st13" width="130.8" height="78.9"/>
	<polygon class="st12" points="851.2,288.5 1008.6,288.5 1008.6,165.4 851.2,165.4 851.2,288.5 	"/>
	<rect x="864.5" y="178.7" class="st14" width="130.8" height="96.6"/>
	<path class="st15" d="M719.8,261.9H575V109c11.3,0.2,26.3-0.2,35.1,8.1c12.9,12,0.3,34.2,2,49.3c2.9,26.5,29.5,37.8,53.2,37.5
		c18.4-0.3,34-0.6,45.7,16.1C720.1,232.9,721.5,248,719.8,261.9z"/>
	<path class="st15" d="M995.3,38v78.9h-75.5c1.4-5.1,4.4-11,10.1-16.2c11.9-10.7,26.4,1.2,39.5,0.8c3.9-0.1,8.1-1.1,9.1-5.4
		c0.6-2.7-0.2-5.5-1.2-8c-3.6-9.3-10.1-17-15.5-25.4c-5.4-8.4-5.9-15.4-4.2-24.7H995.3z"/>
	<path class="st15" d="M995.3,257.3v17.9H864.5v-57.3c0,0,49.5-21.5,68.5,2.5s17.6,29,34.1,28.5
		C979.1,248.5,989.2,249.7,995.3,257.3z"/>
</g>
<g>
	<path class="st16" d="M1994.9,736.8h46.8c3.3,0,5.9,2.7,5.9,5.9v46.8c0,3.3-2.7,5.9-5.9,5.9h-46.8c-3.3,0-5.9-2.7-5.9-5.9v-46.8
		C1989,739.5,1991.6,736.8,1994.9,736.8L1994.9,736.8z"/>
	<path class="st17" d="M2002.9,746.7h30.9c2.2,0,3.9,1.8,3.9,3.9v30.9c0,2.2-1.8,3.9-3.9,3.9h-30.9c-2.2,0-3.9-1.8-3.9-3.9v-30.9
		C1998.9,748.5,2000.7,746.7,2002.9,746.7L2002.9,746.7z"/>
	<path class="st18" d="M2011,757L2011,757c1.9,0,3.5,1.6,3.5,3.5v11.2c0,1.9-1.6,3.5-3.5,3.5l0,0c-1.9,0-3.5-1.6-3.5-3.5v-11.2
		C2007.6,758.6,2009.1,757,2011,757L2011,757z"/>
	<path class="st18" d="M2025.6,757L2025.6,757c1.9,0,3.5,1.6,3.5,3.5v11.2c0,1.9-1.6,3.5-3.5,3.5l0,0c-1.9,0-3.5-1.6-3.5-3.5v-11.2
		C2022.1,758.6,2023.7,757,2025.6,757L2025.6,757z"/>
</g>
<g>
	<polygon class="st16" points="123.4,1220.9 137.4,1220.9 137.4,301.4 123.4,301.4 123.4,1220.9 	"/>
	<path class="st16" d="M189.3,1225.3L189.3,1225.3c0,8.8-9.2,16-20.4,16H92c-11.2,0-20.4-7.2-20.4-15.9v0c0-8.8,9.2-15.9,20.4-15.9
		h76.9C180.1,1209.4,189.3,1216.6,189.3,1225.3L189.3,1225.3z"/>
	<path class="st19" d="M79.6,67.6h57.8h57.8c11,0,22.1,9,24.8,19.9l54.2,223.6c2.7,11-4.1,19.9-15.1,19.9H137.4H15.7
		c-11,0-17.7-9-15.1-19.9L54.8,87.5C57.5,76.6,68.6,67.6,79.6,67.6L79.6,67.6z"/>
	<path class="st20" d="M266.7,280l4,16.6H4.1l4-16.6H266.7L266.7,280z M259.6,250.7l3,12.2H12.3l3-12.2H259.6L259.6,250.7
		L259.6,250.7z"/>
</g>
<g>
	<g>
		<g>
			<g>
				<path class="st21" d="M1702.6,107.3c0.5-1.4,1-2.8,1-4.3c0-1.3-0.5-2.6-1-3.9c-1.3-2.8-3-5.5-5.1-7.8c-3.5-3.8-7.9-6.8-12.2-9.6
					c-7.6-5-15.1-10-22.7-15c3.9,6.1,4.2,13.9,3.3,21.1c-0.8,7.2-2.7,14.4-2.4,21.7c0.1,3.1,0.6,6.1,1.9,8.9
					c0.6,1.3,1.5,2.5,2.7,3.2c2.2,1.1,5,0.1,6.8-1.5s3.3-3.7,5.1-5.4s4.4-2.9,6.7-2.1c1.3,0.5,2.3,1.5,3.6,2.2
					c2.6,1.5,6.1,1.2,8.4-0.7C1700.7,112.3,1701.7,109.7,1702.6,107.3z"/>
				<path class="st22" d="M1673,79.9c3.1,3.5,4.8,8.1,6.2,12.5c0.9-0.9,2.1-1.3,3.4-1.3c-1,1.2-1.7,2.6-2.3,4c2.9-0.6,5.9-0.9,8.9-1
					c-0.9,1.6-2.4,2.6-3.7,3.9c-1.3,1.3-2.4,3-1.9,4.8c3.3,0.4,6.5,0.8,9.8,1.3c-3,0.8-6,1.6-9,2.4c3.5,0.8,7.5,2.1,8.7,5.4
					c-1.4-1.6-3.4-2.8-5.6-3.2c-0.6-0.1-1.1-0.2-1.7,0c-1,0.4-1.4,1.6-1.3,2.6c0.1,1,0.7,2.2,0.9,3.2c1.8,8.2,7.1,25.4,9.2,37.6
					c2,11.1,3.2,23,2.6,34.3c-0.6,0.2-1.3,0.3-1.9,0.5c1.1-9.9,0.7-20.1-1.3-29.9c-2.6-13.2-5.5-25.2-9.6-39.3
					c-0.6-2.2-0.7-5-2.8-6.1c-0.9-0.5-2-0.5-3-0.4c-1.4,0.2-2.7,0.7-3.8,1.5c1.3-1.8,3.2-3.2,5.4-3.7c-1.2-0.9-6.8-1.7-8.3-1.8
					c0.3-1.3,8.5-3.3,8-4.4c-0.6-1.4-7.9-5.6-9.4-5.2c0.7-1.7,5.5,0.1,6.7-1.2c1.1-1.2-1-7-1.5-8.5c-1.8-4.8-4.2-9.4-7.1-13.6
					C1669.5,76.6,1671.5,78.1,1673,79.9z"/>
			</g>
			<path class="st23" d="M1702.8,159.4c0.2-4.1,0.4-8.3,0.5-12.4c0.2-7.1,0.1-14.3,1.1-21.3c0.7-4.5,2.2-8.9,3.7-13.2
				c-0.3-0.4-1-0.4-1.4-0.1c-0.4,0.3-0.6,0.8-0.8,1.3c-2.9,6.9-3.1,14.5-3.4,21.9c-0.6,16.9-1.2,33.8-2,50.7c0.5-0.1,1-0.2,1.5-0.2
				C1701.1,183.4,1702.6,163.4,1702.8,159.4z"/>
			<path class="st24" d="M1713.7,102.8c-2.6-5-3.7-10.9-3-16.5c-1.1,1.5-1.2,3.5-1.3,5.4c-0.1,2.4-0.2,4.7-0.3,7.1
				c-0.6-1.1-1.3-2.2-1.9-3.3c-0.1,3.5,0,7,0.4,10.5c-1.4-0.7-2.7-1.9-3.4-3.3c0.3,2.3,0.6,4.6,0.9,6.9c0.1,1,0.2,1.9,0.7,2.7
				c0.5,0.8,1.5,1.4,2.4,1.2C1708.3,109.4,1710.4,105.4,1713.7,102.8z"/>
			<g>
				<path class="st23" d="M1771.5,40.5c-5.6,14.8-17.9,25.9-25.7,39.6c-3.3,5.8-5.7,12-9.1,17.6c-3.4,5.8-7.8,10.9-12.2,15.9
					c-2.5,2.9-5.4,5.9-9.1,6.5c-3.7,0.7-8.3-2.4-7.6-6.1c-0.2,0.1-0.4,0.2-0.6,0.3c-1.9,1-3.4,2.5-5.3,3.5c-2.1,1.1-5,1.2-6.4-0.7
					c-0.5-0.7-0.7-1.5-0.8-2.3c-1-5.9,0.8-12.1,3.9-17.2c3.1-5.2,7.3-9.5,11.5-13.8c4.2-4.4,8.4-8.7,12.7-13
					c3.6-3.7,7.2-7.4,11.4-10.4c11.5-8.1,26.7-10.3,37.2-19.7C1771.4,40.5,1771.5,40.5,1771.5,40.5z"/>
				<path class="st25" d="M1716.5,89.1c0.9,2.1,1.2,4.5,0.9,6.8c3.8-6.1,8.6-11.4,13.4-16.7c2.9-3.2,5.9-6.5,8.8-9.7
					c3.9-4.3,7.9-8.7,12.9-11.8c-1.2,0.3-2.4,0.7-3.6,1c-0.2-0.7-0.4-1.5-0.5-2.2c-1.6,2.9-3.2,5.8-4.8,8.7c-0.9-1.8-1.2-3.8-1-5.8
					c-0.6,4.3-2.5,8.4-5.4,11.7c-0.1-1.3-0.2-2.5-0.3-3.8c-1,3.5-3,6.8-5.7,9.2c-0.8-2.2-2-4.3-3.4-6.1c-0.1,1.6-0.2,3.3-0.3,4.9
					c-0.5-0.2-1.1-0.3-1.6-0.5c0,1.1,0,2.2,0,3.3c-0.4-0.8-0.7-1.7-1.1-2.5c-0.9,3.4-1.8,6.8-2.7,10.2c-1.5-1.1-2.6-2.7-3.1-4.4
					c0.6,3.3,0.5,6.6-0.5,9.8C1717.3,91.3,1716.3,90.2,1716.5,89.1z"/>
				<linearGradient id="SVGID_1_" gradientUnits="userSpaceOnUse" x1="1746.9655" y1="85.6568" x2="1737.2378" y2="76.2894">
					<stop  offset="0" style="stop-color:#55913B"/>
					<stop  offset="0.1114" style="stop-color:#528B39"/>
					<stop  offset="0.6593" style="stop-color:#44742F"/>
					<stop  offset="1" style="stop-color:#3F6B2C"/>
				</linearGradient>
				<path class="st26" d="M1771.5,40.5c-5.6,14.8-17.9,25.9-25.7,39.6c-3.3,5.8-5.7,12-9.1,17.6c-3.4,5.8-7.8,10.9-12.2,15.9
					c-2.5,2.9-5.4,5.9-9.1,6.5c-3.7,0.7-8.3-2.4-7.6-6.1c-0.2,0.1-0.4,0.2-0.6,0.3c0.2-5,4.6-9.1,7.7-13.2c3.3-4.4,5.2-9.7,8.4-14.1
					c4.2-5.8,10.3-10,15-15.4c2.9-3.4,5.2-7.3,8.5-10.5c3.7-3.6,8.4-5.9,12.7-8.8c4.6-3.2,8.6-7.1,12-11.6
					C1771.4,40.5,1771.5,40.5,1771.5,40.5z"/>
				<path class="st27" d="M1720.9,106.1c-1.9-0.1-3.8,0.3-5.6,1c2.5-5.1,7-9.3,12.3-11.4c-1.6,0-3.1,0-4.7,0
					c0.4-0.8,1.3-1.3,2.2-1.3c-0.5-0.4-1-0.8-1.5-1.3c4.8-4,10.3-7.2,16.1-9.6c-3.2,0.4-6.4,0.8-9.6,1.3c5.3-3.9,10.1-8.4,14.3-13.5
					c-2.8,0.9-5.4,2.4-7.7,4.3c2.5-2.4,4.6-5.2,6-8.4c-2.2,2.7-4.7,5.1-7.4,7.4c-1.9,1.6-4,3-5.6,4.9c-2.2,2.4-4.5,4.7-6.2,7.5
					c-5.6,8.9-14.1,16.4-16.4,26.6c5-1.3,9.9-2.7,14.8-4.1c-3-0.3-6.1,0-8.9,1.1C1715.2,108.6,1717.9,107.1,1720.9,106.1z"/>
			</g>
			<g>
				<path class="st28" d="M1698.6,91c-1.6,1.2-3.8-0.2-4.8-1.9c-1-1.7-1.5-3.7-3.1-4.9c-1.3-1-2.7-1-4.1-0.5
					c-2.3,0.9-4.4,3.2-5.2,5.7c-1.3,3.9-1.4,8.6-4.3,11.6c-2.7,2.7-7.2,3-10.6,1.4c-3.4-1.7-5.8-5-7.2-8.5
					c-3.9-10.3,0.1-21.8,4.1-32c6.3-16.2,12.6-32.3,18.9-48.5c2.2-5.5,5.1-11.7,10.8-13.1c0.1,0,0.1,0,0.2-0.1
					c-3.9,14.9,0.4,30.6,4.2,45.5C1701.4,60.5,1704.5,76.7,1698.6,91z"/>
				<path class="st29" d="M1698.6,91c-1.6,1.2-3.8-0.2-4.8-1.9c-1-1.7-1.5-3.7-3.1-4.9c-1.3-1-2.7-1-4.1-0.5c0-1.3,0.3-2.7,0.6-3.9
					c0-0.1,0-0.1,0.1-0.2c3-16.1-4.3-32.3-4.2-48.7c0.1-4.9,0.8-9.8,2.2-14.5c1.7-5.8,4.4-11.3,7.9-16.2c0.1,0,0.1,0,0.2-0.1
					c-3.9,14.9,0.4,30.6,4.2,45.5C1701.4,60.5,1704.5,76.7,1698.6,91z"/>
				<path class="st30" d="M1697.3,82.2c-2.6-2.6-6.6-3.5-10.1-2.5c0-0.1,0-0.1,0.1-0.2c3-16.1-4.3-32.3-4.2-48.7
					c0.1-4.9,0.8-9.8,2.2-14.5c0.1,0.6,0.2,1.2,0.7,1.3c1.2,0.3,1.9-2.3,3-1.7c-2.2,2.3-4,5.1-5,8.2c0.8-0.4,1.6-0.7,2.4-1.1
					c-1.6,2.6-2.4,5.6-2.4,8.6c1.8-1.6,3.5-3.3,5.3-5c-2.3,3.1-4,6.6-4.9,10.4c0.9-1,2-1.8,3.3-2.2c-1.4,4.2-1.8,8.7-1.1,13.1
					c1.8-1.2,3.6-2.5,5.4-3.7c-1.4,4.2-2.7,8.4-3.9,12.7c0.3-0.7,1.2,0.4,1.2,1.1c-0.1,1.3-0.1,2.7-0.2,4c0.6,0,1.2,0,1.8,0
					c0.4,2.9,3.3,4.6,5.9,5.9c-2.7-1.2-6.2,0.8-6.6,3.7c1-0.7,2.5-0.3,3.1,0.7c-1.1,0.1-2.1,0.7-2.7,1.6
					C1694.6,74,1697.9,78.2,1697.3,82.2z"/>
				<path class="st31" d="M1685.7,12.2c-0.5,4.4-1,8.7-1.6,13.1c-0.4,3-0.7,6.1-0.6,9.1c0.2,3,0.8,5.9,1.4,8.8
					c2,10.2,3.2,20.5,3.3,30.8c0,2.1-0.2,4.7-2.2,5.5c-0.9,0.4-1.9,0.3-2.8,0.4c-2.8,0.4-4.8,2.6-6.7,4.7c-1.6,1.8-3.2,3.7-4.8,5.5
					c-0.8,0.9-1.7,1.9-2.9,2.4c-1.2,0.5-2.7,0.3-3.4-0.8c1.4,0.4,2.8-0.3,3.8-1.3c1-1,1.6-2.3,2.2-3.6c1.9-3.6,4.9-7,8.9-8.1
					c-4.7-0.3-9.5,0.4-14,2c2.9-2.5,6.6-4.2,10.4-4.7c0.6-0.1,1.3-0.2,1.8-0.6c0.2-0.2,0.3-0.4,0.4-0.6c0.9-1.8,0.8-4.1-0.4-5.8
					c-1.1-1.7-3.2-2.8-5.2-2.7c1.9-0.4,3.8-1.1,5.5-2c-0.6-0.7-1.3-1.3-1.9-2c0.9-0.1,1.8-0.3,2.6-0.4c0.1-1.2,0-2.5-0.2-3.7
					c0.6,0.2,1.3-0.3,1.5-1c0.2-0.6,0-1.3-0.1-2c-1.1-4-2.9-7.8-5.2-11.1c1.1,0.1,2.2,0.1,3.4,0.2c0.2-3.6,0.4-7.3,0.6-10.9
					C1680.4,26.1,1681,18.1,1685.7,12.2z"/>
			</g>
			<g>
				<path class="st32" d="M1647.8,111.7c7.8,4,14,10.7,19.9,17.2c2.8,3,5.6,6.3,6.7,10.2c0.8-1.1,2.6-0.6,3.8,0.1
					c4,2.2,7.5,5.2,10.5,8.6c-1.1-6.9-5.4-12.8-10.4-17.7c-6.7-6.5-14.6-11.6-22.5-16.7c-4.4-2.8-9-5.7-14-7.2c-3.6-1-7.5-1-10.6-3
					C1635.6,107.6,1642.2,108.8,1647.8,111.7z"/>
				<path class="st28" d="M1631,103.2c6.7,4.7,15,7.3,21.7,12c2.3,1.6,4.4,3.4,6.4,5.4c4.2,4.1,8.2,8.5,11.7,13.2
					c3.8,5.1,7.1,10.5,10.5,15.9c2.6,4.3,5.3,8.6,6.6,13.5c0.8,2.8,1.1,5.7,1.4,8.5c0.5,5.1,1.1,10.1,1.6,15.2
					c0.6-0.1,1.2-0.2,1.8-0.3c-0.9-6.8-1.9-13.7-3-20.5c-0.5-3.1-1-6.2-2-9.2c-1.6-4.4-4.2-8.3-6.9-12.1c-9-13-18.6-26.4-32.6-33.5
					c-1.1-0.6-2.3-1.1-3.5-1.6c-1.1-0.5-2.2-1-3.2-1.5C1637.8,106.7,1634.4,104.8,1631,103.2z"/>
				<path class="st28" d="M1668.8,126.8c0.3,0.1,0.6,0.1,0.9,0.1c0.4,0.1,0.9,0.2,1.3,0.4c3.5,1.5,6.6,4,8.8,7.2
					c-1.3-0.8-2.7-1.6-4-2.5c-1.1-0.7-2.4-1.4-3.7-1.1c-0.1,0.5,0.2,1,0.7,1.3c0.4,0.3,1,0.4,1.5,0.6c1.5,0.5,3,1.2,4.3,2.2
					c0.6,0.5,1.2,1.1,1.1,1.9c-1.5-1.1-3.4-1.8-5.2-1.9c-0.2,0.3,0.1,0.7,0.4,0.9s0.6,0.3,0.9,0.5c0.5,0.5,0.5,1.4-0.1,1.9
					c-1.7-2.1-3.4-4.1-5-6.2c-3-3.7-6-7.4-9.8-10.3c-1.3-1-2.8-2.2-2.6-3.8c0.4,0.8,0.8,1.6,1.6,2c0.8,0.4,2-0.2,1.8-1.1
					c0.6,0.3,0.7,1,0.8,1.6c0.1,0.6,0.5,1.3,1.1,1.3c0.2-0.3,0.6-0.5,1-0.5c0.2,0.9,0.5,1.8,0.9,2.7c0.2-0.2,0.4-0.3,0.7-0.3
					c0.5,0.9,1.1,1.8,1.9,2.5C1668.2,126.5,1668.5,126.7,1668.8,126.8z"/>
			</g>
			<path class="st28" d="M1694.6,159.7c1.2,5.9,1.7,12,1.5,18c-0.1,2.8-0.4,5.7,0.3,8.4c-0.6-0.1-1.2-0.2-1.7-0.4
				c0.5-34.6-8.1-68.8-9.5-103.4c0.6,0.2,1.1-0.5,1.7-0.4c-0.1,3.4,0.3,6.8,0.7,10.2c1.3,12,2.5,24,3.8,36c0.3,2.6,0.6,5.3,1,7.9
				c0.3,2,0.8,4,1.2,6C1694.8,147.8,1693.4,153.8,1694.6,159.7z"/>
		</g>
		<polygon class="st33" points="1727.5,160 1724.4,175.4 1723.8,178.8 1716.4,215.2 1675.3,215.2 1668,178.8 1667.3,175.4 
			1664.2,160 		"/>
		<polygon class="st34" points="1694.9,160 1695.6,215.2 1681.2,215.2 1675.1,178.8 1674.5,175.4 1672,160 		"/>
		<rect x="1664.2" y="160" class="st33" width="63.3" height="15.4"/>
		<rect x="1672" y="160" class="st35" width="21.1" height="15.4"/>
		<polygon class="st36" points="1724.4,175.4 1723.8,178.8 1668,178.8 1667.3,175.4 		"/>
	</g>
	<path class="st19" d="M1654.1,213.8h-218.3c-2.9,0-5.3-2.4-5.3-5.3v-24.2c0-2.9,2.4-5.3,5.3-5.3h218.3c2.9,0,5.3,2.4,5.3,5.3v24.2
		C1659.3,211.4,1657,213.8,1654.1,213.8L1654.1,213.8z"/>
	<path class="st37" d="M1646.1,144.7h-183.9c-3.2,0-5.8,2.3-5.8,5.2v23.9c0,2.9,2.6,5.2,5.8,5.2h183.9c3.2,0,5.8-2.3,5.8-5.2v-23.9
		C1651.9,147,1649.3,144.7,1646.1,144.7L1646.1,144.7z"/>
	<path class="st38" d="M1470.4,51.6l-83,143.8c-1.4,2.5-0.6,5.7,1.9,7.1l20.7,12c2.5,1.4,5.7,0.6,7.1-1.9l83-143.8
		c1.4-2.5,0.6-5.7-1.9-7.1l-20.7-12C1475,48.3,1471.8,49.1,1470.4,51.6L1470.4,51.6z"/>
	<path class="st20" d="M1430.3,53.1l-83,143.8c-1.4,2.5-0.6,5.7,1.9,7.1l20.7,12c2.5,1.4,5.7,0.6,7.1-1.9L1460,70.3
		c1.4-2.5,0.6-5.7-1.9-7.1l-20.7-11.9C1434.9,49.7,1431.7,50.6,1430.3,53.1L1430.3,53.1z"/>
	<g>
		<g>
			<g class="st39">
				<g class="st39">
					<defs>
						<path id="SVGID_2_" class="st39" d="M1754.6,273.7l-5.4,0.6c-0.1,0-0.2,0-0.3,0l5.4-0.6
							C1754.4,273.7,1754.5,273.7,1754.6,273.7z"/>
					</defs>
					<clipPath id="SVGID_3_">
						<use xlink:href="#SVGID_2_"  style="overflow:visible;"/>
					</clipPath>
					<g class="st40">
						<path class="st41" d="M1754.6,273.7l-5.4,0.6c-0.1,0-0.2,0-0.3,0l5.4-0.6C1754.4,273.7,1754.5,273.7,1754.6,273.7"/>
					</g>
				</g>
				<g class="st39">
					<defs>
						<path id="SVGID_4_" class="st39" d="M1725,247l5.4-0.6c-1.4,0.2-2.4,1.3-2.5,2.8l-5.4,0.6C1722.6,248.4,1723.6,247.2,1725,247
							z"/>
					</defs>
					<clipPath id="SVGID_5_">
						<use xlink:href="#SVGID_4_"  style="overflow:visible;"/>
					</clipPath>
					<g class="st42">
						<path class="st41" d="M1727.9,249.2l-5.4,0.6c0-1.2,0.8-2.2,1.8-2.6l5.4-0.6C1728.7,247,1727.9,248,1727.9,249.2"/>
						<path class="st43" d="M1729.8,246.6l-5.4,0.6c0.2-0.1,0.4-0.1,0.6-0.1l5.4-0.6C1730.2,246.4,1730,246.5,1729.8,246.6"/>
						<path class="st44" d="M1730.4,246.4l-5.4,0.6c0,0,0,0,0,0L1730.4,246.4C1730.4,246.4,1730.4,246.4,1730.4,246.4"/>
					</g>
				</g>
				<g>
					<polygon class="st45" points="1754.3,273.7 1748.9,274.3 1725.2,274.1 1730.5,273.5 					"/>
				</g>
				<g>
					<polygon class="st45" points="1727.8,270.7 1722.4,271.3 1722.6,249.8 1727.9,249.2 					"/>
				</g>
				<g>
					<path class="st46" d="M1754.5,246.6c1.5,0,2.8,1.3,2.8,2.8l-0.2,21.5c0,1.5-1.3,2.8-2.8,2.8l-23.7-0.2c-1.5,0-2.8-1.3-2.8-2.8
						l0.2-21.5c0-1.5,1.3-2.8,2.8-2.8L1754.5,246.6z"/>
				</g>
				<g class="st39">
					<defs>
						<path id="SVGID_6_" class="st39" d="M1730.5,273.5l-5.4,0.6c-1.5,0-2.8-1.3-2.8-2.8l5.4-0.6
							C1727.8,272.2,1729,273.5,1730.5,273.5z"/>
					</defs>
					<clipPath id="SVGID_7_">
						<use xlink:href="#SVGID_6_"  style="overflow:visible;"/>
					</clipPath>
					<g class="st47">
						<path class="st41" d="M1730.5,273.5l-5.4,0.6c-1.5,0-2.8-1.3-2.8-2.8l5.4-0.6C1727.8,272.2,1729,273.5,1730.5,273.5"/>
					</g>
				</g>
			</g>
		</g>
	</g>
	<g>
		<path class="st48" d="M1263.3,151.9c-0.3,0-0.5-0.2-0.5-0.5v-6.3c0-0.3,0.2-0.5,0.5-0.5s0.5,0.2,0.5,0.5v6.3
			C1263.8,151.7,1263.6,151.9,1263.3,151.9z"/>
	</g>
	<path class="st49" d="M1263.3,203.8L1263.3,203.8c-4.3,0-7.9-3.5-7.9-7.9v-38.3c0-4.3,3.5-7.9,7.9-7.9l0,0c4.3,0,7.9,3.5,7.9,7.9
		v38.3C1271.2,200.3,1267.6,203.8,1263.3,203.8z"/>
	<path class="st50" d="M1283.1,195.4c0,7.5-4.2,14-10.3,17.4h-19c-6.2-3.4-10.3-9.9-10.3-17.4c0-1.1,0.9-1.9,1.9-1.9h35.8
		C1282.3,193.5,1283.1,194.4,1283.1,195.4z"/>
	<g>
		<g>
			<g class="st39">
				<g class="st39">
					<defs>
						<path id="SVGID_8_" class="st39" d="M1768.4,254.9l-5.4,0.6c-0.6,0.1-1.3,0.1-2,0.1l5.4-0.6
							C1767.1,255,1767.8,255,1768.4,254.9z"/>
					</defs>
					<clipPath id="SVGID_9_">
						<use xlink:href="#SVGID_8_"  style="overflow:visible;"/>
					</clipPath>
					<g class="st51">
						<path class="st41" d="M1768.4,254.9l-5.4,0.6c-0.6,0.1-1.3,0.1-2,0.1l5.4-0.6C1767.1,255,1767.8,255,1768.4,254.9"/>
					</g>
				</g>
				<g>
					<polygon class="st45" points="1766.5,255 1761.1,255.6 1222.9,250.9 1228.3,250.3 					"/>
				</g>
				<g class="st39">
					<defs>
						<path id="SVGID_10_" class="st39" d="M1225.7,271.4l-5.4,0.6c-0.1,0-0.2,0-0.3,0l5.4-0.6
							C1225.5,271.4,1225.6,271.4,1225.7,271.4z"/>
					</defs>
					<clipPath id="SVGID_11_">
						<use xlink:href="#SVGID_10_"  style="overflow:visible;"/>
					</clipPath>
					<g class="st52">
						<path class="st41" d="M1225.7,271.4l-5.4,0.6c-0.1,0-0.2,0-0.3,0l5.4-0.6C1225.5,271.4,1225.6,271.4,1225.7,271.4"/>
					</g>
				</g>
				<g>
					<polygon class="st45" points="1225.4,271.4 1220,272 1196.3,271.8 1201.6,271.2 					"/>
				</g>
				<g>
					<polygon class="st45" points="1198.9,268.4 1193.5,269 1193.6,250.7 1199,250.1 					"/>
				</g>
				<g class="st39">
					<defs>
						<path id="SVGID_12_" class="st39" d="M1201.6,271.2l-5.4,0.6c-1.5,0-2.8-1.3-2.8-2.8l5.4-0.6
							C1198.9,269.9,1200.1,271.2,1201.6,271.2z"/>
					</defs>
					<clipPath id="SVGID_13_">
						<use xlink:href="#SVGID_12_"  style="overflow:visible;"/>
					</clipPath>
					<g class="st53">
						<path class="st41" d="M1201.6,271.2l-5.4,0.6c-1.5,0-2.8-1.3-2.8-2.8l5.4-0.6C1198.9,269.9,1200.1,271.2,1201.6,271.2"/>
					</g>
				</g>
				<g>
					<polygon class="st45" points="1199,250.1 1193.6,250.7 1185.6,250.6 1191,250 					"/>
				</g>
				<g class="st39">
					<defs>
						<path id="SVGID_14_" class="st39" d="M1183.9,210.7l5.4-0.6c-7.7,0.9-13.7,7.4-13.7,15.4l-5.4,0.6
							C1170.2,218.2,1176.2,211.6,1183.9,210.7z"/>
					</defs>
					<clipPath id="SVGID_15_">
						<use xlink:href="#SVGID_14_"  style="overflow:visible;"/>
					</clipPath>
					<g class="st54">
						<path class="st41" d="M1175.6,225.5l-5.4,0.6c0-6.7,4.3-12.4,10.2-14.6l5.4-0.6C1179.8,213.1,1175.6,218.8,1175.6,225.5"/>
						<path class="st43" d="M1185.8,210.9l-5.4,0.6c1.1-0.4,2.2-0.7,3.4-0.8l5.4-0.6C1188,210.2,1186.9,210.5,1185.8,210.9"/>
						<path class="st44" d="M1189.2,210.1l-5.4,0.6c0,0,0.1,0,0.1,0L1189.2,210.1C1189.3,210.1,1189.2,210.1,1189.2,210.1"/>
					</g>
				</g>
				<g>
					<polygon class="st45" points="1175.5,234.2 1170.1,234.8 1170.2,226.1 1175.6,225.5 					"/>
				</g>
				<g class="st39">
					<defs>
						<path id="SVGID_16_" class="st39" d="M1191,250l-5.4,0.6c-8.6-0.1-15.5-7.2-15.5-15.8l5.4-0.6
							C1175.4,242.8,1182.4,249.9,1191,250z"/>
					</defs>
					<clipPath id="SVGID_17_">
						<use xlink:href="#SVGID_16_"  style="overflow:visible;"/>
					</clipPath>
					<g class="st55">
						<path class="st41" d="M1191,250l-5.4,0.6c-8.6-0.1-15.5-7.2-15.5-15.8l5.4-0.6C1175.4,242.8,1182.4,249.9,1191,250"/>
					</g>
				</g>
				<g>
					<path class="st46" d="M1766.7,215c8.6,0.1,15.5,7.2,15.5,15.8l-0.1,8.7c-0.1,8.7-7.1,15.6-15.7,15.5l-538.2-4.7l-0.1,18.3
						c0,1.5-1.3,2.8-2.8,2.8l-23.7-0.2c-1.5,0-2.8-1.3-2.8-2.8l0.1-18.3l-8-0.1c-8.6-0.1-15.5-7.2-15.5-15.8l0.1-8.7
						c0.1-8.6,7.1-15.6,15.7-15.5L1766.7,215z"/>
				</g>
			</g>
		</g>
	</g>
</g>
<g>
	<g>
		<polygon class="st56" points="762,1046.2 781.8,1155.2 803.1,1155.2 822.5,1046.2 		"/>
		<polygon class="st57" points="762,1046.2 822.5,1046.2 803.1,1155.2 792.3,1066.2 763.9,1056.5 		"/>
	</g>
	<g>
		<polygon class="st56" points="1898.2,1046.2 1917.9,1155.2 1939.3,1155.2 1958.6,1046.2 		"/>
		<polygon class="st57" points="1898.2,1046.2 1958.6,1046.2 1939.3,1155.2 1928.4,1066.2 1900.1,1056.5 		"/>
	</g>
	<path class="st58" d="M1161.2,683c0,0-2.6-96.7-195.9-96.7C776.1,586.4,769.3,683,769.3,683v259.8h391.8V683z"/>
	<path class="st59" d="M1110.3,615.8c29.8,25.6,30.5,53,30.5,53v259.8H769.3v14.2h391.8V683C1161.2,683,1160.1,644.2,1110.3,615.8z"
		/>
	<g>
		<path class="st60" d="M975.2,769.7c0,6.4-5.1,11.5-11.5,11.5c-6.4,0-11.5-5.1-11.5-11.5c0-6.4,5.2-11.5,11.5-11.5
			C970.1,758.2,975.2,763.4,975.2,769.7z"/>
		<path class="st60" d="M893.2,692.3c0,0,15.6,24.3,24.4,32.5c17.4,16.3,34.6,26.4,34.6,26.4s-10.1-17.1-26.4-34.6
			C917.5,707.9,893.2,692.3,893.2,692.3z"/>
		<path class="st60" d="M893.7,843.3c0,0,24.1-15.9,32.2-24.9c16.1-17.6,25.9-34.9,25.9-34.9s-17,10.3-34.2,26.9
			C908.9,818.8,893.7,843.3,893.7,843.3z"/>
		<path class="st60" d="M1037.3,841.9c0,0-16.4-23.7-25.5-31.7c-18-15.7-35.4-25.2-35.4-25.2s10.7,16.8,27.6,33.6
			C1012.5,827.1,1037.3,841.9,1037.3,841.9z"/>
		<path class="st60" d="M1033.3,692.3c0,0-23.5,16.7-31.3,25.9c-15.5,18.2-24.8,35.8-24.8,35.8s16.6-10.9,33.3-28.1
			C1018.9,717.3,1033.3,692.3,1033.3,692.3z"/>
	</g>
	<path class="st61" d="M964.2,619.7c-0.4-2.2-1.9-4-3.6-5.4c-5-4.1-11.9-5.2-18.3-5.7c-47.3-3.8-95.9,14.4-129,48.4l-7.8,9.4
		c-9.1,8.5-14.1,21.2-13,33.6c0.4,5,1.9,10.1,5.5,13.6c5.7,5.4,14.9,5.1,22.2,2.3c7.3-2.8,13.7-7.6,18.5-13.7
		c5.4-7,8.5-15.5,12.9-23.2c10.3-18.2,28-32,48.2-37.4c17.9-4.8,37.3-3.3,54.6-9.8C959.5,629.6,965.4,625.2,964.2,619.7z"/>
	<path class="st58" d="M1553,686.8c0,0-2.6-96.7-195.9-96.7c-189.2,0.1-195.9,96.7-195.9,96.7v259.8H1553V686.8z"/>
	<path class="st59" d="M1502.1,619.6c29.8,25.6,30.5,53,30.5,53v259.8h-371.4v14.2H1553V686.8C1553,686.8,1551.9,648.1,1502.1,619.6
		z"/>
	<g>
		<path class="st60" d="M1367,773.8c0,6.4-5.2,11.5-11.5,11.5c-6.4,0-11.5-5.1-11.5-11.5c0-6.4,5.2-11.5,11.5-11.5
			C1361.9,762.3,1367,767.4,1367,773.8z"/>
		<path class="st60" d="M1285.1,696.3c0,0,15.6,24.3,24.4,32.5c17.4,16.3,34.6,26.4,34.6,26.4s-10.1-17.1-26.4-34.6
			C1309.3,711.9,1285.1,696.3,1285.1,696.3z"/>
		<path class="st60" d="M1285.5,847.4c0,0,24-15.9,32.2-24.9c16.1-17.6,25.9-34.9,25.9-34.9s-17,10.3-34.2,26.9
			C1300.7,822.9,1285.5,847.4,1285.5,847.4z"/>
		<path class="st60" d="M1429.1,845.9c0,0-16.4-23.7-25.5-31.7c-18-15.7-35.4-25.2-35.4-25.2s10.7,16.8,27.6,33.6
			C1404.3,831.2,1429.1,845.9,1429.1,845.9z"/>
		<path class="st60" d="M1425.1,696.3c0,0-23.5,16.7-31.3,25.9c-15.5,18.2-24.8,35.8-24.8,35.8s16.6-10.9,33.3-28.1
			C1410.7,721.3,1425.1,696.3,1425.1,696.3z"/>
	</g>
	<path class="st61" d="M1356,623.7c-0.4-2.2-1.9-4-3.6-5.4c-5-4.1-11.9-5.2-18.3-5.7c-47.3-3.8-95.9,14.4-129,48.4l-7.8,9.4
		c-9.1,8.5-14.1,21.2-13,33.6c0.4,5,1.9,10.1,5.5,13.6c5.7,5.4,14.9,5.1,22.2,2.3c7.3-2.8,13.7-7.6,18.5-13.7
		c5.4-7,8.5-15.5,12.9-23.2c10.3-18.2,28-32,48.2-37.4c17.9-4.8,37.3-3.3,54.6-9.8C1351.3,633.6,1357.2,629.3,1356,623.7z"/>
	<path class="st58" d="M1944.8,690.7c0,0-2.6-96.7-195.9-96.7c-189.2,0.1-195.9,96.7-195.9,96.7v259.8h391.8V690.7z"/>
	<path class="st59" d="M1893.9,623.5c29.8,25.6,30.5,53,30.5,53v259.8H1553v14.2h391.8V690.7
		C1944.8,690.7,1943.8,651.9,1893.9,623.5z"/>
	<g>
		<path class="st60" d="M1758.9,777.8c0,6.4-5.1,11.5-11.5,11.5c-6.4,0-11.5-5.2-11.5-11.5c0-6.4,5.1-11.5,11.5-11.5
			C1753.7,766.3,1758.9,771.5,1758.9,777.8z"/>
		<path class="st60" d="M1676.9,700.4c0,0,15.6,24.3,24.4,32.5c17.4,16.3,34.6,26.4,34.6,26.4s-10.1-17.1-26.4-34.6
			C1701.2,716,1676.9,700.4,1676.9,700.4z"/>
		<path class="st60" d="M1677.3,851.4c0,0,24.1-15.9,32.2-24.9c16.1-17.6,25.9-34.9,25.9-34.9s-17,10.3-34.2,26.9
			C1692.6,826.9,1677.3,851.4,1677.3,851.4z"/>
		<path class="st60" d="M1820.9,850c0,0-16.4-23.7-25.5-31.7c-18-15.7-35.4-25.2-35.4-25.2s10.7,16.8,27.6,33.6
			C1796.1,835.2,1820.9,850,1820.9,850z"/>
		<path class="st60" d="M1816.9,700.4c0,0-23.5,16.7-31.3,25.9c-15.5,18.2-24.8,35.8-24.8,35.8s16.6-10.9,33.3-28.1
			C1802.5,725.3,1816.9,700.4,1816.9,700.4z"/>
	</g>
	<path class="st61" d="M1747.9,627.8c-0.4-2.2-1.9-4-3.6-5.4c-5-4.1-11.9-5.2-18.3-5.7c-47.3-3.8-95.9,14.4-129,48.4l-7.8,9.4
		c-9.1,8.5-14.1,21.2-13,33.6c0.4,5,1.9,10.1,5.5,13.6c5.7,5.4,14.9,5.1,22.2,2.3c7.3-2.8,13.7-7.6,18.5-13.7
		c5.4-7,8.5-15.5,12.9-23.2c10.3-18.2,28-32,48.2-37.4c17.9-4.8,37.3-3.3,54.6-9.8C1743.1,637.7,1749,633.3,1747.9,627.8z"/>
	<path class="st62" d="M965.3,894.2c0,0-39.6-26-98-26c-56.4,0-98,26-98,26v122.5h195.9V894.2z"/>
	<path class="st62" d="M1161.2,894.2c0,0-39.6-26-98-26c-56.4,0-98,26-98,26v122.5h195.9V894.2z"/>
	<path class="st62" d="M1357.1,894.2c0,0-39.6-26-98-26c-56.4,0-98,26-98,26v122.5h195.9V894.2z"/>
	<path class="st62" d="M1553,894.2c0,0-39.6-26-98-26c-56.4,0-98,26-98,26v122.5H1553V894.2z"/>
	<path class="st62" d="M1748.9,894.2c0,0-39.6-26-98-26c-56.4,0-98,26-98,26v122.5h195.9V894.2z"/>
	<path class="st62" d="M1944.8,894.2c0,0-39.6-26-98-26c-56.4,0-98,26-98,26v122.5h195.9V894.2z"/>
	<rect x="769.3" y="974.6" class="st59" width="1175.5" height="42"/>
	<path class="st58" d="M798.3,900.4c-4.7,3.3-9.1,7.3-11.6,12.4c-2.5,5.2-2.5,11.8,1.1,16.2c4.4,5.5,12.9,6,19.5,3.5
		c6.6-2.5,12-7.4,17.8-11.4c12.7-8.7,27.9-13.5,43.3-13.7c3.5,0,7.4,0.1,10.3-1.9c5.4-3.8,3.7-13-1.7-16.8c-8.5-5.9-29-4.7-38.8-3.6
		C823.9,886.8,810,892.1,798.3,900.4z"/>
	<path class="st58" d="M998.1,900.2c-4.7,3.3-9.1,7.3-11.6,12.4c-2.5,5.2-2.5,11.8,1.1,16.2c4.4,5.5,12.9,6,19.5,3.5
		c6.6-2.5,12-7.4,17.8-11.4c12.7-8.7,27.9-13.5,43.3-13.7c3.5,0,7.4,0.1,10.3-1.9c5.4-3.8,3.7-13-1.7-16.8c-8.5-5.9-29-4.7-38.8-3.6
		C1023.7,886.7,1009.8,891.9,998.1,900.2z"/>
	<path class="st58" d="M1197.4,900.2c-4.7,3.3-9.1,7.3-11.6,12.4c-2.5,5.2-2.5,11.8,1.1,16.2c4.4,5.5,12.9,6,19.5,3.5
		c6.6-2.5,12-7.4,17.8-11.4c12.7-8.7,27.9-13.5,43.3-13.7c3.5,0,7.4,0.1,10.3-1.9c5.4-3.8,3.7-13-1.7-16.8c-8.5-5.9-29-4.7-38.8-3.6
		C1223,886.7,1209.1,891.9,1197.4,900.2z"/>
	<path class="st58" d="M1389.9,900.2c-4.7,3.3-9.1,7.3-11.6,12.4c-2.5,5.2-2.5,11.8,1.1,16.2c4.4,5.5,12.9,6,19.5,3.5
		c6.6-2.5,12-7.4,17.8-11.4c12.7-8.7,27.9-13.5,43.3-13.7c3.5,0,7.4,0.1,10.3-1.9c5.4-3.8,3.7-13-1.7-16.8c-8.5-5.9-29-4.7-38.8-3.6
		C1415.5,886.7,1401.6,891.9,1389.9,900.2z"/>
	<path class="st58" d="M1589.2,900.2c-4.7,3.3-9.1,7.3-11.6,12.4c-2.5,5.2-2.5,11.8,1.1,16.2c4.4,5.5,12.9,6,19.5,3.5
		c6.6-2.5,12-7.4,17.8-11.4c12.7-8.7,27.9-13.5,43.3-13.7c3.5,0,7.4,0.1,10.3-1.9c5.4-3.8,3.7-13-1.7-16.8c-8.5-5.9-29-4.7-38.8-3.6
		C1614.8,886.7,1600.9,891.9,1589.2,900.2z"/>
	<path class="st58" d="M1781.8,900.2c-4.7,3.3-9.1,7.3-11.6,12.4c-2.5,5.2-2.5,11.8,1.1,16.2c4.4,5.5,12.9,6,19.5,3.5
		c6.6-2.5,12-7.4,17.8-11.4c12.7-8.7,27.9-13.5,43.3-13.7c3.5,0,7.4,0.1,10.3-1.9c5.4-3.8,3.7-13-1.7-16.8c-8.5-5.9-29-4.7-38.8-3.6
		C1807.4,886.7,1793.5,891.9,1781.8,900.2z"/>
	<rect x="738.2" y="1016.6" class="st63" width="1234.4" height="35.9"/>
	<rect x="730.9" y="800.3" class="st63" width="38.5" height="252.3"/>
	<rect x="1944.8" y="800.3" class="st63" width="38.5" height="252.3"/>
	<path class="st59" d="M1993.5,762.1h-58.9c-3.4,0-6.2,2.8-6.2,6.2v25.8c0,3.4,2.8,6.2,6.2,6.2h58.9c3.4,0,6.2-2.8,6.2-6.2v-25.8
		C1999.7,764.8,1996.9,762.1,1993.5,762.1z"/>
	<path class="st59" d="M779.5,764.4h-58.9c-3.4,0-6.2,2.8-6.2,6.2v25.8c0,3.4,2.8,6.2,6.2,6.2h58.9c3.4,0,6.2-2.8,6.2-6.2v-25.8
		C785.7,767.2,783,764.4,779.5,764.4z"/>
</g>
<g class="st64">
	<path class="st65" d="M2043.1,876.9h-129.6c-94.2,0-125.5-65.1-153.7-134.7l-68.2-167.8c-11.8-29.1-32.3-41.1-53-41.1l0,0H647.7
		l61.2,300.7l182,190.9h878.4h40.8h0h0h233c40.7,0,74-33.3,74-74l0,0C2117.1,910.2,2083.8,876.9,2043.1,876.9L2043.1,876.9z"/>
	<g class="st66">
		<path class="st67" d="M835.7,1169.6c-4,0-8.1-1-11.9-3.1c-12-6.6-16.4-21.7-9.8-33.7l54.3-98.8c8.2-15,24-24.3,41.1-24.3
			c0,0,0.1,0,0.1,0c17.2,0,32.9,9.4,41.1,24.5c45.1,82.9,52.2,95.6,53.3,97.5c7.1,11.4,3.9,26.4-7.3,33.9
			c-11.4,7.6-26.9,4.5-34.5-6.9c-1.1-1.6-2.5-3.7-52.8-96.1l-51.8,94.3C853,1165,844.5,1169.6,835.7,1169.6z M1003.4,1131
			c0.1,0.2,0.2,0.3,0.3,0.5C1003.6,1131.3,1003.5,1131.1,1003.4,1131z"/>
	</g>
	<g class="st66">
		<path class="st68" d="M909.4,1009.6L909.4,1009.6c-17.2,0-33,9.3-41.2,24.3l-54.3,98.8c-6.6,12-2.2,27.1,9.8,33.8
			c3.8,2.1,7.9,3.1,11.9,3.1c2.6,0,5.1-0.4,7.5-1.2c-1.5-0.5-3-1.1-4.5-1.9c-12-6.6-16.4-21.7-9.8-33.8l54.3-98.8
			c7-12.8,19.5-21.4,33.6-23.7C914.4,1009.9,911.9,1009.7,909.4,1009.6z"/>
	</g>
	<g class="st66">
		<path class="st67" d="M1879.2,1158.6c-4,0-8.1-1-11.9-3.1c-12-6.6-16.4-21.7-9.8-33.7l54.3-98.8c8.2-15,24-24.3,41.1-24.3
			c0,0,0.1,0,0.1,0c17.2,0,32.9,9.4,41.1,24.5c45.1,82.9,52.2,95.6,53.3,97.5c7.1,11.4,3.9,26.4-7.3,33.9
			c-11.4,7.6-26.9,4.5-34.5-6.9c-1.1-1.6-2.5-3.7-52.8-96.1l-51.8,94.3C1896.5,1154,1888,1158.6,1879.2,1158.6z M2046.9,1120
			c0.1,0.2,0.2,0.3,0.3,0.5C2047.1,1120.3,2047,1120.1,2046.9,1120z"/>
	</g>
	<g class="st66">
		<path class="st68" d="M1952.9,998.6h-0.1c-17.1,0-32.9,9.3-41.1,24.3l-54.3,98.8c-6.6,12-2.2,27.1,9.8,33.8
			c3.8,2.1,7.9,3.1,11.9,3.1c2.6,0,5.1-0.4,7.5-1.2c-1.5-0.5-3-1.1-4.5-1.9c-12-6.6-16.4-21.7-9.8-33.8l54.3-98.8
			c7-12.8,19.5-21.4,33.6-23.7C1957.9,998.9,1955.4,998.7,1952.9,998.6z"/>
	</g>
	<path class="st69" d="M2043.1,878h-129.6H930v148h839.3h40.8h0h0h233c40.7,0,74-33.3,74-74l0,0C2117.1,911.3,2083.8,878,2043.1,878
		L2043.1,878z"/>
	<path class="st70" d="M1052,877.7H922.1c-94.4,0-125.7-65.3-154.1-135l-68.3-168.2c-34.1-84-140.1-25.8-115.7,52
		c0,0,70.5,229,87.9,280.2c34.1,100.6,85.2,119.3,105.7,119.3h40.8h0h0H1052c40.8,0,74.1-33.4,74.1-74.1l0,0
		C1126.2,911,1092.8,877.7,1052,877.7L1052,877.7z"/>
</g>
<g class="st64">
	<path class="st71" d="M1224.2,585.9l3.3-0.4c0.4-0.1,0.7-0.4,0.6-0.8c-0.1-0.4-0.4-0.7-0.8-0.6l-3.3,0.4c-0.5,0.1-1.1-0.1-1.5-0.5
		c-0.4-0.4-0.6-0.9-0.5-1.5c0.5-4.2,0.7-8.4,0.6-12.4c0-0.4-0.3-0.7-0.7-0.7c-0.4,0-0.7,0.3-0.7,0.7c0.1,3.9-0.1,8-0.6,12.2
		c-0.1,1,0.2,1.9,0.9,2.6C1222.3,585.7,1223.2,586.1,1224.2,585.9z"/>
</g>
<path class="st72" d="M1440.4,802.3c0,0,18.4,3.1,31.1-6.8c12.7-10,49.8-49.4,125.6-17.7c9,3.8,17.5,7.4,25.4,10.8
	c-27.5-11.5-57-11.9-83.7,2c-9.2,4.8-17.6,10.9-26,17.2c-18.5,13.9-44.2,19.2-66.8,21.8c-1,0.1-2.2,0.2-2.9-0.6
	c-0.4-0.5-0.5-1.1-0.5-1.7C1442,818.9,1441.2,810.6,1440.4,802.3z"/>
<path class="st73" d="M1743,596.5l-1.3-6.2c0,0,0-31.1,0-34.5c0-1.1-0.8-3.2-1.8-5.6c-2.3-5.3-6.1-12.4-6.6-14.3
	c-0.6-2.8,3.4-14.6,5-17.7c1.5-3.1,59.4-40.1,62.8-41c3.4-0.9,4.7,7.2,1.6,13.1c-3.1,5.9-26.4,41.4-28.3,44.5
	c-1.9,3.1-5.3,12.8-5.3,21.8c0,9,0,40.4,0,40.4L1743,596.5L1743,596.5z"/>
<path class="st74" d="M1733,548.6c0,0,5.3,4.7,14.8-0.8c9.5-5.5,5-18.4,15-21.6c10-3.2,17.2,0,17.2,0s3.9,1.4,7.3-1.8
	c3.5-3.2,22.4-38.4,23.1-41.4c0.7-3,0.8-12.4-4.4-14.4c-5.2-2-82.4,52.2-82.4,52.2S1721.6,534.7,1733,548.6L1733,548.6z"/>
<path class="st75" d="M1649.6,621.5l-2.6-5.4c0,0-7.4-28.5-8.3-31.7c-0.3-1-1.5-2.7-3-4.7c-3.4-4.3-8.6-9.9-9.4-11.5
	c-1.2-2.4-0.4-14.2,0.3-17.4c0.7-3.2,44.9-51,47.8-52.7c2.9-1.7,6,5.4,4.6,11.6c-1.4,6.2-14.4,44.3-15.3,47.6
	c-1,3.3-1.8,13,0.4,21.2c2.2,8.3,9.7,37.1,9.7,37.1L1649.6,621.5L1649.6,621.5z"/>
<path class="st74" d="M1629.3,579.6c0,0,6.1,3,13.6-4.4c7.5-7.4,0.2-18.4,8.7-23.8c8.5-5.4,16-4.2,16-4.2s4,0.4,6.4-3.5
	c2.5-3.9,11.6-41.3,11.5-44.3c-0.1-3-2.3-11.7-7.6-12.4c-5.3-0.6-64.3,68.8-64.3,68.8S1615.2,569.5,1629.3,579.6L1629.3,579.6z"/>
<path class="st72" d="M1693.4,834c-8.3-43.8-52.2-198.1-56.4-217.7c0,0-2.7-6.7,4-8.6c6.7-1.9,30-8.4,30-8.4s7.7-0.3,10.7,6.8
	c3,7.1,62.1,160.8,84.3,222.8L1693.4,834L1693.4,834z"/>
<path class="st50" d="M1622.3,778.9c59.3,25.5,91,41.8,100.8,44.6c11.2,3.1,9.3-192.8,11.2-224.5c0,0-0.9-8.7,7.5-8.7
	c8.4,0,30,0,30,0s8.9,0,10.3,11.4c1.4,11.3,21,279.1,21,279.1s3.4,20.7-27.7,20.7c-31.1,0-325,0-325,0c-1.3-14.2-2.4-28.5-3.6-42.8
	c-1.1-13.1-4.9-26-4-39.2c0,0.1,24.4-3.9,26.9-4.3c12.9-1.9,25.6-5.6,36.9-12.1c11.5-6.6,20.8-16.4,32.7-22.5
	C1565.8,766.9,1595,767.5,1622.3,778.9z"/>
<g>
	<path class="st76" d="M1200.8,486.1c20.7-4.2,56.6-8.2,77.3,34.2c22.1,45.3,32.9,86.5,79.9,112c56.3,30.6,64.3,72.9,4.8,96.8
		c-59.4,23.9-177.1,57.5-200.6,26.9c-38.3-49.8,13.2-105.8-6.3-138.1c-13.1-21.8-30.7-72.6-4.5-101.7
		C1171.8,493.7,1186.7,488.9,1200.8,486.1L1200.8,486.1z"/>
</g>
<polygon class="st77" points="1272.8,674.6 1248.1,644.8 1214.3,651.8 1224.4,684.6 1246.3,686.3 "/>
<path class="st78" d="M1272.1,582.2c1-10.5,0.9-19.8,0.3-26.1c-2.8-27-99.1-38.9-113-3.2c-0.2,0.4-0.2,0.9-0.3,1.3
	c-0.1,3.2-0.2,17.5,2.5,34.4c-5.1,1.2-8.3,6.2-7.3,11.3c1.1,5.2,6.1,8.5,11.3,7.5c6.6,23.6,24.5,46.9,50.5,50.5
	c35.2,5,46.6-26.4,53.1-57c2,0.6,4.2,0.6,6.3-0.2c3.8-1.5,6.3-5.3,6.1-9.3C1281.5,586.1,1277.1,582.2,1272.1,582.2z"/>
<path class="st76" d="M1185.3,588.5c-1.1-2.3-2.7-3.5-5.1-2.7c-1.9,0.6-2.5,2.4-2.5,4.4c0,0.8,0.2,1.6,0.4,2.4
	c0.2,0.8,0.5,1.6,0.9,2.4c0.4,0.7,0.8,1.4,1.4,2c1,1.1,2.4,1.8,4,1.4c1.3-0.3,2.1-1.6,2.3-3c0.2-1.6,0-3.2-0.5-4.7
	C1186,590,1185.6,589.3,1185.3,588.5L1185.3,588.5L1185.3,588.5z"/>
<path class="st76" d="M1224.4,575.5c0.2-1.6,1.4-2.5,2.8-2.9c1.9-0.5,3.5,0.7,4.5,2.3c0.4,0.7,0.7,1.5,1,2.2
	c0.5,1.5,0.7,3.3,0.4,4.9c-0.2,1.5-1,2.8-2.6,3.3c-1.3,0.4-2.7-0.2-3.6-1.3c-1-1.2-1.7-2.7-2.1-4.2
	C1224.4,578.6,1224.2,577,1224.4,575.5z"/>
<path class="st76" d="M1189.4,578.5c0,0.2-6.2,0.6-6.8,0.6c-3.6,0.5-7.4,1-10.5,3.1c-1.3,0.9-2.3,2.2-3.3,3.4
	c-0.9,1.2-1.8,2.9-3,3.8c0-0.5,0.1-1,0.3-1.4c0.8-2.5,1.6-5.1,2.9-7.3c1.9-3.1,6.1-5.2,9.6-6.2
	C1182,573.4,1190.3,572.9,1189.4,578.5L1189.4,578.5z"/>
<path class="st76" d="M1216.3,571.3c0.1,0.2,6.3-2.8,6.9-3c3.7-1.5,7.7-3,11.8-2.6c1.8,0.2,3.4,0.8,5,1.6c1.5,0.7,3.3,1.9,4.9,2
	c-0.2-0.5-0.7-0.9-1-1.2c-2.1-2-4.2-4.1-6.7-5.5c-3.5-2-8.7-1.8-12.5-0.9C1220.8,562.5,1212.5,566.3,1216.3,571.3L1216.3,571.3z"/>
<path class="st76" d="M1165.7,537.4c0,0,3.8,4.4,17.9,5.2c15.2,0.9,41.5-1.1,64.1,18.5c39.7,34.4,44.3,43.8,44.3,43.8l-35.2-91.9
	L1165.7,537.4z"/>
<path class="st76" d="M1291.7,561.5c0.4-0.2,0.6-0.2,0.9-0.4c0.2-0.1,0.4-0.1,0.6-0.1c0.3-0.1,0.5,0,0.6,0.1l0.4,0.7l0.9,1.4
	l1.8,2.7c1.2,1.8,2.5,3.6,3.8,5.3c2.6,3.5,5.3,6.8,8.1,10c2.9,3.2,5.9,6.1,9.3,8.8c3.3,2.6,6.9,4.9,10.7,6.8
	c7.6,3.8,16.2,6.6,23.8,11.6c7.5,5,13.7,11.6,18.8,18.8l-0.8,0.6c-5.7-6.6-12.1-12.6-19.5-16.9c-7.4-4.3-15.8-6.6-24-10.4
	c-2.1-0.9-4.1-2-6-3.1c-1-0.6-1.9-1.2-2.9-1.8c-0.9-0.7-1.9-1.3-2.8-2c-3.6-2.7-6.9-5.8-10-9.1c-3.1-3.3-5.9-6.8-8.6-10.3
	c-1.3-1.8-2.6-3.6-3.9-5.4l-1.9-2.7l-0.9-1.4l-0.5-0.7c-0.1-0.1,0-0.3,0.2-0.6c0.1-0.1,0.2-0.3,0.4-0.5c0.2-0.2,0.4-0.4,0.7-0.7
	L1291.7,561.5z"/>
<path class="st79" d="M1486.7,783.5c0,10.4-5.2,80.6-7.7,117.9h-200.6c-31.2-20.4-69.1-46.8-72.2-50.6c-4.9-5.9-21.7-28-21.7-36.7
	c0-8.7-9.4-73.7-4.9-94c4.5-20.3,12.2-28.9,12.2-28.9c2.2-2.4,5.8-4.1,8.8-5.4c3.6-1.5,7.5-2.5,11.9-4c4-1.3,4.2-1.6,8.3-2.4
	c1-0.2,1.7-0.6,1.9-0.7c0.1,0,0.3,0.8,0.4,1c2.8,4.5,9.1,5,13.8,4.9c6.6-0.2,13.1-1.6,19.2-4c2.2-0.9,4.4-1.9,6.3-3.4
	c2-1.6,3.3-3.8,4.7-5.8c0.4-0.6,0.8-1.3,1.3-1.8c0.4-0.4,0.8-0.3,1.4-0.3c0.5,0,0.9,0,1.4,0c0.9,0,1.8,0,2.7,0.1
	c1.8,0.1,3.5,0.2,5.3,0.4c9,0.8,17.5,0.6,26,4.2c4.9,2.1,9.4,4.8,13.8,7.6c19.9,12.6,36.8,27.7,51.5,46.1c17.5,21.9,32,44.9,48,59.7
	C1456.7,823.1,1486.7,769.8,1486.7,783.5z"/>
<path class="st80" d="M1304.1,682.1c2.8,0.2,22.5,5.8,55.7,39.3c0,0,0,0,0.1,0.1c0.8,0.9,19,22.4,33.6,43.9
	c11,15.4,39.8,55.2,49.3,89.4c9.5,34.2-13.8,46.6-27.5,46.6h-197.5c-0.4,0-0.8-0.3-0.9-0.7c-2.1-10-12.9-35.6-2-32.2
	c11.8,3.8,25,1.8,36.9-0.5c14.9-2.8,29.6-7,44.4-10c14.4-2.9,29.5-5.2,44.2-3.2c2.8,0.4,5.5,0.9,8.3,1.7c0.6,0.2,1.2-0.3,1.2-0.9
	c0,0,0,0,0,0c0-0.9,0-1.8,0.1-2.7c0.1-0.8,0.2-1.7,0.7-2.4c0.7-1.1,1.8-1.2,3-1.3c0.2,0,1.1-0.1,1.9-0.2c0.7,0,1.1-0.7,0.8-1.3
	c-11.5-23.4-32.4-48.7-41.9-62.3c-25.2-36.2-75.3-80.8-21.9-100.6C1292.7,684.7,1304,682.1,1304.1,682.1z"/>
<path class="st81" d="M987.9,901.4h246c7,0,11.3-5.7,9.5-12.8l-41.4-159.4c-1.8-7-9.1-12.8-16.1-12.8h-246c-7,0-11.3,5.8-9.5,12.8
	l41.4,159.4C973.6,895.6,980.9,901.4,987.9,901.4L987.9,901.4z"/>
<path class="st81" d="M1212.6,901.4h112.2c5.8,0,10.5-4.7,10.5-10.5v0c0-5.8-4.7-10.5-10.5-10.5h-112.2c-5.8,0-10.5,4.7-10.5,10.5v0
	C1202.1,896.6,1206.8,901.4,1212.6,901.4L1212.6,901.4z"/>
<path class="st82" d="M981.3,901.4h238.8c7,0,11.3-5.7,9.5-12.8l-41.4-159.4c-1.8-7-9.1-12.8-16.1-12.8H933.2
	c-7,0-11.3,5.7-9.5,12.8l41.4,159.4C967,895.6,974.3,901.4,981.3,901.4L981.3,901.4z"/>
<path class="st83" d="M1208.2,631.2l24.7-11.5c0,0,4.7,13-6,18.5C1213.8,644.9,1208.2,631.2,1208.2,631.2z"/>
<g>
	<path class="st84" d="M364.1,614.3c0,0-0.1-0.1-0.1-0.1c-0.9-2-1.8-3.1-2.8-3.1h-40.7c-1,0-1.9,1.1-2.8,3.1c0,0-0.1,0-0.1,0.1
		c5.8-38.7,14.1-62.9,23.3-62.9C350,551.4,358.3,575.6,364.1,614.3z"/>
	<path class="st85" d="M333.9,611.1c-0.4,4.8-2.2,9.8-4.5,13.5c-1.5,2.5-4,5.2-6.9,4.9c-1.3-0.1-2.5-0.9-3.6-1.8
		c-1.3-1.1-2.7-2.5-4-4.2c1.6-7.9,3.5-12.4,5.5-12.4H333.9z"/>
	<path class="st85" d="M341.3,628.9c0,0.1,0,0.3,0,0.4c1.1,8.6,11.1-4.8,2.8-3.8C342.8,625.7,341.3,627.1,341.3,628.9z"/>
	<g>
		<path class="st20" d="M639.4,798.3H421.1c-2.9,0-5.3-1.8-5.3-4v-18.4c0-2.2,2.4-4,5.3-4h218.3c2.9,0,5.3,1.8,5.3,4v18.4
			C644.7,796.5,642.3,798.3,639.4,798.3L639.4,798.3z"/>
		<path class="st86" d="M625.1,744.9H441.2c-3.2,0-5.8,1.9-5.8,4.1v18.8c0,2.3,2.6,4.1,5.8,4.1h183.9c3.2,0,5.8-1.9,5.8-4.1V749
			C630.9,746.7,628.3,744.9,625.1,744.9L625.1,744.9z"/>
		<polygon class="st87" points="273.3,1182.1 413.9,1182.1 413.9,814.9 273.3,814.9 273.3,1182.1 		"/>
		<polygon class="st88" points="395,1182.1 692.6,1182.1 692.6,825.9 395,825.9 395,1182.1 		"/>
		<path class="st19" d="M371.1,832.4h345.5c9.3,0,17-7.6,17-17v0c0-9.3-7.7-17-17-17H371.1c-9.4,0-17,7.6-17,17v0
			C354.1,824.7,361.7,832.4,371.1,832.4L371.1,832.4z"/>
		<path class="st89" d="M265.9,832.4H412c9.4,0,17-7.6,17-17v0c0-9.3-7.6-17-17-17H265.9c-9.3,0-17,7.6-17,17v0
			C248.9,824.7,256.6,832.4,265.9,832.4L265.9,832.4z"/>
		<path class="st90" d="M661.8,866.8h-236c-2.3,0-4.4,1-6,2.5c-1.5,1.5-2.5,3.6-2.5,6v104.4c0,2.3,1,4.4,2.5,6l0,0
			c1.5,1.5,3.6,2.5,6,2.5h236c2.3,0,4.3-0.9,5.9-2.4l0.1-0.1c1.5-1.5,2.5-3.7,2.5-6V875.3c0-2.3-1-4.4-2.5-6
			C666.3,867.7,664.1,866.8,661.8,866.8L661.8,866.8z M425.8,861.5h236c3.8,0,7.2,1.5,9.7,4c2.5,2.5,4,5.9,4,9.7v104.4
			c0,3.8-1.5,7.2-4,9.7l-0.2,0.2c-2.5,2.4-5.9,3.9-9.6,3.9h-236c-3.8,0-7.2-1.5-9.7-4l0,0c-2.5-2.5-4-5.9-4-9.7V875.3
			c0-3.8,1.5-7.2,4-9.7C418.6,863,422,861.5,425.8,861.5L425.8,861.5L425.8,861.5z"/>
		<path class="st90" d="M661.8,1030.8h-236c-2.3,0-4.4,1-6,2.5c-1.5,1.5-2.5,3.7-2.5,6v104.4c0,2.3,1,4.5,2.5,6l0,0
			c1.5,1.5,3.6,2.5,6,2.5h236c2.3,0,4.3-0.9,5.9-2.4l0.1-0.1c1.5-1.5,2.5-3.7,2.5-6v-104.4c0-2.3-1-4.4-2.5-6
			C666.3,1031.8,664.1,1030.8,661.8,1030.8L661.8,1030.8z M425.8,1025.5h236c3.8,0,7.2,1.5,9.7,4c2.5,2.5,4,5.9,4,9.7v104.4
			c0,3.8-1.5,7.2-4,9.7l-0.2,0.1c-2.5,2.4-5.9,3.9-9.6,3.9h-236c-3.8,0-7.2-1.6-9.7-4l0,0c-2.5-2.5-4-5.9-4-9.7v-104.4
			c0-3.8,1.5-7.2,4-9.7C418.6,1027.1,422,1025.5,425.8,1025.5L425.8,1025.5L425.8,1025.5z"/>
		<path class="st90" d="M421.8,1052.7H520c4.3,0,7.8,2.2,7.8,4.9v8.4c0,2.7-3.5,4.9-7.8,4.9h-98.3c-4.3,0-7.8-2.2-7.8-4.9v-8.4
			C413.9,1054.9,417.5,1052.7,421.8,1052.7L421.8,1052.7z"/>
		<path class="st90" d="M552.9,895.7h113.7c5,0,9,2.2,9,4.9v8.4c0,2.7-4.1,4.9-9,4.9H552.9c-5,0-9-2.2-9-4.9v-8.4
			C543.8,897.9,547.9,895.7,552.9,895.7L552.9,895.7z"/>
		<path class="st85" d="M359.2,661.7c0.8,3.9,0.7,8.2,0.1,12.1c-1.1,7.3-3.7,14.2-5.3,21.4c-0.8,3.7-1.2,6.9-0.4,10.7
			c1.1,5.2,2.5,12.6-0.4,17.3c-3.9,6.4-14.1,2.3-18.3-1.7c-6.1-5.8-8.3-15.4-10.1-23.8c-2.7-11.9-2.9-25.8,1.8-37.1
			c2.4-5.7,5.9-14.1,11.7-16.1c6.2-2.1,13.2,2.9,17.1,8C357.3,655.2,358.6,658.3,359.2,661.7z"/>
		<path class="st85" d="M369.4,758.6c-2,19.2-4.9,31.4-8.2,31.4h-32.3c0-0.7-0.1-1.3-0.2-2c-0.5-4.6-0.5-9.4,4.8-8.6
			c2.8,0.4,5.8,0.5,8.1-1.2c4.8-3.6,2-11.3,1.1-16.4c-1-5.5-1.8-11.6,1.7-16.2c4.3-5.7,9.6-6,14.7-1.3
			C363.5,748.5,367,753.3,369.4,758.6z"/>
		<path class="st85" d="M312.3,758.4c-0.7-6.3-1.2-13.4-1.6-21c0.1,0,0.2,0,0.3,0C333.6,735.2,323.1,753.8,312.3,758.4z"/>
		<path class="st16" d="M189.1,1070.9h46.8c3.3,0,5.9,2.7,5.9,5.9v46.8c0,3.3-2.7,5.9-5.9,5.9h-46.8c-3.3,0-5.9-2.7-5.9-5.9v-46.8
			C183.2,1073.6,185.9,1070.9,189.1,1070.9L189.1,1070.9z"/>
		<path class="st17" d="M197.1,1080.9H228c2.2,0,3.9,1.8,3.9,3.9v30.9c0,2.2-1.8,3.9-3.9,3.9h-30.9c-2.2,0-3.9-1.8-3.9-3.9v-30.9
			C193.1,1082.7,194.9,1080.9,197.1,1080.9L197.1,1080.9z"/>
		<path class="st91" d="M372,700.5L372,700.5c0,22.2-1,42.5-2.6,58.1c-2,19.2-4.9,31.4-8.2,31.4h-40.7c-3.3,0-6.2-12.3-8.2-31.6
			c-0.7-6.3-1.2-13.4-1.6-21c-0.6-11.2-1-23.7-1-36.8v0c0-32.7,2.1-61.4,5.3-77c1.6-7.9,3.5-12.4,5.5-12.4h40.7
			C367.1,611.1,372,651.4,372,700.5z"/>
		<path class="st84" d="M215.5,1110.5h-6c-5.2,0-9.5-4.3-9.5-9.5l0,0c0-5.2,4.3-9.5,9.5-9.5h6c5.2,0,9.5,4.3,9.5,9.5l0,0
			C225,1106.2,220.7,1110.5,215.5,1110.5z"/>
		<g>
			<g>
				<path class="st92" d="M322.8,794c-3.8,0.3-7.7,1-11.4,1.7c-3.8,0.8-7.6,1.7-11.3,2.8c-7.5,2.2-14.7,5-21.6,8.6
					c-6.9,3.6-13.3,8-18.9,13.2c-5.6,5.3-10.4,11.3-14,18.1c-3.6,6.8-6,14.2-7.2,21.8c-0.6,3.8-1,7.7-1.1,11.5l-0.1,5.9
					c0,2,0,3.9,0.1,5.9c0.3,15.7,2,31.3,4.7,46.8c2.7,15.5,6.3,30.8,10.2,46.1c1.9,7.6,3.9,15.3,5.7,23c1.8,7.7,3.4,15.5,4.4,23.4
					c0.5,4,0.8,8,0.7,12c0,1-0.1,2-0.1,3c0,1-0.1,2-0.2,3c-0.2,2-0.6,4-1,6c-1.8,7.9-5.1,15.4-9.3,22.2c-4.2,6.8-9.3,13.1-14.8,18.9
					c-2.8,2.9-5.7,5.6-8.7,8.3c-3,2.6-6.1,5.1-9.4,7.5c-0.8,0.6-1.9,0.4-2.4-0.4c-0.6-0.8-0.4-1.9,0.4-2.4l0,0l0,0
					c3.1-2.2,6.2-4.7,9.1-7.2c2.9-2.6,5.8-5.3,8.5-8.1c5.4-5.6,10.3-11.7,14.4-18.3c4-6.6,7.3-13.7,8.9-21.2
					c1.7-7.5,1.5-15.2,0.6-23c-0.9-7.7-2.6-15.4-4.3-23.1c-1.8-7.7-3.8-15.3-5.7-22.9c-3.9-15.3-7.6-30.7-10.4-46.3
					c-2.7-15.6-4.5-31.4-4.8-47.3c0-2-0.1-4-0.1-6l0.1-6c0.1-4,0.5-8,1.1-12c1.3-8,3.8-15.8,7.5-23c3.8-7.2,8.9-13.6,14.7-19.2
					c5.9-5.5,12.6-10.1,19.7-13.8c7.1-3.7,14.6-6.7,22.3-8.9c3.8-1.1,7.7-2.1,11.6-2.9c3.9-0.8,7.8-1.4,11.9-1.8
					c1.1-0.1,2.1,0.7,2.2,1.8C324.8,792.9,323.9,793.9,322.8,794L322.8,794L322.8,794z"/>
			</g>
		</g>
		<path class="st84" d="M363.1,798.3h-45.4c-1.6,0-2.9-2-2.9-4.5v-2.5c0-2.5,1.3-4.5,2.9-4.5l3.3-1.3c12.8-5,26.1-5,38.9,0l3.3,1.3
			c1.6,0,2.9,2,2.9,4.5v2.5C366,796.3,364.7,798.3,363.1,798.3z"/>
	</g>
</g>
<g class="st64">
	<path class="st93" d="M2226.1,1132.5h-73c-13.8,0-27.2-6-35.9-16.7c-36.7-45.4-54.7-126.7-61.6-229.2h267.2
		c-2.8,102.9-20.2,183-61.5,230.1C2252.4,1126.7,2239.6,1132.5,2226.1,1132.5z"/>
	<g class="st94">
		<path class="st95" d="M2089.3,886.5c5.9,116.7,22.5,205.8,58.2,246h16.3c-21.7-40.1-31.8-129.3-35.4-246H2089.3z"/>
	</g>
	<path class="st96" d="M2322.8,886.5c0,3.5-59.8,6.3-133.6,6.3c-73.8,0-133.6-2.8-133.6-6.3c0-3.5,59.8-6.3,133.6-6.3
		C2263,880.2,2322.8,883,2322.8,886.5z"/>
	<g class="st66">
		<path class="st97" d="M2231.2,886.5c-6.7,3.3-76.4,4.4-80.5-1c0.1-1.2,0.3-2.4,0.4-3.6c0.2-1.6,0.3-3.2,0.5-4.8
			c0.2-1.6,0.3-3.2,0.5-4.7c1.7-15,3.3-30,4.8-45c0.3-3,0.7-6.1,1-9.1c0.3-2.5,0.5-5,0.7-7.5c0.2-1.9,0.4-3.7,0.6-5.6
			c0.3-2.1,0.4-4.2,0.6-6.3v0c1.2-12.1,2.3-24.2,3.4-36.3c0.8-9.4,1.5-18.8,2.2-28.2c0.4-5.1,0.7-10.2,1-15.2c0.5-7,0.9-14,1.3-21
			c0.2-3.1,0.3-6.1,0.4-9.2v0c0-0.6,0-1.1,0.1-1.7l0-1.5c0.2-2.8,0.3-5.6,0.4-8.4c0.1-1.2,0.1-2.4,0.1-3.6
			c0.3-8.4,0.6-16.8,0.8-25.3l0.2-12.9c0-4,0.1-7.9,0.1-11.9c0.1-5.1,0.1-10.3,0-15.4v-3.3l0-5.4c0-1,0-2,0-3
			c0-3.4-0.1-6.8-0.1-10.2c-0.3-19.3-1-38.6-2-57.9c-0.5-9.9,12.6-17.1,22.3-19.5c9.7-2.3,20.8,1.2,26.5,9.3
			c5.7,8,5.5,18.6,5.1,28.5c-0.1,2.7-0.2,5.3-0.3,7.9v0c-0.3,9.5-0.6,18.9-0.8,28.4c-0.1,5.2-0.2,10.4-0.3,15.6l0,3.6
			c-0.1,7.7-0.2,15.3-0.3,23v5.1c0,2.4,0,4.8,0,7.3v5.8c0,10.7,0.1,21.4,0.3,32.2c0,1.2,0,2.5,0.1,3.7c0.1,7.3,0.2,14.6,0.4,21.9
			c0.1,6.5,0.3,13.1,0.6,19.7v0c0.1,3.8,0.2,7.5,0.3,11.3c0.1,2.2,0.2,4.4,0.3,6.7l0,1.6c0.1,3.7,0.3,7.4,0.5,11.1
			c0.7,14.4,1.4,28.8,2.3,43.2v0c0.3,4.2,0.5,8.3,0.8,12.5c0.7,9.9,1.4,19.9,2.2,29.8c0.3,4.1,0.7,8.3,1,12.4
			c0.1,1.3,0.2,2.5,0.3,3.8c0.1,1.2,0.2,2.5,0.3,3.7c0.6,6.6,1.2,13.1,1.8,19.7c0.2,1.7,0.3,3.3,0.5,5
			C2231.9,884,2233.4,885.4,2231.2,886.5z"/>
		<path class="st98" d="M2228.8,849.4c-19.7-2.7-55.2-11.5-71.9-22c-1.5,15-3.1,30-4.8,45c13.8-1.5,53.1-11,77-19.2L2228.8,849.4z"
			/>
		<path class="st98" d="M2159.2,805.1c33.5-1.9,53.6-6.1,65.6-10.4v0c-0.9-14.4-1.7-28.8-2.3-43.2c-17.1,13.2-47.5,36-62.7,47.2v0
			L2159.2,805.1z"/>
		<path class="st98" d="M2221.7,732.2c-12.2-0.2-32.9-3.7-55.3-13.2c0.5-7,0.9-14,1.3-21c0.2-3.1,0.3-6.1,0.4-9.2
			c14,7.9,39,22.3,53.3,32.1v0C2221.4,724.7,2221.5,728.5,2221.7,732.2z"/>
		<path class="st98" d="M2168.5,677.2c12.1,2.7,36.6,2.6,51.7-1.5c-0.2-10.7-0.3-21.4-0.3-32.2c-13.5,7.8-38.6,23.3-51.2,30.1
			L2168.5,677.2z"/>
		<path class="st98" d="M2220,625.3c-15.7-5.4-36-9.5-50.2-17.1c0,5.1,0,10.3,0,15.4c16.3,5.4,33.6,8.2,50.2,6.8V625.3z"/>
		<path class="st98" d="M2221.4,554.7c-0.3,9.5-0.6,18.9-0.8,28.4c-14.3,9.1-39,14.3-50.8,13.3c0-3.4-0.1-6.8-0.1-10.2
			C2180.9,579.2,2205.2,568,2221.4,554.7z"/>
		<path class="st99" d="M2220.2,602.3c-3,2.5-6.6,4.3-10.4,5.4c-5.9,1.7-12.2,2-18.3,2.2c-3.8,0.2-7.7,0.3-11.4-0.5
			c-3.7-0.8-7.1-2.4-10.3-4.4l0-5.4c3.5,0.7,7.2,0.9,10.8,1.1c13.3,0.9,27,1.7,39.7-1.9L2220.2,602.3z"/>
		<path class="st99" d="M2219.9,638.7c-2.7,2.1-6.2,3.2-9.6,4.1c-13,3.7-26.5,7.3-40,5.7c-0.3,0-0.6,0-0.9-0.1l0.2-12.9
			c0.5,0,1,0,1.5,0c8.7,0.1,16.8,4.4,25.4,5.5c7.9,1,15.9-0.7,23.4-3.3V638.7z"/>
		<path class="st99" d="M2168.1,687.1c9.8,2.4,19.6,4.7,29.4,7c5.1,1.2,10.2,2.4,15.3,3.9c2.7,0.8,5.5,1.7,8,3.2
			c-0.2-7.3-0.3-14.6-0.4-21.9c-4.5,2.3-9.4,3.9-14.4,4.8c-12.4,2.2-25.3,0-37.7,1.4L2168.1,687.1z"/>
		<path class="st99" d="M2222,738.9c-16.1,2.1-32.7-0.4-48.8-3c-2.6-0.4-5.3-0.9-7.8-1.6c-0.7,9.4-1.4,18.8-2.2,28.2
			c20.6-3.6,39.3-14.3,58.9-22L2222,738.9z"/>
		<path class="st99" d="M2157.9,818.3c5.1,3.7,11.8,5.5,18.1,6.6c10,1.8,20.2,2.9,30,5.7c7.2,2.1,14.5,5.2,21.8,6.4
			c-0.8-9.9-1.5-19.8-2.2-29.8c-9.2,3.6-18.9,5.8-28.8,6c-12.8,0.1-25.6-3.1-38.2-2.5L2157.9,818.3z"/>
		<path class="st99" d="M2229.4,856.9c-11.6,3.1-22.2,9.7-33.8,13c-5.9,1.7-12,2.6-18.1,3.4c-8.6,1.2-17.3,2.5-25.9,3.7l-0.5,4.8
			c2.6,0.3,5.3,0.2,7.9,0.1c12.5-0.5,25-1,37.5-1.5c11.7-0.5,23.5-1,34.8-4L2229.4,856.9z"/>
	</g>
	<path class="st100" d="M2256.6,397.3c-6.9,32.6-13.8,65.2-23.8,96.9c-5.1,16.3-6,37.2-22.9,39.7c-10.6,1.6-36.1,3.5-40.7-6.1
		c-32.4-68.2-66.3-178-106.2-265.4c-10-21.9-20-43.9-30.1-65.8c30.3,27,42,68.6,62.9,103.4c5.9,9.8,12.6,19.2,16.1,30
		c3.1,9.5,3.5,19.5,5.7,29.2c3.5,15.1,11.1,28.8,17.8,42.9c16.9,35.7,27.2,74.1,37.5,112.3c-20.7-128-69.1-251.8-72.1-381.4
		c16.5,61.5,33.1,123,49.6,184.5c6.6,24.4,13.1,48.8,17.5,73.7c2.4,13.5,4.1,27.1,5.8,40.7c2.8,22.1,5.6,44.3,8.4,66.4
		c0.3-119.7,0.6-240.1,22.3-357.8c15.5,121.2-11.8,244-4.3,365.9c-1-19.2,7.3-37.4,11.2-56.2c3.2-15.5,3.4-31.3,4.1-47.1
		c3.1-72.6,16.6-144.8,40-213.6c1.8,25.8-1.8,51.7-5.4,77.4c-7.8,55-15.6,109.9-23.3,164.9c-4.3,30.2-8.6,60.4-16.6,89.8
		c17.1-103.5,34.9-209,84.1-301.6C2281.6,279.1,2269.1,338.2,2256.6,397.3z"/>
	<path class="st101" d="M2245.2,204.3c-5.1,32.7-15.4,64.3-22.9,96.5c-17,72.9-19.5,148.3-20.7,223.2c-16.1-49.9-11-103.9-5.8-156
		c1.7-16.6,3.3-33.2,6.3-49.6c3.7-20.6,9.5-40.8,14.9-61c12.8-47.4,23.9-95.2,33.4-143.4C2250.1,144.1,2249.9,174.5,2245.2,204.3z"
		/>
	<path class="st102" d="M2200.3,495.3c-4.7-41.6,5.1-83.5,18.5-123.2s30.2-78.3,40.2-119c7.6-30.9,11.2-62.7,14.6-94.4
		c11.2,27.8,2.6,59.3-6.1,88c-15.4,51-30.9,102-46.3,153C2211.8,431.1,2202.2,462.7,2200.3,495.3z"/>
	<path class="st103" d="M2253.6,377.4c8.9-30.7,19.7-60.8,32.5-90.1c3.1-7.1,6.6-14.5,13-18.8c9.2-6.2,21.4-4.3,32.3-2.1
		c51.9,10.3,104.5,20.8,151.9,44.5c-56.3-13.5-113.6-22.7-171.2-27.5c-29.6,80.8-65,159.4-106,235c3.4-21.5,8.1-42.9,16.8-62.8
		c5.1-11.6,11.6-22.6,16.6-34.3C2245.5,407.2,2249.4,392.2,2253.6,377.4z"/>
	<path class="st101" d="M2269.8,291.2c6.2-8,15.6-15.2,25.6-13.6c3.6,0.6,6.9,2.2,10.2,3.8c34.8,17.3,69.8,34.7,100.9,57.8
		c-7.8-6.7-18.5-8.6-28.6-10.8c-27.9-6.1-54.8-16.8-79.2-31.5c-41,71.3-77.5,145.2-109,221.1c15.3-62.7,37.4-123.6,59.4-184.3
		C2254.6,318.8,2260.1,303.7,2269.8,291.2z"/>
	<path class="st104" d="M2192.5,107.6c23.5,139.1-2.2,281.9,8.4,422.7c-4.8-19.2-9.7-38.4-14.5-57.5c-3.7-14.7-11.1-29.3-9.7-44.4
		C2187.6,312.1,2196.2,210.7,2192.5,107.6z"/>
	<path class="st101" d="M2163.2,440.6c-14.8-38.9-22.2-80.2-29.5-121.2c-12.7-70.5-86.4-141.1-99.1-211.6c33,135,127,270,160,405
		c0.8,3.2,1.5,6.8,0.1,9.8c-1.5,3-6.3,4.2-8.1,1.4C2187.6,495,2173.5,467.8,2163.2,440.6z"/>
	<path class="st101" d="M2175.5,276.5c-7.1-47.1-14.2-94.3-21.4-141.4c-1.8-11.7-3.8-24-11.5-33c14.9,140,29.8,280.1,44.7,420.1
		c3.7,1.7,8.3,1.3,11.7-1c-0.2-53.9-22.3-106-21.4-159.9c0.3-15.2,2.3-30.3,2.1-45.5C2179.5,302.6,2177.5,289.5,2175.5,276.5z"/>
	<path class="st104" d="M2196.3,525c-39.1-107-37.9-224-57.8-336.2c-12.6,16.6-28.6,30.5-46.8,40.6c13.1-25.4,31.9-47.9,54.6-65.3
		C2167.6,283.8,2188.7,403.8,2196.3,525z"/>
	<path class="st105" d="M2144.9,419.3c-15.1-38.7-35.4-75.3-57.2-110.7c-0.4-0.7-0.9-1.5-1.7-1.8c-1.3-0.5-2.6,0.5-3.5,1.4
		c-18.1,16.6-36.1,33.2-54.2,49.7c15.2-23.6,34.4-44.6,56.5-61.8c52.8,69.5,91.1,150,111.6,234.8c-4.7-1.4-10.1,0-13.5,3.6
		c-6-18.9-12-37.8-18-56.7C2158.6,458.3,2152.4,438.6,2144.9,419.3z"/>
	<path class="st100" d="M2186.5,526.8c2.3,4-3,6.7-6.8,4.1c-25-17.5-35.8-59.2-54.3-83.4c-18.7-24.6-42.2-47.8-47.9-78.1
		c-21.5,21.7-43,43.4-64.5,65.1c16.6-32.3,39.5-61.4,67.1-85.2C2123.4,402.8,2142.5,447.8,2186.5,526.8z"/>
	<path class="st106" d="M2192.3,506c-1.5,5.5-3.2,11.2-2.6,16.8c0.6,5.7,4.4,11.5,10,12.5c16.4-71,10.7-146,29.9-216.3
		c5.1,21,9,42.2,11.9,63.7c0-29.2-2.9-58.4-8.8-87c-18,31.1-23.9,67.7-27.1,103.5C2202.5,434.9,2201.7,471.3,2192.3,506z"/>
	<path class="st105" d="M2303.9,329.2c6,12.3,11.8,24.8,17.6,37.2c7.6,16.4,15.3,33.2,18,51.1c-16.7-32.7-35.4-64.5-56-94.9
		c-15,29.2-30,58.7-38.5,90.4c-5.1,19-7.7,38.5-12.1,57.6c-4.6,20-11.1,39.5-19.5,58.1c-0.6,1.2-1.2,2.6-2.5,3.1
		c-1.8,0.7-3.9-0.8-4.5-2.7s-0.1-3.9,0.3-5.8c5-20.3,10-40.7,15-61c9.4-38.3,19-77,36-112.6c7.2-15.1,15.7-29.6,24.3-43.9
		c0.7-1.1,1.5-2.3,2.8-2.4c1.1-0.1,2,0.6,2.8,1.4C2294.9,311.3,2299.5,320.3,2303.9,329.2z"/>
	<path class="st106" d="M2290.7,386.6c-16-1.9-32-3.9-48-5.8c-2-0.2-4.2-0.5-6,0.6c-1.4,0.9-2.2,2.4-2.9,3.9
		c-3.9,8.3-5.6,17.5-7.2,26.5c-7.1,38.4-14.2,76.8-21.4,115.3c-1.4,1.7-4.4,0.7-5.4-1.2c-1-1.9-0.7-4.3-0.3-6.5
		c4.4-24.8,8.8-49.7,13.1-74.5c4.1-23.2,8.2-46.5,15.3-68.9c0.6-1.9,1.4-4,3.3-4.6c1.6-0.5,3.2,0.2,4.7,0.8
		c9.1,3.6,19.1,2.7,28.9,3.3C2274.5,376,2285.1,378.6,2290.7,386.6z"/>
	<path class="st105" d="M2213.4,523.3c16.7-24.1,37.9-45,62.3-61.3c7.3-4.9,15.4-9.5,24.2-9.4c5.1,0,10,1.6,14.7,3.5
		c21,8.1,40.1,21.2,55.2,37.8c-1.3-15.5-15.3-26.6-28.8-34.2c-14-8-28.9-14.4-44.3-19.1c-2.5-0.8-5-1.5-7.6-1.2
		c-3.8,0.5-7,3.1-9.9,5.7c-25,22.2-48.4,46.1-70.1,71.5c-4.1,4.9-8.4,10.5-7.9,16.8C2206.7,532.7,2210.3,527.7,2213.4,523.3z"/>
	<path class="st104" d="M2173.9,525.2c-4.7-3-10.1-4.7-15.4-6.5c-10.2-3.4-20.5-7.2-29.2-13.4c-6.6-4.7-13.9-11-21.6-8.7
		c-4.6,1.4-7.7,5.7-10.4,9.6c-5.2,7.6-10.5,15.2-15.7,22.8c-2.3-12.4,2.1-25.8,11.3-34.5c9.2-8.6,22.8-12.2,35.1-9.2
		c15.7,3.9,27,17,40.8,25.4c2.5,1.5,5.1,2.9,7.7,4.3c5.9,3.1,11.8,6.3,17.7,9.4c-0.1,2.2-0.2,4.4-0.2,6.5c-2.9,2.4-7.2,2-10.6,0.4
		C2179.8,529.8,2177,527.2,2173.9,525.2z"/>
</g>
<g class="st64">
	<g class="st66">
		
			<linearGradient id="SVGID_18_" gradientUnits="userSpaceOnUse" x1="1323.165" y1="1266.0724" x2="1583.8042" y2="1266.0724" gradientTransform="matrix(-1 0 0 1 1893.8702 0)">
			<stop  offset="0" style="stop-color:#808080"/>
			<stop  offset="0.3797" style="stop-color:#F2F2F2"/>
			<stop  offset="1" style="stop-color:#4D4D4D"/>
		</linearGradient>
		<path class="st107" d="M570.7,1249.6v16.1c0,9.5-58.3,16.9-130.3,16.9c-72,0-130.3-7.3-130.3-16.9v-16.1H570.7z"/>
		<path class="st108" d="M310.1,1249.6c0,9.5,58.3,19.8,130.3,19.8c72,0,130.3-10.3,130.3-19.8s-58.3-17.2-130.3-17.2
			C368.4,1232.4,310.1,1240.1,310.1,1249.6z"/>
		<ellipse class="st109" cx="440.4" cy="1249.6" rx="130.3" ry="17.2"/>
		<g>
			
				<image style="overflow:visible;" width="576" height="732" xlink:href="FD96E6E71B3A03E8.png"  transform="matrix(1 0 0 1 344.412 -35.5995)">
			</image>
		</g>
		
			<linearGradient id="SVGID_19_" gradientUnits="userSpaceOnUse" x1="947.8282" y1="140.4349" x2="998.9625" y2="163.0607" gradientTransform="matrix(-1 0 0 1 1893.8702 0)">
			<stop  offset="0" style="stop-color:#CCCCCC"/>
			<stop  offset="0.3743" style="stop-color:#FFFFFF"/>
			<stop  offset="1" style="stop-color:#808080"/>
		</linearGradient>
		<path class="st110" d="M866.1,163.1h91.2c2.3,0,3.4-2.7,1.8-4.3l-13.6-13.8c-5.4-5.5-12.7-8.6-20.4-8.6h-26.8
			c-7.7,0-15,3.1-20.4,8.6l-13.6,13.8C862.7,160.4,863.9,163.1,866.1,163.1z"/>
		<path class="st111" d="M1005.6,322.3H817.9c-22-18.3-35.4-43-35.6-70.2c-0.4-56.2,57.1-96.6,129.4-97
			c71.5-0.4,129.4,34.9,129.4,97C1041.1,279.3,1027.5,304,1005.6,322.3z"/>
		
			<linearGradient id="SVGID_20_" gradientUnits="userSpaceOnUse" x1="862.4756" y1="240.1906" x2="1101.8429" y2="240.1906" gradientTransform="matrix(-1 0 0 1 1893.8702 0)">
			<stop  offset="0" style="stop-color:#E6E6E6"/>
			<stop  offset="0.5134" style="stop-color:#FFFFFF"/>
			<stop  offset="0.9893" style="stop-color:#E6E6E6"/>
		</linearGradient>
		<path class="st112" d="M984.8,322.3H838.6c-23.1-14.2-46.6-47.4-46.6-74.2c0-55.4,53.6-90,119.7-90c66.1,0,119.7,34.6,119.7,90
			C1031.4,274.9,1008.7,315.1,984.8,322.3z"/>
		
			<linearGradient id="SVGID_21_" gradientUnits="userSpaceOnUse" x1="982.1593" y1="157.759" x2="982.1593" y2="231.3821" gradientTransform="matrix(-1 0 0 1 1893.8702 0)">
			<stop  offset="0" style="stop-color:#F2F2F2"/>
			<stop  offset="1" style="stop-color:#FFFFFF"/>
		</linearGradient>
		<path class="st113" d="M822.7,213.3c-7.7-29.3,47-55.2,89.2-55.2c42.2,0,93.4,25,89.2,55.2c-1.8,13.2-44.8,19.4-88.1,19.3
			C869.7,232.4,826,225.8,822.7,213.3z"/>
		<path class="st83" d="M1005.6,321.3c0-2.9-42-6.4-93.8-6.4s-93.8,3.4-93.8,6.4c0,2.9,42.9,9.7,94.8,9.7
			C964.5,331,1005.6,324.2,1005.6,321.3z"/>
		
			<linearGradient id="SVGID_22_" gradientUnits="userSpaceOnUse" x1="2189.6121" y1="599.2825" x2="2189.6121" y2="613.1266" gradientTransform="matrix(1 0 0 -1 -1277.9009 931.3507)">
			<stop  offset="0" style="stop-color:#E6E6E6"/>
			<stop  offset="1" style="stop-color:#F2F2F2"/>
		</linearGradient>
		<path class="st114" d="M1005.6,322.3c0-2.9-42-4.3-93.8-4.3s-93.8,1.3-93.8,4.3s42.9,9.7,94.8,9.7
			C964.5,332,1005.6,325.2,1005.6,322.3z"/>
		
			<linearGradient id="SVGID_23_" gradientUnits="userSpaceOnUse" x1="1524.7128" y1="864.5586" x2="1555.6328" y2="864.5586" gradientTransform="matrix(-1 0 0 1 1893.8702 0)">
			<stop  offset="0" style="stop-color:#999999"/>
			<stop  offset="0.2567" style="stop-color:#FFFFFF"/>
			<stop  offset="0.631" style="stop-color:#808080"/>
			<stop  offset="0.8128" style="stop-color:#B3B3B3"/>
			<stop  offset="1" style="stop-color:#666666"/>
		</linearGradient>
		<path class="st115" d="M369.2,482.8h-30.9v760.5c0,0,0,3.1,14,3.1c15.5,0,16.9-3.1,16.9-3.1V482.8z"/>
	</g>
</g>
<g class="st64">
	<g class="st66">
		<g>
			<path class="st116" d="M1703,75C1703,75,1703,75,1703,75c-1.2-0.1-2.1-1-2.1-2.1l3.4-81.6l21-87.2l41.8-14.4
				c1.1-0.4,2.3,0.2,2.6,1.3c0.4,1.1-0.2,2.2-1.3,2.6l-39.7,13.6l-20.4,84.6l-3.4,81.2C1705,74.2,1704.1,75,1703,75z"/>
		</g>
		<g>
			<path class="st116" d="M1714.3-39.2c-0.8,0-1.6-0.5-1.9-1.2c-0.5-1,0-2.3,1.1-2.7l39.2-17c1-0.4,2.3,0,2.7,1.1
				c0.5,1,0,2.3-1.1,2.7l-39.2,17C1714.9-39.2,1714.6-39.2,1714.3-39.2z"/>
		</g>
		<g>
			<path class="st116" d="M1753.5-30.6c-0.5,0-1-0.2-1.4-0.5l-19.6-17.1c-0.9-0.7-0.9-2-0.2-2.9c0.8-0.8,2-0.9,2.9-0.2l19.6,17.1
				c0.9,0.7,0.9,2,0.2,2.9C1754.7-30.8,1754.1-30.6,1753.5-30.6z"/>
		</g>
		<g>
			<path class="st116" d="M1705.1,24.9c-0.8,0-1.6-0.5-1.9-1.3l-21.9-52.1l-24.1-7.1c-1.1-0.3-1.7-1.5-1.4-2.6
				c0.3-1.1,1.5-1.7,2.6-1.4l26,7.6l22.7,53.9c0.4,1-0.1,2.3-1.1,2.7C1705.7,24.9,1705.4,24.9,1705.1,24.9z"/>
		</g>
		<g>
			<path class="st116" d="M1718.4-56.1c-0.6,0-1.3-0.3-1.7-0.9l-20.3-29c-0.7-0.9-0.4-2.2,0.5-2.9c0.9-0.7,2.2-0.4,2.9,0.5l20.3,29
				c0.7,0.9,0.4,2.2-0.5,2.9C1719.2-56.3,1718.8-56.1,1718.4-56.1z"/>
		</g>
	</g>
	<g class="st66">
		<path class="st117" d="M1719.1,73.1c-4.3-5.7-6.7-25.1-6.7-33v-6.3h-8.4h-8.4v6.3c0,7.9-2.4,27.3-6.7,33
			c-32.9,43.2-29.9,102.6,6.7,139.8h8.4h8.4C1749,175.7,1752,116.3,1719.1,73.1z"/>
		<path class="st118" d="M1717.3,73.1c-3.8-5.7-5.9-25.1-5.9-33v-6.3h-7.4h-7.4v6.3c0,7.9-2.1,27.3-5.9,33
			c-29,43.2-26.4,102.6,5.9,139.8h7.4h7.4C1743.7,175.7,1746.3,116.3,1717.3,73.1z"/>
		<path class="st117" d="M1715.2,73.1c-3.2-5.7-5-25.1-5-33v-6.3h-6.3h-6.3v6.3c0,7.9-1.8,27.3-5,33c-24.5,43.2-22.2,102.6,5,139.8
			h6.3h6.3C1737.4,175.7,1739.7,116.3,1715.2,73.1z"/>
		<path class="st118" d="M1712.8,73.1c-2.5-5.7-3.9-25.1-3.9-33v-6.3h-4.9h-4.9v6.3c0,7.9-1.4,27.3-3.9,33
			c-19.3,43.2-17.5,102.6,3.9,139.8h4.9h4.9C1730.3,175.7,1732.1,116.3,1712.8,73.1z"/>
		<path class="st117" d="M1709.7,73.1c-1.6-5.7-2.6-25.1-2.6-33v-6.3h-3.2h-3.2v6.3c0,7.9-0.9,27.3-2.6,33
			c-12.6,43.2-11.4,102.6,2.6,139.8h3.2h3.2C1721.2,175.7,1722.3,116.3,1709.7,73.1z"/>
		<path class="st118" d="M1706.3,73.1c-0.7-5.7-1-25.1-1-33v-6.3h-1.3h-1.3v6.3c0,7.9-0.4,27.3-1,33c-5,43.2-4.5,102.6,1,139.8h1.3
			h1.3C1710.8,175.7,1711.3,116.3,1706.3,73.1z"/>
		<linearGradient id="SVGID_24_" gradientUnits="userSpaceOnUse" x1="1703.9595" y1="34.6405" x2="1703.9595" y2="213.37">
			<stop  offset="0" style="stop-color:#FFFFFF"/>
			<stop  offset="0.2389" style="stop-color:#FCFCFC"/>
			<stop  offset="0.4294" style="stop-color:#F2F2F2"/>
			<stop  offset="0.6032" style="stop-color:#E1E1E1"/>
			<stop  offset="0.7671" style="stop-color:#C9C9C9"/>
			<stop  offset="0.9226" style="stop-color:#ABABAB"/>
			<stop  offset="1" style="stop-color:#999999"/>
		</linearGradient>
		<path class="st119" d="M1719.1,73.1c-4.3-5.7-6.7-25.1-6.7-33v-6.3h-8.4h-8.4v6.3c0,7.9-2.4,27.3-6.7,33
			c-32.9,43.2-29.9,102.6,6.7,139.8h8.4h8.4C1749,175.7,1752,116.3,1719.1,73.1z"/>
	</g>
</g>
<g>
	<g>
		<g>
			<path class="st21" d="M548.4,629.7c-0.8-2.2-1.6-4.4-1.5-6.7c0-2.1,0.7-4.1,1.6-6c2-4.4,4.7-8.5,8-12.1
				c5.5-6,12.3-10.6,19.1-15.1c11.8-7.9,23.7-15.7,35.5-23.6c-6.1,9.6-6.5,21.8-5.2,33.1c1.3,11.3,4.2,22.5,3.8,33.9
				c-0.1,4.8-0.9,9.6-3,13.9c-1,2-2.3,4-4.3,5c-3.5,1.8-7.8,0.2-10.7-2.3c-3-2.5-5.1-5.9-7.9-8.5c-2.8-2.6-6.9-4.6-10.6-3.3
				c-2.1,0.7-3.7,2.3-5.6,3.4c-4.1,2.3-9.5,1.8-13.1-1.2C551.3,637.7,549.8,633.6,548.4,629.7z"/>
			<path class="st22" d="M594.7,586.8c-4.9,5.5-7.5,12.6-9.7,19.6c-1.4-1.3-3.3-2.1-5.3-2c1.5,1.9,2.7,4.1,3.6,6.3
				c-4.6-0.9-9.2-1.4-13.9-1.5c1.3,2.5,3.8,4.1,5.8,6.1c2,2,3.7,4.7,3,7.5c-5.1,0.7-10.2,1.3-15.3,2c4.7,1.3,9.5,2.5,14.2,3.8
				c-5.5,1.2-11.8,3.2-13.7,8.5c2.3-2.6,5.4-4.4,8.7-5c0.9-0.2,1.8-0.3,2.6,0.1c1.5,0.6,2.2,2.5,2,4.1c-0.2,1.6-1,3.5-1.4,5.1
				c-2.9,12.9-11.1,39.8-14.5,59c-3.1,17.4-5,36.1-4,53.7c1,0.2,2,0.5,3,0.7c-1.7-15.6-1-31.4,2-46.8c4.1-20.7,8.6-39.6,15-61.6
				c1-3.5,1.1-7.8,4.3-9.5c1.4-0.7,3.1-0.8,4.7-0.6c2.2,0.3,4.2,1.1,6,2.4c-2-2.9-5-5-8.4-5.8c1.9-1.5,10.6-2.7,13-2.8
				c-0.5-2.1-13.2-5.1-12.5-6.9c0.9-2.3,12.4-8.8,14.7-8.1c-1-2.7-8.6,0.2-10.6-2c-1.7-1.9,1.5-10.9,2.4-13.3
				c2.8-7.5,6.6-14.7,11.2-21.3C600.2,581.7,597.1,584,594.7,586.8z"/>
		</g>
		<path class="st23" d="M548,711.4c-0.3-6.5-0.6-13-0.8-19.5c-0.4-11.1-0.1-22.4-1.7-33.4c-1-7.1-3.4-14-5.8-20.8
			c0.5-0.6,1.5-0.6,2.2-0.1c0.7,0.5,1,1.3,1.3,2c4.5,10.8,4.9,22.7,5.3,34.3c0.9,26.5,2,53,3.2,79.5c-0.8-0.1-1.5-0.3-2.3-0.4
			C550.7,749,548.3,717.7,548,711.4z"/>
		<path class="st24" d="M531,622.8c4.1-7.9,5.8-17.1,4.7-25.9c1.7,2.4,1.9,5.5,2.1,8.5c0.2,3.7,0.4,7.4,0.5,11.1c1-1.7,2-3.5,3-5.2
			c0.1,5.5-0.1,11-0.6,16.4c2.3-1.1,4.2-3,5.4-5.2c-0.5,3.6-0.9,7.2-1.4,10.8c-0.2,1.5-0.4,3-1.2,4.3c-0.8,1.3-2.3,2.2-3.8,1.9
			C539.5,633.1,536.2,626.8,531,622.8z"/>
		<g>
			<path class="st23" d="M440.4,525.1c8.8,23.1,28,40.6,40.2,62.1c5.1,9,9,18.7,14.3,27.6c5.4,9,12.2,17.1,19.1,24.9
				c4,4.5,8.4,9.2,14.3,10.2c5.9,1.1,13-3.7,11.8-9.6c0.3,0.1,0.6,0.3,0.9,0.5c2.9,1.5,5.4,3.9,8.3,5.5c3.3,1.7,7.9,1.9,10-1.1
				c0.8-1,1.1-2.4,1.3-3.7c1.6-9.3-1.3-18.9-6.1-27c-4.8-8.1-11.4-14.9-18-21.7c-6.6-6.8-13.2-13.6-19.8-20.4
				c-5.6-5.8-11.3-11.6-17.9-16.3c-18.1-12.7-41.8-16.2-58.3-30.8C440.5,525.2,440.4,525.1,440.4,525.1z"/>
			<path class="st25" d="M526.6,601.3c-1.4,3.3-1.9,7-1.4,10.6c-5.9-9.5-13.5-17.9-21-26.2c-4.6-5.1-9.2-10.1-13.8-15.2
				c-6.2-6.8-12.4-13.7-20.3-18.5c1.9,0.5,3.8,1,5.7,1.6c0.3-1.1,0.6-2.3,0.8-3.4c2.5,4.6,5,9.1,7.5,13.7c1.4-2.8,1.9-6,1.6-9.1
				c1,6.8,3.9,13.2,8.4,18.4c0.1-2,0.3-4,0.4-5.9c1.6,5.5,4.7,10.6,9,14.5c1.3-3.4,3.1-6.7,5.3-9.6c0.2,2.6,0.4,5.1,0.5,7.7
				c0.9-0.2,1.7-0.5,2.6-0.7c0,1.7,0,3.4,0,5.1c0.6-1.3,1.2-2.6,1.7-3.9c1.4,5.3,2.8,10.7,4.2,16c2.3-1.7,4-4.2,4.9-6.9
				c-1,5.1-0.7,10.4,0.7,15.4C525.3,604.8,526.8,603.1,526.6,601.3z"/>
			
				<linearGradient id="SVGID_25_" gradientUnits="userSpaceOnUse" x1="622.0485" y1="595.8951" x2="606.807" y2="581.218" gradientTransform="matrix(-1 0 0 1 1100.8972 0)">
				<stop  offset="0" style="stop-color:#55913B"/>
				<stop  offset="0.1114" style="stop-color:#528B39"/>
				<stop  offset="0.6593" style="stop-color:#44742F"/>
				<stop  offset="1" style="stop-color:#3F6B2C"/>
			</linearGradient>
			<path class="st120" d="M440.4,525.1c8.8,23.1,28,40.6,40.2,62.1c5.1,9,9,18.7,14.3,27.6c5.4,9,12.2,17.1,19.1,24.9
				c4,4.5,8.4,9.2,14.3,10.2c5.9,1.1,13-3.7,11.8-9.6c0.3,0.1,0.6,0.3,0.9,0.5c-0.3-7.9-7.2-14.2-12.1-20.7
				c-5.1-6.9-8.1-15.1-13.1-22.1c-6.6-9.1-16.2-15.6-23.5-24.2c-4.6-5.4-8.2-11.5-13.3-16.4c-5.8-5.6-13.2-9.2-19.8-13.9
				c-7.2-5-13.5-11.2-18.7-18.2C440.5,525.2,440.4,525.1,440.4,525.1z"/>
			<path class="st27" d="M519.7,628c3-0.1,6,0.4,8.8,1.6c-3.9-8.1-10.9-14.6-19.3-17.9c2.5,0,4.9,0.1,7.4,0.1c-0.6-1.2-2-2.1-3.4-2
				c0.8-0.7,1.6-1.3,2.4-2c-7.6-6.2-16.1-11.3-25.2-15.1c5,0.7,10,1.3,15,2c-8.3-6.1-15.9-13.2-22.4-21.2c4.4,1.4,8.5,3.7,12,6.7
				c-3.9-3.7-7.1-8.2-9.4-13.1c3.5,4.2,7.4,8.1,11.6,11.5c3,2.5,6.2,4.7,8.8,7.6c3.4,3.8,7,7.4,9.7,11.8
				c8.8,13.9,22.2,25.7,25.7,41.7c-7.8-2-15.5-4.2-23.2-6.5c4.7-0.5,9.5,0.1,14,1.8C528.7,631.8,524.3,629.4,519.7,628z"/>
		</g>
		<g>
			<path class="st28" d="M554.6,604.2c2.4,1.9,6-0.4,7.5-3c1.6-2.6,2.4-5.9,4.8-7.7c2-1.5,4.3-1.5,6.5-0.7c3.6,1.4,6.8,5.1,8.2,8.9
				c2.1,6.2,2.2,13.5,6.7,18.1c4.2,4.2,11.3,4.7,16.7,2.1c5.3-2.6,9.1-7.8,11.2-13.4c6.2-16.1-0.1-34.1-6.5-50.2
				c-9.9-25.3-19.7-50.7-29.6-76c-3.4-8.6-8-18.4-17-20.5c-0.1,0-0.2,0-0.4-0.1c6.1,23.4-0.7,47.9-6.5,71.4
				C550.3,556.5,545.3,581.9,554.6,604.2z"/>
			<path class="st29" d="M554.6,604.2c2.4,1.9,6-0.4,7.5-3c1.6-2.6,2.4-5.9,4.8-7.7c2-1.5,4.3-1.5,6.5-0.7c0-2-0.5-4.2-0.9-6.2
				c0-0.1,0-0.2-0.1-0.4c-4.7-25.2,6.7-50.7,6.5-76.3c-0.1-7.7-1.3-15.3-3.4-22.7c-2.7-9.1-6.9-17.7-12.4-25.4c-0.1,0-0.2,0-0.4-0.1
				c6.1,23.4-0.7,47.9-6.5,71.4C550.3,556.5,545.3,581.9,554.6,604.2z"/>
			<path class="st30" d="M556.7,590.5c4.1-4,10.3-5.6,15.8-3.9c0-0.1,0-0.2-0.1-0.4c-4.7-25.2,6.7-50.7,6.5-76.3
				c-0.1-7.7-1.3-15.3-3.4-22.7c-0.1,0.9-0.3,1.8-1.2,2c-1.9,0.5-2.9-3.6-4.7-2.7c3.5,3.7,6.2,8,7.9,12.8c-1.3-0.6-2.5-1.2-3.8-1.8
				c2.5,4,3.8,8.7,3.7,13.4c-2.8-2.6-5.6-5.1-8.4-7.8c3.7,4.8,6.3,10.4,7.7,16.3c-1.4-1.6-3.2-2.8-5.2-3.5
				c2.2,6.5,2.8,13.6,1.8,20.5c-2.8-1.9-5.7-3.8-8.5-5.8c2.3,6.6,4.3,13.2,6.2,19.9c-0.5-1-1.9,0.6-1.8,1.8c0.1,2.1,0.2,4.2,0.3,6.2
				c-0.9,0-1.9,0-2.8,0c-0.6,4.5-5.2,7.2-9.3,9.3c4.2-1.9,9.8,1.2,10.3,5.8c-1.5-1.1-3.9-0.5-4.8,1.2c1.7,0.1,3.3,1.1,4.3,2.5
				C560.9,577.7,555.7,584.2,556.7,590.5z"/>
			<path class="st31" d="M574.8,480.8c0.8,6.9,1.6,13.7,2.4,20.6c0.6,4.7,1.1,9.5,0.9,14.3c-0.3,4.7-1.3,9.3-2.2,13.8
				c-3.2,15.9-4.9,32.1-5.2,48.3c-0.1,3.3,0.4,7.3,3.4,8.6c1.4,0.6,2.9,0.5,4.4,0.7c4.3,0.6,7.6,4.1,10.4,7.4c2.5,2.9,5,5.7,7.5,8.6
				c1.3,1.5,2.7,3,4.5,3.7c1.8,0.7,4.2,0.4,5.3-1.2c-2.1,0.6-4.4-0.5-6-2.1c-1.5-1.6-2.5-3.7-3.5-5.6c-3.1-5.7-7.7-11-13.9-12.6
				c7.4-0.4,14.9,0.7,22,3.2c-4.6-4-10.3-6.6-16.4-7.4c-1-0.1-2.1-0.3-2.8-1c-0.3-0.3-0.5-0.6-0.6-1c-1.4-2.9-1.2-6.5,0.6-9.1
				c1.7-2.7,4.9-4.3,8.1-4.2c-3-0.7-5.9-1.7-8.7-3.2c1-1,2-2.1,3.1-3.1c-1.4-0.2-2.8-0.4-4.1-0.6c-0.1-1.9,0-3.9,0.2-5.8
				c-1,0.3-2.1-0.5-2.4-1.5c-0.3-1-0.1-2.1,0.2-3.1c1.7-6.2,4.5-12.2,8.2-17.5c-1.8,0.1-3.5,0.2-5.3,0.3c-0.3-5.7-0.7-11.4-1-17.1
				C583.1,502.6,582.1,490,574.8,480.8z"/>
		</g>
		<g>
			<path class="st32" d="M634.2,636.7c-12.3,6.3-21.9,16.7-31.1,26.9c-4.3,4.8-8.7,9.8-10.5,16c-1.3-1.7-4-0.9-5.9,0.1
				c-6.2,3.5-11.8,8.1-16.4,13.5c1.7-10.8,8.5-20.1,16.3-27.7c10.5-10.2,22.9-18.2,35.3-26.1c7-4.5,14.1-9,22-11.3
				c5.6-1.6,11.7-1.6,16.6-4.7C653.3,630.3,643,632.1,634.2,636.7z"/>
			<path class="st28" d="M660.5,623.4c-10.6,7.4-23.4,11.4-34,18.8c-3.6,2.5-6.8,5.4-10,8.4c-6.6,6.4-12.8,13.3-18.3,20.6
				c-6,8-11.2,16.5-16.4,25c-4.1,6.7-8.3,13.5-10.4,21.2c-1.2,4.4-1.7,8.9-2.1,13.4c-0.8,7.9-1.7,15.9-2.5,23.8
				c-0.9-0.1-1.9-0.3-2.8-0.4c1.5-10.7,3-21.4,4.7-32.1c0.8-4.9,1.6-9.7,3.2-14.4c2.4-6.9,6.6-13,10.8-19
				c14.1-20.3,29.1-41.4,51.2-52.5c1.8-0.9,3.6-1.7,5.5-2.6c1.7-0.8,3.4-1.5,5.1-2.3C649.8,628.9,655.1,625.9,660.5,623.4z"/>
			<path class="st121" d="M601.3,660.4c-0.5,0.1-1,0.1-1.5,0.2c-0.7,0.1-1.3,0.3-2,0.6c-5.5,2.4-10.4,6.3-13.8,11.3
				c2.1-1.3,4.2-2.6,6.3-3.9c1.7-1.1,3.7-2.2,5.7-1.7c0.1,0.8-0.4,1.6-1.1,2.1c-0.7,0.5-1.5,0.7-2.3,0.9c-2.4,0.7-4.7,1.9-6.7,3.4
				c-0.9,0.7-1.9,1.8-1.7,2.9c2.4-1.8,5.3-2.8,8.2-3c0.3,0.5-0.1,1.1-0.5,1.4c-0.4,0.3-1,0.5-1.4,0.8c-0.9,0.7-0.8,2.3,0.1,2.9
				c2.6-3.2,5.3-6.5,7.9-9.7c4.7-5.8,9.5-11.6,15.4-16.1c2-1.5,4.4-3.4,4.1-5.9c-0.6,1.2-1.2,2.6-2.5,3.1c-1.2,0.6-3.1-0.3-2.9-1.7
				c-0.9,0.4-1.1,1.6-1.3,2.5c-0.2,1-0.8,2.1-1.8,2.1c-0.4-0.5-1-0.8-1.6-0.8c-0.3,1.5-0.8,2.9-1.4,4.3c-0.3-0.3-0.7-0.4-1.1-0.4
				c-0.7,1.5-1.7,2.8-2.9,3.9C602.3,659.9,601.8,660.2,601.3,660.4z"/>
		</g>
		<path class="st28" d="M560.9,711.9c-1.9,9.3-2.7,18.7-2.3,28.2c0.2,4.4,0.6,8.9-0.5,13.1c0.9-0.2,1.8-0.4,2.7-0.6
			c-0.7-54.3,12.7-107.8,14.8-162c-0.9,0.2-1.8-0.8-2.7-0.6c0.1,5.3-0.5,10.6-1,15.9c-2,18.8-4,37.6-6,56.4
			c-0.4,4.1-0.9,8.2-1.5,12.3c-0.5,3.1-1.2,6.3-1.9,9.4C560.5,693.3,562.8,702.7,560.9,711.9z"/>
	</g>
	<polygon class="st33" points="509.3,712.3 514.2,736.6 515.2,741.8 526.8,798.9 591.1,798.9 602.6,741.8 603.7,736.6 608.6,712.3 	
		"/>
	<polygon class="st122" points="560.5,712.3 559.3,798.9 581.9,798.9 591.4,741.8 592.3,736.6 596.4,712.3 	"/>
	<rect x="509.3" y="712.4" class="st33" width="99.3" height="24.2"/>
	<rect x="563.3" y="712.4" class="st123" width="33.1" height="24.2"/>
	<polygon class="st36" points="514.2,736.6 515.2,741.8 602.6,741.8 603.7,736.6 	"/>
</g>
</svg>
