<svg xmlns="http://www.w3.org/2000/svg" xmlns:xlink="http://www.w3.org/1999/xlink" viewBox="0 0 1196.34 516.45"><defs><style>.cls-1{isolation:isolate;}.cls-2{opacity:0.5;}.cls-3{fill:#e6e6e6;}.cls-4{fill:#dedbe6;}.cls-19,.cls-25,.cls-39,.cls-5{fill:#fff;}.cls-5{mix-blend-mode:soft-light;}.cls-6{fill:#eab054;}.cls-7{fill:#f7cc7f;}.cls-8{fill:#f47458;}.cls-9{fill:#bc4d26;}.cls-10{fill:#b75742;}.cls-11{fill:#50bfa5;}.cls-12{fill:#96d9c9;}.cls-13{fill:#184655;}.cls-14{fill:#ac8856;}.cls-15{fill:#e9c57f;}.cls-16{fill:#c69c5b;}.cls-17,.cls-22,.cls-23{fill:#8c6239;}.cls-17{opacity:0.1;}.cls-18{fill:#cda665;}.cls-19{opacity:0.05;}.cls-20,.cls-24,.cls-26,.cls-27{opacity:0.27;mix-blend-mode:screen;}.cls-20{fill:url(#linear-gradient);}.cls-21{fill:#1a1a1a;}.cls-22{opacity:0.07;}.cls-23{opacity:0.15;}.cls-24{fill:url(#linear-gradient-2);}.cls-25{opacity:0.02;}.cls-26{fill:url(#linear-gradient-3);}.cls-27{fill:url(#linear-gradient-4);}.cls-28{fill:#fcfff4;}.cls-29{fill:#e6f2f2;}.cls-30{fill:#f6f8fa;}.cls-31{fill:#ffae73;}.cls-32{fill:#e2550c;}.cls-33{fill:#6c3511;}.cls-34{fill:#041d3c;}.cls-35{fill:#723d1b;}.cls-36{fill:#092a57;}.cls-37{fill:#f48f4e;}.cls-38{fill:#fda268;}.cls-40{fill:#8f5c37;}.cls-41{fill:#ffddb6;}.cls-42{fill:#ffc78f;}.cls-43{fill:#6c4716;}.cls-44{fill:#f99352;}.cls-45,.cls-90{fill:#42210b;}.cls-45{opacity:0.9;}.cls-46{fill:#fdf1ed;}.cls-47{fill:#f5d2c9;}.cls-48{fill:#2e2557;}.cls-49{fill:#59536c;}.cls-50{fill:#11326c;}.cls-51{fill:#5b4a8f;}.cls-52{fill:#4f496c;}.cls-53{fill:url(#linear-gradient-5);}.cls-54{fill:#333;}.cls-55{fill:url(#linear-gradient-6);}.cls-56{fill:#3c8f7c;}.cls-57{fill:#215e4b;}.cls-58{fill:#84595c;}.cls-59{fill:#5b3e41;}.cls-60{fill:#8a7f70;}.cls-61{fill:#796d64;}.cls-62{fill:#b8b4b4;}.cls-63{fill:#8a7f75;stroke:#8a7f75;stroke-miterlimit:10;}.cls-64{fill:#a09993;}.cls-65{fill:#2d3554;}.cls-66{fill:#327f6b;}.cls-67{fill:#534741;}.cls-68{fill:#c7b290;}.cls-69{fill:#0e2e35;}.cls-70{fill:#fae0b2;}.cls-71{fill:#dd513a;}.cls-72{fill:#256653;}.cls-73{fill:#f7a491;}.cls-74{fill:#0e6a41;}.cls-75{fill:#40854c;}.cls-76{fill:#457355;}.cls-77{fill:#306746;}.cls-78{fill:#bfa27f;}.cls-79{fill:#bf8c4e;}.cls-80{fill:#c69c6d;}.cls-81{fill:#d9c7a7;}.cls-82{fill:#13375b;}.cls-83{fill:#355389;}.cls-84{fill:#5dbfb2;}.cls-85{fill:#a5d9d2;}.cls-86{fill:#eafcfc;}.cls-87{opacity:0.3;}.cls-88{fill:#f8a492;}.cls-89{fill:#4c1f00;opacity:0.7;}.cls-90{opacity:0.69;}.cls-91{fill:#654630;}.cls-92{fill:#3c344f;}.cls-93{fill:#f5c397;}.cls-94{fill:#c4dde5;}.cls-95{fill:#dff5fb;}</style><linearGradient id="linear-gradient" x1="891.43" y1="746.61" x2="891.43" y2="805.26" gradientTransform="translate(-507.3 -490.47) scale(1.05)" gradientUnits="userSpaceOnUse"><stop offset="0" stop-color="#fff"/><stop offset="0.23" stop-color="#bebebe"/><stop offset="0.61" stop-color="#595959"/><stop offset="0.88" stop-color="#191919"/><stop offset="1"/></linearGradient><linearGradient id="linear-gradient-2" x1="885.68" y1="533.78" x2="885.68" y2="601.18" xlink:href="#linear-gradient"/><linearGradient id="linear-gradient-3" x1="674.56" y1="747.03" x2="674.56" y2="805.68" xlink:href="#linear-gradient"/><linearGradient id="linear-gradient-4" x1="675" y1="533.59" x2="675" y2="600.33" xlink:href="#linear-gradient"/><linearGradient id="linear-gradient-5" x1="764.1" y1="780.59" x2="771.1" y2="780.59" gradientTransform="translate(-507.3 -490.47) scale(1.05)" gradientUnits="userSpaceOnUse"><stop offset="0" stop-color="#575757" stop-opacity="0.2"/><stop offset="0.04" stop-color="#2b2b2b" stop-opacity="0.6"/><stop offset="0.12" stop-color="#090909" stop-opacity="0.91"/><stop offset="0.34"/></linearGradient><linearGradient id="linear-gradient-6" x1="546.82" y1="776.55" x2="553.82" y2="776.55" xlink:href="#linear-gradient-5"/></defs><g class="cls-1"><g id="Pods"><g class="cls-2"><rect class="cls-3" x="838.12" y="5.89" width="191.22" height="504" transform="translate(1867.46 515.78) rotate(180)"/><rect class="cls-4" x="844.95" y="13.23" width="177.63" height="488.76"/><polygon class="cls-5" points="946.87 501.99 925.78 501.99 855.62 13.22 876.72 13.22 946.87 501.99"/><polygon class="cls-5" points="918.63 13.22 962.11 13.22 1022.58 434.48 1022.58 501.99 988.79 501.99 918.63 13.22"/></g><g class="cls-2"><rect class="cls-3" x="568.27" y="5.89" width="191.22" height="504" transform="translate(1327.76 515.78) rotate(180)"/><rect class="cls-4" x="575.1" y="13.23" width="177.63" height="488.76"/><polygon class="cls-5" points="677.02 501.99 655.93 501.99 585.77 13.22 606.87 13.22 677.02 501.99"/><polygon class="cls-5" points="648.79 13.22 692.27 13.22 752.73 434.48 752.73 501.99 718.94 501.99 648.79 13.22"/></g><g class="cls-2"><rect class="cls-3" x="299.72" y="2.89" width="195.85" height="507" transform="translate(795.29 512.78) rotate(180)"/><rect class="cls-4" x="306.71" y="10.27" width="181.93" height="491.67"/><polygon class="cls-5" points="411.11 501.94 389.5 501.94 317.65 10.27 339.25 10.27 411.11 501.94"/><polygon class="cls-5" points="382.19 10.27 426.72 10.27 488.65 434.03 488.65 501.94 454.04 501.94 382.19 10.27"/></g><g class="cls-2"><rect class="cls-3" x="23.34" y="2.89" width="195.85" height="507" transform="translate(242.53 512.78) rotate(180)"/><rect class="cls-4" x="30.33" y="10.27" width="181.93" height="491.67"/><polygon class="cls-5" points="134.72 501.94 113.12 501.94 41.26 10.27 62.87 10.27 134.72 501.94"/><polygon class="cls-5" points="105.8 10.27 150.34 10.27 212.27 434.03 212.27 501.94 177.66 501.94 105.8 10.27"/></g><path class="cls-6" d="M755.63,430.09s.19,4.55,6.32,6.42c5.66,1.72,8.31-3.92,5.81-5.65s-5.58-2.81-6.84-4.23C758.61,424,755,427.65,755.63,430.09Z"/><path class="cls-7" d="M765.08,426.79a4.17,4.17,0,0,0-1.13,1.53,4.68,4.68,0,0,0,.23,4.26c1.85,3.31,9,5.33,9.62,1.34s-3.85-2.83-5.1-4.65c-.56-.82-.64-1.84-1.41-2.48A1.92,1.92,0,0,0,765.08,426.79Z"/><path class="cls-7" d="M757.05,426.83a5.86,5.86,0,0,1-3.81-1.58c-.77-.72-2.73-2-4.47-1.6-3.16.75-3.89,4.26-1.66,7.11,2,2.5,9.58,6.07,12.63.82C761.88,427.91,759.47,426.94,757.05,426.83Z"/><path class="cls-8" d="M747.41,428.3a5,5,0,0,0,1.88-.93,8,8,0,0,0,1.76-1.46c.14-.15-.07-.33-.23-.24-.65.35-1.27.79-1.88,1.2a8.21,8.21,0,0,0-1.69,1.14.18.18,0,0,0,.16.29Z"/><path class="cls-8" d="M748.85,429.84c1.08.16,3.07-1.66,3.82-2.48.18-.19-.12-.53-.32-.35a14.71,14.71,0,0,1-1.84,1.41c-.55.35-1.4.63-1.76,1.17a.15.15,0,0,0,.1.25Z"/><path class="cls-8" d="M751.71,430.94a4,4,0,0,0,.93-1c.32-.39.68-.73,1-1.12a.39.39,0,0,0-.53-.57,4.39,4.39,0,0,0-1.77,2.44.24.24,0,0,0,.37.23Z"/><path class="cls-8" d="M753.87,431.55a3,3,0,0,0,.84-1.76c0-.45-1,0-1.17,1.61a.19.19,0,0,0,.33.15Z"/><path class="cls-8" d="M755.45,430.22c-.45,1.33.34,1.36.46,1a1.81,1.81,0,0,0,0-1,.23.23,0,0,0-.42,0Z"/><path class="cls-8" d="M767.27,428.74a3.77,3.77,0,0,0-1.15.82c-.31.31-.7.64-.69,1.1a.22.22,0,0,0,.25.2c.41-.09.61-.43.88-.73s.65-.68,1-1.06c.12-.16,0-.42-.24-.33Z"/><path class="cls-8" d="M768,429.85a6.76,6.76,0,0,0-1.76,2.19.25.25,0,0,0,.39.24,4.13,4.13,0,0,0,.81-1c.28-.38.58-.74.84-1.13.13-.19-.08-.47-.28-.31Z"/><path class="cls-8" d="M769.22,430.79a11.42,11.42,0,0,0-1.37,2.38c0,.19.22.37.37.23a7.07,7.07,0,0,0,1.34-2.4c.09-.2-.2-.4-.34-.21Z"/><path class="cls-8" d="M770.37,431.69a3.29,3.29,0,0,0-.49.85c-.33.71-.54,1.07-.27,1.25a.35.35,0,0,0,.54-.12,7.93,7.93,0,0,0,.63-1.79.24.24,0,0,0-.41-.19Z"/><path class="cls-8" d="M771.74,432.55c-.49.34-.83,1.05-.51,1.28a.32.32,0,0,0,.4,0c.31-.19.1-.61.39-1a.21.21,0,0,0-.28-.31Z"/><path class="cls-9" d="M763.44,443.32H752.66a11.25,11.25,0,0,1-11.25-11.25h33.28A11.25,11.25,0,0,1,763.44,443.32Z"/><rect class="cls-10" x="776.23" y="434.62" width="1.85" height="5.93" rx="0.92"/><path class="cls-11" d="M786.85,372.28A7.53,7.53,0,0,0,781.7,369a7.67,7.67,0,0,0-5.21,1.75l-1.15-1.29a9.35,9.35,0,0,1,6.53-2.18c2.37.23,4.51,1.57,6.36,4Z"/><rect class="cls-10" x="765.58" y="370.78" width="13.02" height="6.51" rx="1.15" transform="translate(-38.34 655.5) rotate(-45)"/><path class="cls-8" d="M756.09,374.88l16.84,16.84a11.91,11.91,0,0,0-16.84-16.84Z"/><path class="cls-10" d="M801.68,407l-16.89-34.42,5.27-2.59L807,404.38Zm-14.47-33.59,15.3,31.17,2-1-15.3-31.17Z"/><path class="cls-10" d="M795.73,442.84,790.18,441l12.38-36.28,5.56,1.89Zm-3.26-3,2.14.73,11.22-32.86-2.14-.73Z"/><rect class="cls-12" x="762.96" y="370.5" width="1.82" height="26.89" rx="0.32" transform="translate(-47.76 652.59) rotate(-45)"/><circle class="cls-8" cx="804.62" cy="406.28" r="4.28" transform="translate(224.34 1096.03) rotate(-76.72)"/><path class="cls-11" d="M770.12,437.45h28.1a5.87,5.87,0,0,1,5.87,5.87v0a0,0,0,0,1,0,0H764.25a0,0,0,0,1,0,0v0A5.87,5.87,0,0,1,770.12,437.45Z"/><rect class="cls-13" x="730.86" y="443.04" width="91.48" height="4.72"/><rect class="cls-13" x="732.52" y="470.44" width="59.81" height="4.13"/><rect class="cls-13" x="809.5" y="445.4" width="3.86" height="64.44"/><rect class="cls-13" x="754.93" y="445.4" width="3.86" height="64.44"/><polygon class="cls-13" points="782.06 509.83 802.84 445.95 799.44 444.84 778.29 509.83 782.06 509.83"/><polygon class="cls-13" points="723.59 509.83 741.37 445.81 737.91 444.85 719.87 509.83 723.59 509.83"/><g id="Pods-2" data-name="Pods"><g id="Bottom_Inside" data-name="Bottom Inside"><rect class="cls-14" x="344.78" y="275.12" width="174.26" height="180.85"/><polygon class="cls-15" points="518.76 454.31 343.44 454.31 299.3 498.89 518.76 498.89 518.76 454.31"/><polygon class="cls-16" points="344.78 454.73 299.14 499.31 299.14 279.9 344.78 279.9 344.78 454.73"/><rect class="cls-17" x="421.63" y="365.41" width="163.06" height="15.59" rx="0.77" transform="translate(129.95 876.36) rotate(-90)"/><rect class="cls-17" x="408.67" y="365.41" width="163.06" height="15.59" rx="0.77" transform="translate(116.99 863.4) rotate(-90)"/><rect class="cls-17" x="389.03" y="365.41" width="163.06" height="15.59" rx="0.77" transform="translate(97.36 843.77) rotate(-90)"/><rect class="cls-17" x="275.14" y="364.22" width="163.06" height="17.97" rx="0.77" transform="translate(-16.54 729.88) rotate(-90)"/><rect class="cls-17" x="281.82" y="361.47" width="163.06" height="23.48" rx="0.77" transform="translate(-9.85 736.56) rotate(-90)"/><rect class="cls-17" x="289.49" y="361.6" width="163.06" height="23.21" rx="0.77" transform="translate(-2.19 744.22) rotate(-90)"/><rect class="cls-17" x="297.07" y="365.41" width="163.06" height="15.59" rx="0.77" transform="translate(5.39 751.8) rotate(-90)"/><rect class="cls-17" x="302.96" y="365.41" width="163.06" height="15.59" rx="0.77" transform="translate(11.29 757.7) rotate(-90)"/><rect class="cls-17" x="328.03" y="353.1" width="163.06" height="40.2" rx="0.77" transform="translate(36.35 782.76) rotate(-90)"/><rect class="cls-17" x="343.05" y="351.2" width="163.06" height="40.2" rx="0.77" transform="translate(53.28 795.88) rotate(-90)"/><rect class="cls-17" x="353.7" y="351.2" width="163.06" height="40.2" rx="0.77" transform="translate(63.92 806.53) rotate(-90)"/><rect class="cls-18" x="340.55" y="279.9" width="178.21" height="11.77"/><polygon class="cls-19" points="314.89 279.9 315.22 483.56 299.3 498.96 299.3 279.9 314.89 279.9"/><polygon class="cls-19" points="327.22 279.9 327.4 471.71 309.42 489.17 308.82 279.9 327.22 279.9"/><path class="cls-20" d="M518.76,361.56l-24.07.14-156.2.88,6.87-70.44h173.4Z"/><polygon class="cls-19" points="340.55 279.9 340.66 458.76 322.03 476.92 322.14 279.9 340.55 279.9"/></g><rect class="cls-21" x="288.99" y="272.23" width="6.2" height="457.23" transform="translate(792.93 208.75) rotate(90)"/><g id="Top_right" data-name="Top right"><rect class="cls-14" x="338.74" y="48.94" width="174.26" height="207.85"/><rect class="cls-22" x="403.42" y="153.87" width="187.4" height="15.59" rx="0.77" transform="translate(335.45 658.79) rotate(-90)"/><rect class="cls-22" x="390.46" y="153.87" width="187.4" height="15.59" rx="0.77" transform="translate(322.49 645.83) rotate(-90)"/><rect class="cls-17" x="370.82" y="153.87" width="187.4" height="15.59" rx="0.77" transform="translate(302.85 626.19) rotate(-90)"/><rect class="cls-17" x="256.93" y="152.69" width="187.4" height="17.97" rx="0.77" transform="translate(188.96 512.3) rotate(-90)"/><rect class="cls-17" x="263.61" y="149.93" width="187.4" height="23.48" rx="0.77" transform="translate(195.65 518.99) rotate(-90)"/><rect class="cls-17" x="271.28" y="150.07" width="187.4" height="23.21" rx="0.77" transform="translate(203.31 526.65) rotate(-90)"/><rect class="cls-17" x="278.79" y="153.87" width="187.4" height="15.59" rx="0.77" transform="translate(210.83 534.16) rotate(-90)"/><rect class="cls-17" x="284.75" y="153.87" width="187.4" height="15.59" rx="0.77" transform="translate(216.78 540.12) rotate(-90)"/><rect class="cls-17" x="309.81" y="141.57" width="187.4" height="40.2" rx="0.77" transform="translate(241.85 565.19) rotate(-90)"/><rect class="cls-17" x="324.84" y="139.38" width="187.4" height="40.2" rx="0.77" transform="translate(259.06 578.03) rotate(-90)"/><rect class="cls-23" x="335.49" y="139.38" width="187.4" height="40.2" rx="0.77" transform="translate(269.71 588.67) rotate(-90)"/><path class="cls-24" d="M512.72,148.29l-24.06.15-156.21,1,6.87-81h173.4Z"/><polygon class="cls-15" points="513.41 252.3 339.48 252.3 293.95 274.81 513.41 274.81 513.41 252.3"/><rect class="cls-18" x="334.51" y="53.77" width="178.21" height="14.55"/><polygon class="cls-16" points="338.79 252.4 293.82 276.13 292.22 53.77 340.13 53.77 338.79 252.4"/><polygon class="cls-19" points="308.86 53.77 309.74 267.73 293.26 276.48 293.26 53.77 308.86 53.77"/><polygon class="cls-19" points="321.19 53.77 321.37 261.6 304.25 270.63 302.78 53.77 321.19 53.77"/><polygon class="cls-25" points="330.03 55.41 330.15 257.24 312.54 266.74 311.63 55.41 330.03 55.41"/></g><g id="Bottom_Inside-2" data-name="Bottom Inside"><rect class="cls-14" x="117.08" y="275.56" width="174.26" height="180.85"/><polygon class="cls-15" points="291.06 454.75 115.74 454.75 71.6 499.33 291.06 499.33 291.06 454.75"/><polygon class="cls-16" points="117.08 455.18 71.44 499.76 71.44 280.35 117.08 280.35 117.08 455.18"/><rect class="cls-17" x="193.93" y="365.85" width="163.06" height="15.59" rx="0.77" transform="translate(-98.19 649.11) rotate(-90)"/><rect class="cls-17" x="180.97" y="365.85" width="163.06" height="15.59" rx="0.77" transform="translate(-111.15 636.15) rotate(-90)"/><rect class="cls-17" x="161.33" y="365.85" width="163.06" height="15.59" rx="0.77" transform="translate(-130.79 616.51) rotate(-90)"/><rect class="cls-17" x="47.44" y="364.67" width="163.06" height="17.97" rx="0.77" transform="translate(-244.68 502.62) rotate(-90)"/><rect class="cls-17" x="54.13" y="361.91" width="163.06" height="23.48" rx="0.77" transform="translate(-237.99 509.31) rotate(-90)"/><rect class="cls-17" x="61.79" y="362.05" width="163.06" height="23.21" rx="0.77" transform="translate(-230.33 516.97) rotate(-90)"/><rect class="cls-17" x="69.37" y="365.85" width="163.06" height="15.59" rx="0.77" transform="translate(-222.75 524.55) rotate(-90)"/><rect class="cls-17" x="75.26" y="365.85" width="163.06" height="15.59" rx="0.77" transform="translate(-216.86 530.44) rotate(-90)"/><rect class="cls-17" x="100.33" y="353.55" width="163.06" height="40.2" rx="0.77" transform="translate(-191.79 555.51) rotate(-90)"/><rect class="cls-17" x="115.35" y="351.65" width="163.06" height="40.2" rx="0.77" transform="translate(-174.87 568.63) rotate(-90)"/><rect class="cls-17" x="126" y="351.65" width="163.06" height="40.2" rx="0.77" transform="translate(-164.22 579.28) rotate(-90)"/><rect class="cls-18" x="112.85" y="280.35" width="178.21" height="11.77"/><polygon class="cls-19" points="87.2 280.35 87.52 484 71.6 499.41 71.6 280.35 87.2 280.35"/><polygon class="cls-19" points="99.53 280.35 99.7 472.16 81.72 489.61 81.12 280.35 99.53 280.35"/><path class="cls-26" d="M291.06,362l-24.06.13L110.79,363l6.87-70.44h173.4Z"/><polygon class="cls-19" points="112.85 280.35 112.96 459.2 94.33 477.37 94.45 280.35 112.85 280.35"/></g><g id="Top_inner" data-name="Top inner"><rect class="cls-14" x="117.55" y="48.94" width="174.26" height="205.82"/><rect class="cls-22" x="183.14" y="152.77" width="185.57" height="15.59" rx="0.77" transform="translate(115.36 436.5) rotate(-90)"/><rect class="cls-22" x="170.18" y="152.77" width="185.57" height="15.59" rx="0.77" transform="translate(102.4 423.54) rotate(-90)"/><rect class="cls-17" x="150.54" y="152.77" width="185.57" height="15.59" rx="0.77" transform="translate(82.76 403.9) rotate(-90)"/><rect class="cls-17" x="36.65" y="151.59" width="185.57" height="17.97" rx="0.77" transform="translate(-31.13 290.01) rotate(-90)"/><rect class="cls-17" x="43.34" y="148.83" width="185.57" height="23.48" rx="0.77" transform="translate(-24.45 296.69) rotate(-90)"/><rect class="cls-17" x="51" y="148.97" width="185.57" height="23.21" rx="0.77" transform="translate(-16.78 304.35) rotate(-90)"/><rect class="cls-17" x="58.58" y="152.77" width="185.57" height="15.59" rx="0.77" transform="translate(-9.2 311.94) rotate(-90)"/><rect class="cls-17" x="64.47" y="152.77" width="185.57" height="15.59" rx="0.77" transform="translate(-3.31 317.83) rotate(-90)"/><rect class="cls-17" x="89.54" y="140.47" width="185.57" height="40.2" rx="0.77" transform="translate(21.75 342.89) rotate(-90)"/><rect class="cls-17" x="104.56" y="138.3" width="185.57" height="40.2" rx="0.77" transform="translate(38.94 355.75) rotate(-90)"/><rect class="cls-23" x="115.21" y="138.3" width="185.57" height="40.2" rx="0.77" transform="translate(49.59 366.4) rotate(-90)"/><path class="cls-27" d="M291.53,147.32l-24.07.15-156.2,1,6.87-80.17h173.4Z"/><polygon class="cls-15" points="292.22 250.31 118.28 250.31 72.76 272.61 292.22 272.61 292.22 250.31"/><rect class="cls-18" x="113.32" y="53.72" width="178.21" height="14.41"/><polygon class="cls-16" points="118.2 250.42 71.76 273.91 70.1 53.72 119.59 53.72 118.2 250.42"/><polygon class="cls-19" points="87.66 53.72 88.55 265.59 72.07 274.25 72.07 53.72 87.66 53.72"/><polygon class="cls-19" points="99.99 53.72 100.18 259.52 83.06 268.46 81.59 53.72 99.99 53.72"/><polygon class="cls-25" points="108.84 55.35 108.96 255.2 91.34 264.61 90.44 55.35 108.84 55.35"/></g><g id="Mattress"><path class="cls-3" d="M277.41,497.13H92.88a1.74,1.74,0,0,1-1.34-.33c-.69-.73-.85-10.74-.42-14.16a2.19,2.19,0,0,1,.62-1.27L114.94,458c0-.71,3.83-1,5-1H285.54c1.49-.27,2.43,1.3,2.91,2a1,1,0,0,1,.17.55l0,34C288.22,496.69,283.45,497.13,277.41,497.13Z"/><path class="cls-28" d="M276.27,481.83H98.55c-1.68.1-7.09-.15-6.26-.93l22.84-23.15a6.22,6.22,0,0,1,2.78-.59H285.69c1.65,0,1.49.38,1.49.86v20.64C287.49,481.83,282.29,481.83,276.27,481.83Z"/></g><g id="Mattress-2" data-name="Mattress"><path class="cls-3" d="M499.22,494.49H322.15a1.6,1.6,0,0,1-1.28-.33c-.66-.73-.82-10.74-.4-14.17a2.15,2.15,0,0,1,.59-1.26l22.26-23.41c0-.71,3.68-1,4.81-1H507c1.43-.28,2.33,1.29,2.79,2a1,1,0,0,1,.16.55l0,34C509.59,494,505,494.49,499.22,494.49Z"/><path class="cls-28" d="M498.12,479.19H327.59c-1.61.1-6.8-.15-6-.93l21.91-23.15a5.75,5.75,0,0,1,2.67-.6h161c1.59,0,1.43.39,1.43.87V476C508.88,479.19,503.9,479.19,498.12,479.19Z"/></g><g id="Mattress-3" data-name="Mattress"><path class="cls-3" d="M93.53,270.32c-2-3.39-1.5-12.38-.2-12.8l20.57-12c0-.44,3.83-.27,5-.27H286.28a3.62,3.62,0,0,1,2.94,1.25.47.47,0,0,1,.17.34l.05,21.17c-.45,2-5.27,2.27-11.38,2.27"/><path class="cls-28" d="M275.73,257l-174.56.61c-1.34,0-4.42.2-6.06.18a.39.39,0,0,1-.2-.73l18-11a13.43,13.43,0,0,1,2.81-.27H285.26c1.67,0,1.5.18,1.5.4v9.39C287.07,257,281.82,257,275.73,257Z"/></g><g id="Mattress-4" data-name="Mattress"><path class="cls-3" d="M313.82,270.2c-2-3.38-1.51-12.37-.2-12.8l20.53-11.95c0-.45,3.83-.27,5-.27H506.33a3.59,3.59,0,0,1,2.94,1.24.47.47,0,0,1,.17.35l0,21.16c-.44,2-5.26,2.27-11.36,2.27"/><path class="cls-28" d="M495.79,256.88l-174.34.61c-1.34,0-4.42.21-6.06.18a.39.39,0,0,1-.2-.72l17.94-11a12.7,12.7,0,0,1,2.81-.27H505.31c1.67,0,1.5.17,1.5.39v9.4C507.12,256.88,501.88,256.88,495.79,256.88Z"/></g><path class="cls-29" d="M240.29,464.91c-13.76,1-28.42-.24-42.27-.42l-43-.56c.12,0,.79-17.81,3-19.15,2.4-1.45,7-2.13,11.82-2.45a4.26,4.26,0,0,1,.38.35c-4.29-.1-7.57,3.74-6.93,7.16s4.24,6.07,8.23,7.32,8.39,1.34,12.67,1.41q12.94.19,25.88.42c10.72.18,23.06-.22,29.93-6.74A109.48,109.48,0,0,0,240.29,464.91Z"/><path class="cls-30" d="M242.49,443c.25,0,.37.26.21.41-1.07,1-.2,4.66-.41,8.71-.29,5.51-2,11.78-2,12.76-13.76,1-28.42-.24-42.27-.42l-43-.56c.12,0,.79-17.81,3-19.15,2.4-1.45,7-2.13,11.82-2.45,5.81-.42,12-.35,15.61-.59A318.69,318.69,0,0,1,242.49,443Z"/><path class="cls-30" d="M392.46,462.87a26.5,26.5,0,0,0-2.81-19.66l2.53-.26a355.25,355.25,0,0,1,72.61,0,18.3,18.3,0,0,0,4,19,17.57,17.57,0,0,0,1.81,1.74Z"/><path class="cls-29" d="M392.46,462.87a26.5,26.5,0,0,0-2.81-19.66l2.53-.26c3.05,1.7,6.37,3.86,6.65,7,.27,2.83-2,6.06.05,8.27,1.55,1.68,4.47,1.46,6.91,1.12a187.52,187.52,0,0,1,58.35,1.16,16.8,16.8,0,0,1,4.61,1.42,17.57,17.57,0,0,0,1.81,1.74Z"/><path class="cls-30" d="M243.07,235.4c.24,0,.35.17.2.27-1,.67-.18,3.07-.38,5.73-.27,3.63-1.91,7.76-1.87,8.41-12.82.69-26.48-.16-39.4-.28l-40.11-.37c.11,0,.74-11.72,2.83-12.61,2.24-1,6.48-1.4,11-1.61,5.41-.28,11.23-.23,14.54-.39A419.08,419.08,0,0,1,243.07,235.4Z"/><path class="cls-29" d="M241,249.81c-12.82.69-26.48-.16-39.4-.28l-40.11-.37c.11,0,.74-11.72,2.83-12.61,2.24-1,6.48-1.4,11-1.61l.35.23c-4-.07-3.25.55-6.46,4.71-1.37,1.78,3.64,5.38,7.67,4.83,3.77-.52,7.82.87,11.81.92l24.12.28c10,.12,21.51-.14,27.91-4.44A52.32,52.32,0,0,0,241,249.81Z"/><path class="cls-30" d="M467.66,243.06c.06-.5-.15-6.24-.59-6.39-.25-.09,0,0-.49,0-27.13-3-41.74-5.72-80.55,0-.23,0-.32.46-.43.88-1,3.51-3,5.87-5,11.37h0a.6.6,0,0,0,.28,1.1c23.25.21,82.47,2.11,86.07-.48"/><path class="cls-29" d="M453.41,246.31a279.38,279.38,0,0,0-66.66,1"/><path class="cls-31" d="M271.72,417.26s-15.28,15.22-23.37,14.25c-3.68-.45-7.76-4.63-11.89-9.4-.36-.41-1-1.58-1.37-2a196.31,196.31,0,0,1-14-19.51l-.86-5.76-1.41-9.35s4.8-1.06,8.61.41c1.61.63,2.8.44,3.49,1.23,1.7,1.92,9.74,19,14.83,28.3,1.94,3.54,3.46,5.94,4,5.91,2-.11,12.61-3.26,20.07-7.6l1.76,3.33Z"/><path class="cls-31" d="M271,418.05s5.6,2.64,7.24,2.57,7.14-1.25,7.14-1.25-.51-1.22-3.15-1.16-4.74-3.67-6.53-4.34a8.15,8.15,0,0,0-5.8-.14Z"/><path class="cls-31" d="M271,413.42s4.05-1.14,5.6-.85c.95.17,2.38,1.48,4.7,1.58.8,0,.3.69,0,.89-.67.41-5.38.79-5.38.79Z"/><path class="cls-31" d="M278.22,419.76c.24,0,6.69,1.4,6.69,1.4s-.21-1.79-1.08-1.79S278.22,419.76,278.22,419.76Z"/><path class="cls-32" d="M205.93,341.22s-9.14-1.23-14.23,6.22c-3,4.44-9.37,15.1-10,25.16-.38,6.46,14.59,8.51,20.74,4.1,5.12-3.66,17.3,2.38,21.11,0,6.69-4.23-1.1-10-1.57-14.62C220.45,346.5,217.57,340.51,205.93,341.22Z"/><path class="cls-31" d="M233.18,446.08c-.44-2.07-6.55-12.43-7-13.74s2.51-14.72,4.58-24.12S227,382.93,227,382.93s-3.92-.94-9.47-2.58a4.18,4.18,0,0,1-3-3.75,67.92,67.92,0,0,1,0-6.9l-12,.27a29,29,0,0,1-.2,7.53,3.32,3.32,0,0,1-2.49,2.78c-4.29,1.09-6,2.18-10.63,4.35,0,0,.07.5.19,1.41l-.09-.07s-.22,6.76-.07,15.46c.13,7.85,4.88,27.35,5.8,31.09,0,.25.06.5.08.75-3.19,5.23-7.75,12.81-7.75,12.81S233.61,448.15,233.18,446.08Z"/><path class="cls-33" d="M248.48,456.05c-11.08,8.95-27,13.81-27,13.81s-12.78.24-27.28,0c-14.08-.23-27.85-16.95-27.85-16.95s11.74-.14,15-2.78a58,58,0,0,0,7.59-8.23c1.89-2.39,3.75-4.91,5.36-7.22,0,0,3.33,3.14,16.84,2.8S228,435.7,228,435.7s1.59,1.89,3.7,4.27c2.54,2.88,5.82,6.49,7.93,8.4C240.51,449.21,248.48,456.05,248.48,456.05Z"/><path class="cls-34" d="M250,455.64c-3.37,2.92-13.37,6.13-22.79,8.67-2.64.71-5.24,1.37-7.64,2-2.16.67-6.54,2.06-11.24,3.7-6.63,2.3-9.53,1.2-12.82.62s-7,1.72-11.86-.06S180,459.17,180,459.17c1.65-1.08,8-1.4,12.39,1.72s10.15,2.53,10.15,2.53a3.66,3.66,0,0,0,1.48-.69,116.37,116.37,0,0,0,12-8.66c2.51-2,5.38-4.37,8.59-7.18,6.14-5.35,11.43-12.39,17.54-13.69C252.58,431,256.29,435,256.29,435S258.86,448,250,455.64Z"/><path class="cls-35" d="M207.43,457.5s23.69-21.18,31.09-23.82,16.08-1.57,17.65.56,1.92,7,.46,11.6-4.9,11.89-12.91,14-27.83,8.73-27.83,8.73l-9.49-5Z"/><path class="cls-36" d="M233.89,461.46s-.22,8.35-3.28,9.34c-4.21,1.36-7.52-.82-11-.19s-6.29,1.55-13.29-.9c-4.65-1.62-9-3-11.41-3.77l-3.64-1c-9.3-2.63-19.88-6.14-23.26-9.3C159.83,448,163,434.39,163,434.39s2.66-3.4,12.3-1.19c5.65,1.3,11.49,6.9,17.14,12.22,2.34,2.21,4.56,4.25,6.6,6.1,7.1,6.41,12,10.4,12,10.4l0,0a3.92,3.92,0,0,0,1.5.71s3.7,1.46,10.13-.7C227.06,460.46,232.16,460.31,233.89,461.46Z"/><path class="cls-37" d="M202.74,372.56s2.37,5.49,6.26,5.17,5.5-5.29,5.5-5.29Z"/><path class="cls-38" d="M211.38,432.39c0,.71-.32,1.29-.71,1.29s-.71-.58-.71-1.29.32-1.29.71-1.29S211.38,431.68,211.38,432.39Z"/><path class="cls-31" d="M216.13,370.27c-2.86,3.33-6.4,7.73-15.57,1.11-1.79-1.3-2.67-4.22-3.07-7.42-.49-3.79-.86-5.36-.64-7.59.25-2.67,2.67-7.79,7.28-8.65,8.47-1.56,11.9,3.7,12.52,8C218,364.88,219,366.89,216.13,370.27Z"/><path class="cls-39" d="M205.31,368.74s1.36,1.68,2.94,1.52,2-.06,2.7-.52a5,5,0,0,0,1.21-1.87S207.71,367.59,205.31,368.74Z"/><path class="cls-32" d="M209.64,350.34a6.49,6.49,0,0,1-4.67,6.87c-6.41,2.14-7.3,3.12-7.16,8.7.17,7.09-8,1.42-6.54-5.58s5-13.55,10.25-14.54,12.09-.5,14.23,2.88,3.13,11.66,3.13,11.66h-1.49S216,352.55,209.64,350.34Z"/><path class="cls-40" d="M211,462s2.1-3.17-2.65-6.89-25.5-20.19-30.62-21.75-12.46-1.77-14.88.36-2.7,15.79,1.78,20.77,32.3,14.38,35.51,15.16a10.48,10.48,0,0,0,5.32-.22Z"/><path class="cls-31" d="M194.34,399.89a50.6,50.6,0,0,1-5,10c-2.52,3.63-4.65,8.55-7.56,12.36-.46.6-.93,1.17-1.4,1.7-6,6.76-12.6,7.76-12.6,2a4,4,0,0,1,.05-.57,26.1,26.1,0,0,1,2.26-6.29h0c.75-1.62,1.64-3.4,2.62-5.27,3.64-6.95,8.49-15.06,11.6-20.16,1.86-3,3.1-5,3.1-5l1.83,3.29Z"/><path class="cls-31" d="M225.27,402.39s1.78,3.2,4.24,7.44c2.11,3.63,4.73,8,7.17,11.84.38.61.78,1.18,1.17,1.71,5,6.75,10.56,7.76,10.56,2,0-.17,0-.36,0-.57a30,30,0,0,0-1.9-6.29h0c-.63-1.62-1.37-3.4-2.19-5.27-3.05-6.95-7.11-15.07-9.72-20.16-1.56-3-2.6-5-2.6-5l-1.54,3.29Z"/><path class="cls-31" d="M171.34,430.89c4.52,2.22,17.78,9.12,26.79,11.54l.94-2.81s-17.34-15.84-21-17-7.92-.08-8.69,2.25c-.93,2.8-1,1.68-1,3C168.31,428.76,170.55,430.5,171.34,430.89Z"/><path class="cls-41" d="M246.91,415.57c-.09.17-.19.34-.29.51a14.83,14.83,0,0,1-6.69,6,16.09,16.09,0,0,1-3,1l-.29.07c-.6-.69-1.2-1.4-1.79-2.13-1.8-2.21-3.54-4.54-5.14-6.83l0,.14c-.43,2.06-1.51,9.15-.61,13.19,1.81,8.1-1.11,8.14-1.11,8.14h0c-.18,0-1.33.36-3.19.73a74.74,74.74,0,0,1-16.26,1.49,51.66,51.66,0,0,1-11.35-1.5c-.81-.21-1.61-.45-2.4-.71-.3-.09-.59-.19-.88-.3l-.06,0s-1.6.13-2.29-2.5a14.15,14.15,0,0,1-.22-4.75,84.08,84.08,0,0,0-.31-8.56c-.31-4.43-.7-8.82-.7-8.82l-.27.42c-2.22,3.31-4.94,8.39-7.66,11.7h0a17.51,17.51,0,0,1-6.29-3.84h0a11.82,11.82,0,0,1-1.33-1.45,12.3,12.3,0,0,1-2-3.81,9.61,9.61,0,0,1-.33-1.35h0c5.4-10.24,12.22-25.72,14.21-27.19,4.22-3.13,11.1-4.32,11.1-4.32s-1.53,9.42,10.93,9.31c4.39,0,7.27-1.17,9.16-2.62a9.25,9.25,0,0,0,3.38-5.06c0-.08,0-.15.05-.21a2.33,2.33,0,0,0,.09-.91l.1,0c1,.23,2.83.59,3.75.76a7.81,7.81,0,0,1,1.17.33,22.47,22.47,0,0,1,3.14,1.52l0,0,.28.18a5.83,5.83,0,0,1,1.23,1C232.83,387.28,241.45,405.63,246.91,415.57Z"/><path class="cls-42" d="M186.59,385.23s-1,4-2.28,8.39a58.66,58.66,0,0,1-3.41,9.52c-2.28,4.13-6.18,14.45-6.18,14.45a12.3,12.3,0,0,1-2-3.81,9.61,9.61,0,0,1-.33-1.35h0C177.78,402.18,184.6,386.7,186.59,385.23Z"/><path class="cls-42" d="M208.48,437.93a51.66,51.66,0,0,1-11.35-1.5c-.81-.21-1.61-.45-2.4-.71-.3-.09-.59-.19-.88-.3l-.06,0s-1.6.13-2.29-2.5a14.15,14.15,0,0,1-.22-4.75,84.08,84.08,0,0,0-.31-8.56c-.31-4.43-.7-8.82-.7-8.82s-.91-6.35-.48-7.13,2.49,6.55,4,8.76.16,10.29,2.44,14.85S198.81,436.55,208.48,437.93Z"/><path class="cls-42" d="M242.8,420.39a14.72,14.72,0,0,1-2.87,1.71,16.09,16.09,0,0,1-3,1l-.29.07c-.6-.69-1.2-1.4-1.79-2.13-1.8-2.21-3.54-4.54-5.14-6.83l0,.14s-.67-3.75-.38-4.94,4.91,4.74,6.83,8.09S242.8,420.39,242.8,420.39Z"/><path class="cls-31" d="M197.89,438.62s6.62,1.09,7.3,3.37a12.53,12.53,0,0,1,.85,4c-.06.74-1.22,2.88-1.82,2.34-.38-.35-.42-1-.89-1.73a4.83,4.83,0,0,0-2.39-1.78,8.79,8.79,0,0,1-3.05-1.4,5.89,5.89,0,0,1-1.12-1.42Z"/><path class="cls-31" d="M198.36,438.76a5.85,5.85,0,0,1,1.44-.13c1.36.07,2.94.38,4.2.38,1.46,0-1.4,1.8-3.34,1A7.5,7.5,0,0,1,198.36,438.76Z"/><g id="girl_2" data-name="girl 2"><path class="cls-43" d="M170.81,136s-3-4.4-11.39-2.93-8.6,14.35-15.2,18.54S134,159.26,133.47,166s9.53,17,18.45,13.57,10.63-11.25,9.72-15.72-6.27-28.74,7.11-26.35Z"/><path class="cls-43" d="M184.7,142.4s-1.92-4.66-8.47-7.22-10.25.87-12,2.56c-2.12,2-4.17,18.66,4.52,19.31S184.7,142.4,184.7,142.4Z"/><path class="cls-44" d="M186.55,172.94s19.31,16.29,19.06,17.19a4.37,4.37,0,0,1-6.27,2.61c-4.15-1.84-16.08-10-15.78-10.35S186.55,172.94,186.55,172.94Z"/><path class="cls-31" d="M183.63,180.76A21.87,21.87,0,0,1,176,184c-11.78,2.72-16.3-7.24-18-14.07a10.08,10.08,0,0,1,4-1.23c.85-.1,1.74-.17,2.49-.21,1.32-1,3.29-5.16,3.73-11.6l.55.15,9.29,2.54s-.42,2.95-.63,5.75c-.16,2.18-.19,4.27.22,4.78.73.15,1.16.26,1.16.26h0A59.71,59.71,0,0,1,183.63,180.76Z"/><path class="cls-44" d="M178,159.59s-.43,2.95-.63,5.75c-5.26-.53-7.71-5.54-8.66-8.29Z"/><path class="cls-31" d="M179.61,162.36s-12.49-.68-11.94-8.46-.69-13.09,7.31-13,9.33,3.19,9.78,5.82S182.88,162.34,179.61,162.36Z"/><path class="cls-45" d="M180.5,151.52c0-.06.74-1.66,1.4-1.87s1.15,1,1.07,2"/><path class="cls-45" d="M176.24,151.48c0-.07.17-1.77,1-2.06s1.43,1,1.66,2"/><path class="cls-43" d="M185.21,141.3c-1.84-2.6-3.41-2.17-4.33-1.49a9.17,9.17,0,0,0-11.91,1,15.64,15.64,0,0,1-5.76,8.85s2.32,1.86,7.89.63a14,14,0,0,0,9.9-8.7,8.39,8.39,0,0,1,2.46,2.95A12.9,12.9,0,0,1,184.9,151S188,145.2,185.21,141.3Z"/><path class="cls-46" d="M185,184.47c.67,6-.74,4.36-7,18.26-5.27,11.75.71,22.33.71,22.33S162,239,152.22,242.63a11.77,11.77,0,0,1-3.72.87,2.94,2.94,0,0,1-2.27-.75,5.85,5.85,0,0,1-.65-.83c-5.46-8.44-7.25-48.22,3.49-67.59,1.48-2.67,4.91-4.69,6.55-5.4h0a18.42,18.42,0,0,1,3.07-1,25.8,25.8,0,0,1,5.13-.66h0c.56,0,1.12,0,1.67,0,1.77,1.15,8.51,5.46,11.28,4.93l.15,0c1.31-.33,1.8-1.24.71-2a13.26,13.26,0,0,1,7.13,1.07c4,1.84,8,6.45,8,6.45S189,182.8,185,184.47Z"/><path class="cls-47" d="M152.22,242.63c-.65,1.45-1,2.3-1,2.3l-2.68-1.43-2.92-1.58c-5.46-8.44-7.25-48.22,3.49-67.59,1.48-2.67,4.91-4.69,6.55-5.4h0a18.42,18.42,0,0,1,3.07-1,25.8,25.8,0,0,1,5.13-.66c-.17.06-5.72,2.14-7.25,4.78s-1.65,14.46-2,17.72,1.2,4.5,2.5,8.91,7.66,4.74,8.8,8.24C166.82,209.87,155.73,234.86,152.22,242.63Z"/><path class="cls-47" d="M187.21,184.47s-2.45-3.78-3-4.76-.49-.59-.56,1-1.13,3.67-.08,5.54S187.21,184.47,187.21,184.47Z"/><path class="cls-48" d="M180.29,252.21a5.77,5.77,0,0,0,4.16-2.53l.48-.72c3.53-5.35,4.91-21.74,12.86-39.2,1.94-4.25,8.89-5,10.79-9.82,0,0,4.66-15.58-8.94-16s-36.41,43.34-36.77,47.93S153.88,255.19,180.29,252.21Z"/><path class="cls-36" d="M234.34,251.85H215s-.72-3.08.55-5.18c1.13-1.86.69-2.92-.14-4.46a7.53,7.53,0,0,0,3.26.62,6.84,6.84,0,0,0,2.88-1,69.7,69.7,0,0,0,5.51,5.8C228.31,248.52,234,248.19,234.34,251.85Z"/><path class="cls-36" d="M216.19,244.93c-1.22-.32-3.26-2.27-4.19-3.12-6.52-5.87-19.75-22.5-19.75-35.84,0-6.5-.12-18.92,4.61-22.07,1.63-1.09,5.08-.64,7.89.57,2.23,1,4.06,2.4,4.27,3.93.91,6.87,3.92,25.39,9.07,39.53a62,62,0,0,0,4.67,10.24C225.35,242.51,216.24,244.94,216.19,244.93Z"/><path class="cls-49" d="M168.75,251.86s.72-1,2-2.9c1.49-2.25,3.13-6.69,5.13-12.38,2.1-6,4.59-13.31,7.71-21,1-2.36,2-4.75,3.06-7.13,1.94-4.26,7.27-3.67,9.16-8.47,0,0,7.4-16.66-6.2-17.12s-40.58,40.66-42.06,45C145.89,232.71,139.1,256.43,168.75,251.86Z"/><path class="cls-50" d="M220.13,251.85H200.78s-.73-3.08.54-5.18c1.13-1.86.7-2.92-.14-4.46a7.56,7.56,0,0,0,3.26.62,6.84,6.84,0,0,0,2.88-1,69.84,69.84,0,0,0,5.52,5.8C214.1,248.52,219.74,248.19,220.13,251.85Z"/><path class="cls-51" d="M206.28,243.16a18.12,18.12,0,0,1-4.3,1.77c-1.22-.32-3.25-2.27-4.19-3.12C191.27,235.94,178,219.31,178,206c0-6.5,7.63-18.4,12.36-21.55a4.65,4.65,0,0,1,2.37-.79,4.79,4.79,0,0,1,4.95,4.16c1.17,8.73,2.81,36.93,10.83,50.38C209.85,240.33,208.22,242,206.28,243.16Z"/><path class="cls-39" d="M182,157.9s-1.18-.47-4.5-.2c0,0,.17,1.29,2.62,1.42A2,2,0,0,0,182,157.9Z"/><path class="cls-52" d="M206.28,243.16a18.12,18.12,0,0,1-4.3,1.77c-1.22-.32-3.25-2.27-4.19-3.12C191.27,235.94,178,219.31,178,206c0-6.5,7.63-18.4,12.36-21.55a4.65,4.65,0,0,1,2.37-.79c-.21.13-2.62,1.63-2.3,7.23.32,5.87,8.23,44.54,12.54,47.75A8.54,8.54,0,0,1,206.28,243.16Z"/><path class="cls-31" d="M194.58,206.91s3.81-.09,5.14-1.51,1-6.65,0-7.69-2.5,3.26-3.64,3.91,1.41-3,.49-3-2.32,1.65-2.56,2.51-.48,1.85-.48,1.85Z"/><path class="cls-31" d="M160.16,172s10.37,24,13.94,26.1c2.31,1.35,19.43,4.91,19.43,4.91l1.05,3.89s-20.26,2.71-25.19-.59c-9.75-6.5-16.37-24.37-17.47-26.77S154,169.67,160.16,172Z"/><path class="cls-46" d="M167.65,184.47a20.86,20.86,0,0,1-5.58,3.32,17,17,0,0,1-2,.67,14,14,0,0,1-1.76.34,11.86,11.86,0,0,1-4-.14s-7.8-14.66,1.3-18.06a3.61,3.61,0,0,1,.58-.07,6,6,0,0,1,1.18,0l.45.06C160.65,171.09,165.48,173.56,167.65,184.47Z"/><path class="cls-47" d="M161.53,188a11,11,0,0,1-7.24.67s-7.8-14.66,1.3-18.06a3.61,3.61,0,0,1,.58-.07,6,6,0,0,1,1.18,0c.15,0,2.33-1.41,2.49-1.38-.51.45-2.87,2.33-3.47,4.05C153.58,181.33,162.09,187.76,161.53,188Z"/><path class="cls-50" d="M218.09,227.93c-6.55-4.64-18.13-37.76-17.48-41.1s4.14-2.36,4.14-2.36h0c2.23,1,4.06,2.4,4.27,3.93C209.93,195.27,212.94,213.79,218.09,227.93Z"/><path class="cls-31" d="M210.47,197.64s2.45,1,2.85,2.87a3.83,3.83,0,0,1-1.42,4.16c-1.22,1-3.22,2.4-3.86.88a5.88,5.88,0,0,1,.81-5.28A9.61,9.61,0,0,0,210.47,197.64Z"/></g><rect class="cls-21" x="291.34" y="47.89" width="7.19" height="452.13"/><rect class="cls-21" x="512.85" y="49.34" width="7.19" height="452.42"/><g id="Ladder"><rect class="cls-21" x="287.61" y="49.61" width="7.46" height="454.02" transform="translate(567.96 -14.72) rotate(90)"/><rect class="cls-53" x="294.94" y="154.33" width="7.35" height="349.5" rx="0.36"/><rect class="cls-54" x="352.22" y="250.99" width="7.35" height="252.84" rx="0.36"/><rect class="cls-21" x="351.2" y="250.99" width="7.35" height="252.84" rx="0.36"/><rect class="cls-21" x="322.66" y="290.25" width="7.46" height="59.34" transform="translate(646.32 -6.47) rotate(90)"/><rect class="cls-21" x="323.06" y="336.32" width="7.46" height="59.34" transform="translate(692.78 39.2) rotate(90)"/><rect class="cls-21" x="322.66" y="380.32" width="7.46" height="59.34" transform="translate(736.38 83.59) rotate(90)"/><rect class="cls-21" x="323.06" y="423.81" width="7.46" height="59.34" transform="translate(780.26 126.69) rotate(90)"/></g><rect class="cls-21" x="288.46" y="-176.9" width="7.46" height="457.03" transform="translate(343.81 -240.57) rotate(90)"/><polygon class="cls-21" points="63.47 508.02 63.47 500.66 520.71 500.52 520.71 507.98 63.47 508.02"/><rect class="cls-21" x="64.25" y="48.26" width="7.19" height="452.42"/><g id="Ladder-2" data-name="Ladder"><rect class="cls-54" x="125.13" y="250.99" width="7.35" height="252.84" rx="0.36"/><rect class="cls-21" x="124.11" y="250.99" width="7.35" height="252.84" rx="0.36"/><rect class="cls-21" x="95.57" y="290.25" width="7.46" height="59.34" transform="translate(419.23 220.62) rotate(90)"/><rect class="cls-21" x="95.97" y="336.32" width="7.46" height="59.34" transform="translate(465.69 266.29) rotate(90)"/><rect class="cls-21" x="95.57" y="380.32" width="7.46" height="59.34" transform="translate(509.29 310.68) rotate(90)"/><rect class="cls-21" x="95.97" y="423.81" width="7.46" height="59.34" transform="translate(553.17 353.78) rotate(90)"/><rect class="cls-55" x="66.81" y="150.08" width="7.35" height="349.5" rx="0.36"/></g></g><path class="cls-56" d="M1153.06,439.6c-.36-3.25-.8-6.58-2.31-9.48-1.83-3.53-5.06-6.07-7.87-8.88a49.2,49.2,0,0,1-11.74-18.71c-1.88-5.43-2.82-11.21-5.41-16.34-1.58-3.13-3.74-5.93-5.53-8.94-4.25-7.12-6.56-15.54-12.31-21.5a25.84,25.84,0,0,0,5.83,20.44,33.73,33.73,0,0,1,4.14,5c2,3.43,1.79,7.62,2,11.57a50.88,50.88,0,0,0,6.07,21.28c3.78,6.94,9.23,13.11,11.25,20.75,1.52,5.72,1.07,12.14,4.29,17.1a4.45,4.45,0,0,1,.84,1.72,3.53,3.53,0,0,1-.07,1.07l-.21,1.38c-.74,4.69-1.5,10.65,2.53,14.15,2.79,2.43,6.38,2.49,8.38-.74s1.84-8,1.69-11.66C1154.4,451.76,1153.75,445.65,1153.06,439.6Z"/><path class="cls-57" d="M1160.31,435.83c-1.56-5.42-4-10.59-5.21-16.1-1.18-5.34-1.19-10.87-1.19-16.35q0-9,0-18a67.21,67.21,0,0,0-.62-11.17c-1.33-7.93-5.45-15.25-6.15-23.26-.3-3.46.05-7-.33-10.42a16.28,16.28,0,0,0-1.64-5.73,2.55,2.55,0,0,0-4.58.12c-2,4.34-3.27,9-2.46,13.67.48,2.79,1.69,5.38,2.59,8.06,4,11.94,1.88,25.15,5,37.36.93,3.68,2.35,7.29,2.51,11.09.4,9.09-6.39,17.39-5.77,26.47.51,7.44,5.86,13.6,8.11,20.71,1.26,4,1.53,8.24,2.87,12.19,1,3.07,3.48,6.8,7.26,5.87,3.59-.89,2.51-3.82,2.35-6.62C1162.48,454.26,1163,445.08,1160.31,435.83Z"/><path class="cls-56" d="M1168.53,440.8c-.16-2.82,1.75-4.24,2.14-7a71.07,71.07,0,0,1,1.38-8.38c1.26-4.29-.25-8.69.06-13.14q.83-12.15,1.66-24.3c.86-12.59,1.72-25.22,4.07-37.61.66-3.44,1.39-7.17-.16-10.32-.32-.66-1-1.36-1.67-1.14-.5.16-.74.71-.93,1.2-5.14,14-7.09,29-12.83,42.79-1.37,3.29-3,6.53-3.69,10-.85,4.2-.38,8.54-.27,12.83a60.34,60.34,0,0,1-2.14,18.24,74.07,74.07,0,0,0-2.56,9.3c-.61,4-.1,8,.28,12a183.81,183.81,0,0,1,.74,23.11c-.14,4.53,3.69,4.41,6.22,1.63,1.77-1.95,1.76-4.09,2.36-6.51C1165.18,455.53,1169,449.42,1168.53,440.8Z"/><path class="cls-57" d="M1144.63,453.09c-3.38-5.44-10.12-8.53-12.28-14.56-.55-1.53-.77-3.18-1.44-4.67-1.49-3.29-4.89-5.15-8.22-6.67a.71.71,0,0,0-1,.63h0a2.4,2.4,0,0,0,1,2,13.51,13.51,0,0,1,5.39,7.36c1,3.53.58,7.4,1.86,10.85,1.08,2.9,3.29,5.26,4.33,8.17,1,2.66.85,5.57,1.3,8.35s1.69,5.75,4.25,6.93C1149.13,475.79,1146.82,456.6,1144.63,453.09Z"/><path class="cls-56" d="M1183.17,451.29c-.15,2.63.25,5.38-.77,7.81a24.06,24.06,0,0,1-2.82,4.17c-3.41,4.83-4.64,11.66-9.88,14.38a1.74,1.74,0,0,1-1.12.26,1.67,1.67,0,0,1-1.1-1.12c-1.29-3,.15-6.36,1-9.51a2.34,2.34,0,0,0,0-1.67c-.29-.55-1-.79-1.4-1.23-.89-.87-.81-2.31-.63-3.55a79.85,79.85,0,0,1,1.87-9.18,16.14,16.14,0,0,1,2-4.91,22.28,22.28,0,0,1,4.14-4.09,49.12,49.12,0,0,0,14.33-21.15,13.78,13.78,0,0,1,2.39-5c1.25-1.39,3.48-2.1,5-1,1.08.76-3.36,7.9-3.88,8.76-1.48,2.45-1.49,4.58-2.33,7.29C1187.91,438.19,1183.56,444.16,1183.17,451.29Z"/><path class="cls-57" d="M1178,454.33a32.46,32.46,0,0,0,2.27-7.71c.35-3-.12-6,.39-8.95.65-3.79,2.86-7.12,3.95-10.8a72.33,72.33,0,0,0,1.46-8.19c1.35-7.81,5-15.45,4-23.31-.23-1.71-1-3.71-2.7-4-1.53-.26-2.93,1.14-3.33,2.65a14.29,14.29,0,0,0,0,4.66,19.28,19.28,0,0,1-3.45,12.34c-2.41,3.42-5.92,6-8.09,9.57-2.66,4.38-3,9.73-4.39,14.68-2.7,9.85-9.48,18.44-10.72,28.57-.49,4,.46,8.93,4.18,10.55C1172.31,479.05,1175.56,460.64,1178,454.33Z"/><path class="cls-12" d="M1159.18,466.82h-24.7a2.61,2.61,0,0,0-2.54,3.23l9,38a2.61,2.61,0,0,0,2.55,2h29.67a2.61,2.61,0,0,0,2.54-2l9-38a2.62,2.62,0,0,0-2.54-3.23Z"/><polygon class="cls-58" points="805.77 477.57 809.65 509.85 815.13 509.88 821.27 477.65 805.77 477.57"/><polygon class="cls-59" points="805.77 477.57 821.27 477.65 815.13 509.88 813.3 483.54 806.13 480.63 805.77 477.57"/><polygon class="cls-58" points="1112.58 479.1 1116.46 511.37 1121.95 511.4 1128.09 479.17 1112.58 479.1"/><polygon class="cls-59" points="1112.58 479.1 1128.09 479.17 1121.95 511.4 1120.12 485.06 1112.95 482.15 1112.58 479.1"/><path class="cls-60" d="M968.11,446l.37-45.8s-2.13-40,40.78-48.56c48.64-9.67,76-3.11,96,11.48,18.93,13.81,16,89,16,89Z"/><path class="cls-61" d="M1105.29,363.11c-19-13.74-32.51-17-59.55-16.13,21.4.94,36.66,7,49.07,16.07,18.17,13.25,16.23,83,16,88.6l10.46.42S1133,383.15,1105.29,363.11Z"/><path class="cls-62" d="M980.28,389.85c-.66,2.79-1,5.81-.15,8.46,1.67,5.08,7.49,6.87,12.06,5.06s8-6.27,10.79-10.86,5.17-9.56,8.71-13.42c5.72-6.24,13.71-8.75,21.4-10s15.55-1.36,23-3.93c2-.69,4.28-2,4.56-4.35.37-3.11-2.94-4.76-5.61-5.27C1030.38,350.85,988.49,355,980.28,389.85Z"/><path class="cls-60" d="M814.7,445.23l1.67-45.79s1.4-40.72,39.48-48.57c48.6-10,76-3.12,96,11.48,18.94,13.8,16,89,16,89Z"/><path class="cls-61" d="M951.88,362.34c-14.28-10.85-32.51-17-59.55-16.12,21.4.93,36.66,7,49.07,16.07,18.17,13.25,16.24,83,16.05,88.6l10.47.41S976.27,380.9,951.88,362.34Z"/><path class="cls-63" d="M968.16,444.54s-14.75-20.84-77.62-21.15c-48.62-.24-75.78,20.39-75.78,20.39l-1.26,34.29,153.41.76Z"/><path class="cls-64" d="M890.54,423.39c-48.62-.24-75.78,20.39-75.78,20.39l-.06,1.45,153.41.76,0-1.45S953.41,423.7,890.54,423.39Z"/><path class="cls-63" d="M1121.57,445.3s-14.75-20.84-77.62-21.15c-48.62-.24-75.79,20.39-75.79,20.39l-1.25,34.29,153.41.76Z"/><path class="cls-64" d="M1044,424.15c-48.62-.24-75.79,20.39-75.79,20.39l0,1.45,153.41.76,0-1.45S1106.82,424.46,1044,424.15Z"/><path class="cls-62" d="M826.87,389.09c-.66,2.79-1,5.81-.15,8.46,1.68,5.08,7.5,6.87,12.06,5.06s8-6.27,10.79-10.86,5.18-9.57,8.71-13.42c5.72-6.24,13.71-8.75,21.41-10s15.54-1.36,23-3.93c2-.69,4.27-2,4.55-4.35.37-3.12-2.94-4.76-5.61-5.27C877,350.09,835.08,354.2,826.87,389.09Z"/><path class="cls-60" d="M794.75,478s2.2-51.8,7.68-64.09,14-16.95,13.26,4.42l-2.19,59.76Z"/><path class="cls-61" d="M815.69,418.31c.48-13.4-2.69-16.56-6.48-14,1.67,1.68,2.68,6,2.39,14l-2.18,59.76,4.08,0Z"/><polygon class="cls-61" points="1124.52 462.23 814.14 460.69 813.5 478.07 1123.88 479.61 1124.52 462.23"/><path class="cls-64" d="M802.07,426.27a24.33,24.33,0,0,0-.34,5.74c.1,1.06.44,2.17,1.06,2.22s1.27-1.2,1.64-2.33a102.83,102.83,0,0,0,2.88-12c.43-2.14,1.5-5.37,1-7.45-.32-1.32-1.28-2.3-2.16-1.69-1.27.88-1.9,4.57-2.36,6.5C803.1,420.24,802.52,423.24,802.07,426.27Z"/><path class="cls-60" d="M1139.08,479.69s1.57-51.8-3-64.14-12.79-17.09-13.57,4.28l-2.18,59.76Z"/><path class="cls-64" d="M1124.6,414.83a57.87,57.87,0,0,0-.15,11.32q.35,6.78.7,13.55a6.17,6.17,0,0,0,.37,2.16,1.57,1.57,0,0,0,1.54,1.08,1.82,1.82,0,0,0,1-.74,7.38,7.38,0,0,0,1.08-3.6c.29-2.37.57-4.73.86-7.1a48,48,0,0,0,.43-5.35,37.75,37.75,0,0,0-2.19-11.67C1127.5,412,1125,411.87,1124.6,414.83Z"/><path class="cls-61" d="M1136.07,415.55c-3-8-7.42-12.76-10.42-9.43,4.52.74,5.16,4.46,6.16,9.24,2.75,13.11,2.55,64.3,2.55,64.3l-14-.07h0l18.76.1S1140.65,427.89,1136.07,415.55Z"/><rect class="cls-65" x="1.31" y="509.65" width="1184.03" height="6.79" rx="3.4"/><path class="cls-66" d="M22.68,9c-.25.4-.63,1-1.19,1.74l0,0c0,.09,7,29.47,1.51,31.7-5.06,2-5.49-19.5-3.43-28.53a46.15,46.15,0,0,0-3,6.32,61.12,61.12,0,0,0-3,14c1,2,7.32,14.21,4.17,16.74-2.56,2-4.23-6-4.69-11.34-.37,4.81-.53,9.9-.55,15,3.4,1,13.68,4.38,13.87,10.48C26.57,72,17.73,70,12.48,57.31c0,5,.19,10,.41,14.48,2.45,2.55,12.51,13.53,10.88,19.87s-7.95-.94-10.61-15c.5,8,1.12,14.14,1.4,16.06.09.64.19,1.46.3,2.42h0c0,.35.08.72.13,1.11h0s15.63,24.38,11.15,30c-3.17,4-7.92-12.31-10.42-22.12.87,10.42,1.63,24,.9,28.2h-.06c.56,9.4.94,26.48-3.54,27.35-6.19,1.19,0-17.91,0-17.91s-7.55,3.49-8.25,0C3.6,136,14.18,127.72,15.88,126.44c0-5.19-.42-12.54-.93-19.22-.57,14.32-3.67,18.58-4.87,19-1.49.58-4.57-2.92-3.51-14a27.33,27.33,0,0,1,7.36-16.22c-.14-1.22-.27-2.28-.39-3.11-.26-1.85-.85-7.51-1.33-15C11,89.68,8.14,99.32,5.56,93.35,3,87.53,9.61,76.4,11.92,72.78c-.27-5.25-.46-11.09-.46-17C9.54,61.58,1.12,72.53.07,66.27S9.49,53.7,11.48,52.54c.06-5.08.27-10.15.7-14.91C9.84,42.43,2.72,52.26,1.87,47c-1-6.06,11-15.36,11-15.36l0,0a56.85,56.85,0,0,1,2.77-11.8,47.47,47.47,0,0,1,2.8-6C14,17.23,7.26,20.32,7.53,16.7c.3-3.93,10.69-7.1,14-8,.11-.19.19-.26.24-.26C23,6.73,24.22,5.13,25.49,3.63h1.45A67.42,67.42,0,0,0,22.68,9Z"/><path class="cls-66" d="M31.68,19.24c-3.3,2.15-2.1-8.59-1-15.61H33.9C34.5,9.5,34.64,17.31,31.68,19.24Z"/><path class="cls-66" d="M27.36,18.64c-4.38-.71-.44-8.37,5.73-15h6.47C36.3,10.54,31.34,19.28,27.36,18.64Z"/><path class="cls-66" d="M44.88,3.63h6.63c3.4,4.91,6,11,3.66,16.36C51.9,27.64,47.5,13.91,44.88,3.63Z"/><path class="cls-56" d="M40.82,3.63h1.1c-.28,2.27-.59,4.79-.9,7.52,2.65,6,16.2,38,9.74,44.88-7.14,7.58-9.68-31.24-9.68-31.24L40.7,13.85c-1.08,9.43-2.27,20.93-3.21,32.8C39.94,49,50.1,59.31,45.87,66.1,41.94,72.41,38.46,55,37.34,48.48c-.6,7.85-1.09,15.83-1.35,23.44,2.6,1.4,13.54,7.7,10.54,13.19-2.91,5.33-9-6.49-10.63-10-.12,4.67-.15,9.17-.07,13.38C38.67,90,51.35,97.2,48.22,100.62c-3.52,3.85-10.76-6.45-10.76-6.45s5.67,26.37-.5,23.54-2-25.13-2.24-25.69l.11-.72c-.13-3.47-.16-7.15-.12-11-1.14,3.39-3.35,9-4.69,6.62-1.56-2.87,3.22-8.71,4.76-10.47.12-5.23.35-10.69.67-16.21-2.22,6.51-6.88,15.92-9.24,11.51-2.65-5,7.31-17.74,9.86-20.89.6-8.1,1.33-16.13,2.08-23.55C35,36.81,24.81,56.87,21.51,50,18.08,42.9,35.77,20.56,39.34,16.16,39.87,11.48,40.38,7.24,40.82,3.63Z"/><path class="cls-56" d="M76.58,10.63c-2.68,8.25-8,22.18-13.16,22-7-.22,3-18.29,13.3-26.71,0-.58,0-1.13.06-1.64a35.46,35.46,0,0,1,5,1.4c5.87,4.73,15.82,14.63,12.77,24.43-3.6,11.54-13.11-15.93-16-24.67-.14,4.09-.32,10.11-.46,17.38,4.2,7.45,21.71,39.65,15.42,48C86.39,80.33,79.35,37.5,79.35,37.5L78,27.38c-.16,10.32-.22,22.6,0,35.2,3.43,2.63,15,12.28,11.14,20.19-3.51,7.22-8.88-9.5-11.08-17.23.19,8.5.51,17.09,1,25.26,3.51,1.39,15.51,6.68,12.85,13C89.41,109.9,82,99,79.37,94.77c.37,5.06.81,9.93,1.36,14.48,3.84,1.53,17.81,7.45,14.78,11.6-3.5,4.79-12.67-5.63-12.67-5.63s9.17,28.53,2,26.27c-6.32-2-5.39-22-5.27-27.07-.59-4.14-1.09-8.61-1.5-13.3-1,4-2.67,9.45-4.29,7.12-2-2.8,2.16-9.4,3.89-11.94-.42-5.63-.75-11.51-1-17.48-1.89,7.5-5.82,17.46-8.79,13.1C64.53,87,73.45,72.2,76.32,67.7c-.21-8.8-.27-17.54-.25-25.68C73.24,53.48,64.56,75.3,60.32,68.42,55.84,61.18,72.1,35,76.19,28.62,76.29,21.62,76.44,15.46,76.58,10.63Z"/><path class="cls-66" d="M69.35,24.26C65.6,29.35,61.72,12.66,60,3.93c-.06,6-.12,14-.16,23.29,2.32,2.75,9.5,11.91,8.5,18.7-1,6.59-6.51-7.14-8.52-12.42,0,4.85,0,10,0,15.27,2.91,2.92,9.92,10.83,6.57,16.2-2.71,4.35-5.17-4.27-6.56-10.84,0,6,0,12.24.1,18.51,3.51,3.25,13.26,13.3,9.7,21.64C66.45,101.69,62.06,86,60,77.15c.06,6.68.15,13.38.27,20,1.92,3.72,8.94,18,5.1,21.07-2.08,1.67-3.7-1.83-4.77-6.37.16,6.13.36,12,.6,17.55,2.56,2,13.13,10.48,11.9,16.61-.77,3.83-9,0-9,0s6.79,21,0,19.65c-4.82-.93-4.51-19-3.93-29.4-.1-1.92-.19-3.9-.28-5.92-1,4.36-2.71,7.52-4.64,4.85-3.39-4.69,2.89-15.84,4.15-18-.18-5.74-.32-11.73-.44-17.85-2.61,5.87-12.52,19.89-13.66,12.76-1.09-6.86,10.61-16.92,13.54-19.33-.1-6.09-.17-12.25-.22-18.38C56.64,79,50.21,93.88,45.42,93.1c-5.56-.9,4.27-14.64,13.09-19.77,0-6-.08-12-.1-17.78,0,.15,0,.3-.06.46C57.82,60,51.9,74.82,49.26,69.9s9.09-18.79,9.09-18.79a1.11,1.11,0,0,1,0,.13c0-5.61,0-11,0-16.19C56.54,40.51,50,52.61,47.93,48.55c-2-3.86,7.31-15.3,10.5-19,0-7.45.07-14.15.11-19.75-2.21,5.61-8.92,21.05-11,15.45-2.19-6,8.53-17.42,11-20,0-.55,0-1.08,0-1.6h5.32C67.87,10.37,72.47,20,69.35,24.26Z"/><path class="cls-66" d="M610.56,9.08c.25.39.63.93,1.19,1.68l0,0c0,.09-7,28.39-1.51,30.54,5.06,2,5.49-18.78,3.44-27.48a46.3,46.3,0,0,1,3,6.09,57.48,57.48,0,0,1,3,13.52c-1,1.88-7.31,13.69-4.16,16.12,2.55,2,4.22-5.8,4.69-10.93.37,4.64.53,9.54.54,14.41-3.4.93-13.67,4.22-13.87,10.09-.21,6.57,8.62,4.63,13.87-7.55,0,4.84-.19,9.59-.41,13.95-2.44,2.46-12.5,13-10.88,19.14s7.95-.9,10.61-14.42c-.49,7.74-1.12,13.62-1.4,15.48-.09.61-.19,1.39-.3,2.32h0c0,.34-.08.7-.12,1.07h0S602.62,116.63,607.1,122c3.17,3.84,7.92-11.85,10.42-21.31-.86,10-1.62,23.14-.9,27.18l.06,0c-.55,9.06-.93,25.52,3.54,26.35,6.19,1.15,0-17.25,0-17.25s7.56,3.36,8.25,0c1.18-5.62-9.4-13.54-11.11-14.78,0-5,.43-12.09.94-18.52.57,13.8,3.66,17.9,4.86,18.35,1.5.57,4.57-2.81,3.52-13.47a26,26,0,0,0-7.37-15.63c.14-1.18.27-2.19.39-3,.27-1.78.85-7.24,1.33-14.5,1.21,11.34,4.08,20.63,6.66,14.88S623.63,74,621.33,70.51c.26-5.06.45-10.69.45-16.4,1.92,5.61,10.34,16.15,11.39,10.12S623.75,52.12,621.76,51c-.06-4.89-.27-9.77-.7-14.36,2.34,4.62,9.47,14.09,10.31,9,1-5.84-11-14.8-11-14.8l0,0a52.93,52.93,0,0,0-2.77-11.36,45.28,45.28,0,0,0-2.79-5.83C619.22,17,626,20,625.71,16.48c-.3-3.78-10.69-6.84-14-7.72-.11-.19-.19-.26-.23-.26-1.19-1.63-2.44-3.17-3.72-4.61H606.3A61.37,61.37,0,0,1,610.56,9.08Z"/><path class="cls-66" d="M601.57,18.92c3.3,2.08,2.09-8.27,1-15h-3.22C598.74,9.54,598.6,17.06,601.57,18.92Z"/><path class="cls-66" d="M605.88,18.34c4.38-.68.44-8-5.73-14.45h-6.47C596.94,10.54,601.9,19,605.88,18.34Z"/><path class="cls-66" d="M588.36,3.89h-6.63c-3.4,4.72-6,10.54-3.65,15.76C581.34,27,585.74,13.79,588.36,3.89Z"/><path class="cls-56" d="M592.42,3.89h-1.1c.28,2.18.59,4.61.91,7.24C589.57,17,576,47.76,582.48,54.36c7.14,7.31,9.68-30.09,9.68-30.09l.38-10.54c1.08,9.09,2.28,20.17,3.22,31.6-2.46,2.26-12.62,12.2-8.39,18.74,3.93,6.08,7.41-10.74,8.53-17,.6,7.57,1.09,15.25,1.35,22.59-2.6,1.34-13.54,7.41-10.54,12.71,2.91,5.13,8.95-6.26,10.64-9.66.12,4.5.15,8.83.06,12.89C594.57,87.11,581.89,94,585,97.33c3.52,3.7,10.76-6.22,10.76-6.22s-5.67,25.41.5,22.68,2.05-24.21,2.24-24.75l-.1-.69c.12-3.34.15-6.89.11-10.59,1.14,3.27,3.36,8.72,4.69,6.37,1.57-2.76-3.22-8.39-4.76-10.08-.11-5-.35-10.3-.67-15.61,2.23,6.27,6.88,15.33,9.24,11.08,2.65-4.77-7.31-17.09-9.86-20.12-.59-7.81-1.32-15.54-2.08-22.69,3.14,9.14,13.34,28.47,16.64,21.87,3.43-6.87-14.26-28.39-17.83-32.62C593.37,11.45,592.87,7.37,592.42,3.89Z"/><path class="cls-56" d="M556.67,10.63c2.67,7.95,8,21.37,13.15,21.21,7-.21-3-17.61-13.3-25.73,0-.56,0-1.08-.06-1.58a37.52,37.52,0,0,0-5,1.35c-5.87,4.56-15.82,14.1-12.77,23.53,3.61,11.12,13.12-15.34,16-23.76.14,3.94.32,9.74.46,16.74-4.2,7.18-21.71,38.21-15.42,46.26,7.13,9.13,14.16-32.13,14.16-32.13l1.34-9.75c.16,9.94.22,21.77,0,33.91-3.43,2.53-15,11.83-11.14,19.45,3.51,7,8.88-9.15,11.08-16.6-.18,8.19-.5,16.46-1,24.34-3.51,1.34-15.51,6.43-12.85,12.55,2.54,5.84,10-4.69,12.58-8.73-.36,4.87-.81,9.56-1.35,14-3.85,1.47-17.81,7.18-14.79,11.17,3.5,4.62,12.68-5.42,12.68-5.42s-9.17,27.48-2,25.31c6.32-1.91,5.38-21.15,5.26-26.08.59-4,1.09-8.29,1.51-12.81,1,3.81,2.66,9.1,4.28,6.86,1.95-2.7-2.16-9.06-3.89-11.51.43-5.42.75-11.09,1-16.83,1.89,7.22,5.82,16.81,8.79,12.61,3.36-4.76-5.56-19-8.43-23.33.21-8.48.28-16.89.25-24.74,2.84,11,11.51,32.06,15.76,25.43,4.47-7-11.78-32.2-15.87-38.34C557,21.21,556.81,15.28,556.67,10.63Z"/><path class="cls-66" d="M563.89,23.76c3.76,4.9,7.64-11.17,9.35-19.59.06,5.77.12,13.5.16,22.44-2.31,2.65-9.5,11.48-8.49,18,1,6.34,6.51-6.88,8.52-12,0,4.68,0,9.61,0,14.71-2.9,2.81-9.91,10.44-6.57,15.61,2.71,4.19,5.17-4.11,6.56-10.44,0,5.81,0,11.79-.09,17.83-3.51,3.13-13.27,12.81-9.71,20.85,3.16,7.14,7.55-7.94,9.67-16.5-.07,6.43-.16,12.89-.28,19.22-1.92,3.59-8.94,17.34-5.1,20.3,2.08,1.61,3.71-1.76,4.77-6.14-.16,5.91-.36,11.59-.6,16.91-2.56,1.89-13.13,10.1-11.9,16,.77,3.69,9.06,0,9.06,0s-6.79,20.19,0,18.93c4.81-.89,4.51-18.28,3.92-28.32.1-1.85.2-3.75.29-5.71,1,4.21,2.7,7.25,4.63,4.68,3.39-4.52-2.89-15.26-4.15-17.32.18-5.52.33-11.29.45-17.19,2.6,5.66,12.51,19.16,13.65,12.29,1.09-6.6-10.6-16.3-13.54-18.62.1-5.86.17-11.8.23-17.71,1.88,4.47,8.3,18.79,13.09,18,5.56-.87-4.27-14.11-13.09-19,0-5.79.09-11.53.1-17.13,0,.15,0,.29.06.45.53,3.79,6.45,18.12,9.09,13.38s-9.09-18.1-9.09-18.1l0,.12c0-5.41,0-10.64,0-15.59,1.87,5.25,8.39,16.91,10.48,13,2-3.71-7.3-14.74-10.49-18.35,0-7.18-.07-13.64-.12-19,2.21,5.4,8.92,20.27,11,14.88,2.19-5.74-8.53-16.79-11-19.24,0-.53,0-1,0-1.54h-5.33C565.37,10.38,560.78,19.7,563.89,23.76Z"/><path class="cls-66" d="M1120.66,11.08c.25.39.63.93,1.18,1.68l0,0c0,.09-7,28.39-1.52,30.54,5.07,2,5.49-18.78,3.44-27.48a45.08,45.08,0,0,1,3,6.09,57.45,57.45,0,0,1,3,13.52c-1,1.88-7.32,13.69-4.17,16.12,2.56,2,4.23-5.8,4.69-10.93.37,4.64.53,9.54.55,14.41-3.4.93-13.68,4.22-13.87,10.09-.22,6.57,8.61,4.63,13.87-7.55,0,4.84-.19,9.59-.41,13.95-2.45,2.46-12.51,13-10.89,19.14s8-.9,10.62-14.42c-.5,7.74-1.12,13.62-1.4,15.48-.09.61-.2,1.39-.31,2.32h0c0,.34-.08.7-.12,1.07h0s-15.63,23.49-11.16,28.89c3.18,3.84,7.93-11.85,10.43-21.31-.87,10-1.63,23.14-.9,27.18l0,0c-.55,9.06-.93,25.52,3.55,26.35,6.19,1.15,0-17.25,0-17.25s7.55,3.36,8.25,0c1.17-5.62-9.41-13.54-11.12-14.78,0-5,.43-12.09.94-18.52.57,13.8,3.66,17.9,4.87,18.35,1.49.57,4.56-2.81,3.51-13.47a26,26,0,0,0-7.36-15.63c.13-1.18.26-2.19.39-3,.26-1.78.85-7.24,1.33-14.5,1.21,11.34,4.07,20.63,6.65,14.88s-4-16.33-6.36-19.81c.27-5.06.46-10.69.46-16.4,1.92,5.61,10.34,16.15,11.39,10.12s-9.42-12.11-11.41-13.23c-.06-4.89-.27-9.77-.7-14.36,2.33,4.62,9.46,14.09,10.31,9,1-5.84-11-14.8-11-14.8v0a54.15,54.15,0,0,0-2.77-11.36,45.33,45.33,0,0,0-2.8-5.83c4.42,3.34,11.18,6.31,10.9,2.83-.29-3.78-10.69-6.84-14-7.72-.11-.19-.19-.26-.24-.26-1.19-1.63-2.44-3.17-3.71-4.61h-1.45A65.49,65.49,0,0,1,1120.66,11.08Z"/><path class="cls-66" d="M1111.66,20.92c3.3,2.08,2.09-8.27,1-15h-3.23C1108.84,11.54,1108.7,19.06,1111.66,20.92Z"/><path class="cls-66" d="M1116,20.34c4.38-.68.44-8-5.74-14.45h-6.46C1107,12.54,1112,21,1116,20.34Z"/><path class="cls-66" d="M1098.46,5.89h-6.63c-3.4,4.72-6,10.54-3.66,15.76C1091.44,29,1095.83,15.79,1098.46,5.89Z"/><path class="cls-56" d="M1102.51,5.89h-1.09c.28,2.18.58,4.61.9,7.24-2.65,5.83-16.2,36.63-9.75,43.23,7.15,7.31,9.69-30.09,9.69-30.09l.38-10.54c1.08,9.09,2.27,20.17,3.21,31.6-2.45,2.26-12.61,12.2-8.38,18.74,3.93,6.08,7.4-10.74,8.53-17,.6,7.57,1.08,15.25,1.34,22.59-2.59,1.34-13.54,7.41-10.53,12.71,2.9,5.13,8.94-6.26,10.63-9.66.12,4.5.15,8.83.06,12.89-2.83,1.49-15.52,8.41-12.38,11.71,3.52,3.7,10.76-6.22,10.76-6.22s-5.67,25.41.49,22.68,2.05-24.21,2.25-24.75l-.11-.69c.12-3.34.16-6.89.11-10.59,1.15,3.27,3.36,8.72,4.69,6.37,1.57-2.76-3.21-8.39-4.75-10.08-.12-5-.35-10.3-.68-15.61,2.23,6.27,6.89,15.33,9.25,11.08,2.65-4.77-7.31-17.09-9.86-20.12-.6-7.81-1.33-15.54-2.08-22.69,3.13,9.14,13.34,28.47,16.64,21.87,3.43-6.87-14.26-28.39-17.84-32.62C1103.47,13.45,1103,9.37,1102.51,5.89Z"/><path class="cls-66" d="M1073.54,25c4.41,4.17,5.93-12.39,6.41-21,.89,5.68,2.06,13.3,3.39,22.12-1.91,3-7.73,13-5.8,19.3,1.87,6.09,5.44-7.95,6.69-13.33.68,4.61,1.4,9.47,2.13,14.51-2.46,3.29-8.29,12.07-4.24,16.58,3.27,3.66,4.51-5,5-11.48.82,5.74,1.65,11.65,2.47,17.62-3,3.71-11.25,15-6.58,22.31,4.14,6.48,6.31-9.18,7.17-18,.86,6.36,1.7,12.75,2.49,19-1.38,3.89-6.33,18.72-2.12,21,2.28,1.22,3.4-2.4,3.83-6.91.69,5.86,1.31,11.5,1.84,16.79-2.26,2.33-11.51,12.32-9.45,17.93,1.29,3.5,8.94-1.62,8.94-1.62s-3.8,21.14,2.72,18.68c4.62-1.74,1.82-18.85-.2-28.65q-.24-2.76-.54-5.69c1.6,4,3.72,6.68,5.25,3.79,2.7-5.07-5-14.54-6.58-16.35-.62-5.49-1.31-11.21-2-17,3.39,5.12,15.11,16.68,15.25,9.7.13-6.72-12.81-14.2-16-16-.75-5.81-1.53-11.69-2.33-17.53,2.5,4.08,10.9,17.06,15.52,15.47,5.36-1.85-6.24-13.17-15.65-16.47-.79-5.72-1.58-11.4-2.37-16.92l.12.43c1.07,3.65,9,16.73,10.89,11.58s-11.57-16.24-11.57-16.24l0,.13c-.77-5.34-1.52-10.5-2.25-15.39,2.6,4.85,10.71,15.2,12.21,11,1.43-4-9.33-13.24-13-16.24C1084,21,1083,14.61,1082.2,9.3c3,4.93,11.72,18.41,13,12.73,1.33-6.06-10.83-15-13.64-17-.08-.52-.16-1-.23-1.52l-5.26,1C1073.08,11.55,1069.88,21.57,1073.54,25Z"/><path class="cls-13" d="M1052,101.91h-1v-94a71.79,71.79,0,0,1-32.32,13,85.69,85.69,0,0,1-30.32-1.5,108.8,108.8,0,0,1-30-11.56V46.23h-1V6l.74.47a106.27,106.27,0,0,0,30.47,11.89c16.32,3.6,40.43,4.47,62.61-11.87L1052,6Z"/><path class="cls-67" d="M957.87,39.42h0a9,9,0,0,0-8.86,9.1v19.4h17.71V48.52A9,9,0,0,0,957.87,39.42Z"/><path class="cls-67" d="M1051.48,98.36h0a9,9,0,0,0-8.85,9.1v19.4h17.71v-19.4A9,9,0,0,0,1051.48,98.36Z"/><path class="cls-13" d="M671.71,101.91h1v-94a71.79,71.79,0,0,0,32.32,13,85.69,85.69,0,0,0,30.32-1.5,109.09,109.09,0,0,0,30-11.56V46.23h1V6l-.73.47a106.42,106.42,0,0,1-30.48,11.89c-16.32,3.6-40.43,4.47-62.61-11.87L671.71,6Z"/><path class="cls-67" d="M765.81,39.42h0a9,9,0,0,1,8.85,9.1v19.4H757V48.52A9,9,0,0,1,765.81,39.42Z"/><path class="cls-67" d="M672.19,98.36h0a9,9,0,0,1,8.86,9.1v19.4H663.34v-19.4A9,9,0,0,1,672.19,98.36Z"/><polygon class="cls-68" points="170.64 0 160.63 0 7.34 0.13 7.34 4.81 160.63 4.87 170.64 4.87 1171.34 6.23 1171.34 1.36 170.64 0"/><polygon class="cls-69" points="601.14 511.6 597.23 511.6 611.78 436.02 615.02 436.64 601.14 511.6"/><polygon class="cls-69" points="708.76 511.26 712.01 510.65 697.99 436.02 694.74 436.64 708.76 511.26"/><polygon class="cls-69" points="672.6 511.6 668.7 511.6 683.24 436.02 686.49 436.64 672.6 511.6"/><polygon class="cls-69" points="636.7 511.6 639.87 511.64 625.92 436.36 622.68 436.98 636.7 511.6"/><path class="cls-70" d="M650.86,334.23c-12.85,1.38-29.48,2.83-46.18,31.26-18.24,31.07-8.64,77.48,5.76,90.38s61.44,28.82,101,5c0,0,23.87-14.45,11.62-38.43-18.85-36.89-16.19-44.59-24.62-59.05S678.14,331.3,650.86,334.23Z"/><path class="cls-7" d="M604.68,365.49c11.4-19.4,22.76-26.24,32.92-29.06a85,85,0,0,0-11.9,16.11c-18.24,31.07-8.64,77.47,5.76,90.37,12.77,11.44,51.21,25.25,87.32,11.61a36.73,36.73,0,0,1-7.36,6.33c-39.54,23.84-86.57,7.91-101-5S586.44,396.56,604.68,365.49Z"/><path class="cls-71" d="M681.74,351.86c.67,0,2.51.65,5.2,5.73,3.43,6.49,8.45,26.09,8.45,26.09l-15,5.58-1.93-4.09-3.17-31.5S681.55,351.86,681.74,351.86Z"/><path class="cls-8" d="M661.93,349c4.29,0,14.89,1.25,19.81,2.83,0,0,3.61,31.06-3.26,54.66-1.53,5.28,1.28,21.9,1.28,21.9l-44.39-.58s5.25-40.18,3.27-46.67-2-29.11-2-29.11.3,0,10-1.71A99.89,99.89,0,0,1,661.93,349Z"/><path class="cls-72" d="M675.63,419s30.52-1.74,37.33,2.49-1.23,12.92-1.23,12.92S686.88,445.52,645.29,448c-9.85.58-10.7-26.33-8.86-28.56S675.63,419,675.63,419Z"/><path class="cls-73" d="M656.76,486.09s1,11.33,2.79,14.47-.09,8.47-.19,9.21-3.8,1.77-9.69,1.15-5.8-2-5.32-4.19,3.61-5,3.8-7.11-1.81-9.63-1.81-9.63Z"/><path class="cls-13" d="M648.93,511.8c-6.07-.65-5.31-3.63-4.83-5.89.31-1.42,2-3.09,3.09-4.67a10,10,0,0,0,4.06,2c2.73.81,6.48-.79,8.87-1.79a29.07,29.07,0,0,1,.82,7.83C660.84,510,655,512.44,648.93,511.8Z"/><path class="cls-56" d="M652.28,441c1.23,9.26,7.29,55.38,7.29,55.38l-14.07,1.74s-17.29-60.19-16.41-69.4,7.36-10,7.36-10S649,416.48,652.28,441Z"/><path class="cls-73" d="M636.13,355.53c4.15-1.56,6.18,35.84,6.74,51.23,7.35.71,20.16,0,23.35-.24,1.5-.11,5-1.38,6.45-1.57a14.49,14.49,0,0,1,3.67-.17c.28,0,7.94,3.18,8.59,3.86.82.86,3,3,2.64,3.93s-4.22-2.59-4.22-2.59l-1.89-1.05c2.35,2.29,6.82,5.31,6.18,6.4s-4.67-2-7.54-4.07c2.46,2.23,5.53,6.21,4.82,6.83s-4.12-4-7.84-5.38c-1.38-.5-2.76.87-3.85,1a7.86,7.86,0,0,1-2.81.16l-4-1.14c-1.38.12-1.41.93-2.8,1.23-1.61.34-4.25.7-6.31,1.2-11.81,2.89-15.75,4.23-19.37,4.23C627,419.41,626.32,359.21,636.13,355.53Z"/><path class="cls-71" d="M628.26,390.64c-.78-15.77-.67-35.2,8.17-38.52,3.49-1.31,9.63,6.56,8.53,38.84C640.24,391.34,633.31,391.66,628.26,390.64Z"/><path class="cls-73" d="M697.89,495.78s-1.23,3.94,1,6.54,11.33,5.15,12.53,6.56a4,4,0,0,1,1.11,2.61l-25.63-.7.28-7.74,1.18-5.57Z"/><path class="cls-13" d="M700.45,503.62s-6.58,2.66-9.76,1.08-3.09-2-4-1.42-1.25,7.84-1.25,7.84l28.82.85c2-.05,3-1.53,1.39-2.79a23.51,23.51,0,0,0-3.14-1.87C710.24,506,700.45,503.62,700.45,503.62Z"/><path class="cls-56" d="M696.92,426.34c2-4.17,6.48-9.59,14.41-6.33,7.56,3.12,9.59,10.78,7.21,18.63s-18.09,54-18.64,60.31l-12.54.08s2.28-36.52,2.84-45.35C690.74,445.19,693.49,433.56,696.92,426.34Z"/><path d="M717.27,383.86H675.36a2.73,2.73,0,0,0-2.53,1.7l-12.9,31.58H636.82a1.18,1.18,0,0,0-1.17,1.18h0a1.18,1.18,0,0,0,1.17,1.17h65.76a4.6,4.6,0,0,0,4.19-2.72l13-29A2.75,2.75,0,0,0,717.27,383.86Z"/><path class="cls-39" d="M694.71,402.25a2.31,2.31,0,1,1-1.73-3A2.47,2.47,0,0,1,694.71,402.25Z"/><path class="cls-69" d="M671.89,311.1a32.86,32.86,0,0,1-3.7-1.49A18.82,18.82,0,0,0,664,308c-2.34-.36-6.36-.12-8.58,2.29-2.76,3-7.67.54-6.68,16.25,1.12,17.77,11,15.82,11.24,15.52l8.82-11.37s3,6.56,3,6.32S687.07,316.21,671.89,311.1Z"/><path class="cls-73" d="M664.39,343.4l.85,6.35s1.92,9.15-.54,10.91-10.46-11.17-10.46-11.17l.84-16.1Z"/><path class="cls-8" d="M654.81,338.61a18.22,18.22,0,0,0,10.3,10.17l-.72-5.38-9.31-10Z"/><path class="cls-73" d="M663.89,315.87a8.47,8.47,0,0,1,9.75,8.57,65.17,65.17,0,0,1-.71,8.15c-1.14,7.33-6.14,13.79-9.45,13.21s-11.63-6.9-10.16-17.34C654.22,322,658.42,316.76,663.89,315.87Z"/><path class="cls-73" d="M655.61,329.71a2.47,2.47,0,1,1-1.87-3.33A2.74,2.74,0,0,1,655.61,329.71Z"/><path class="cls-69" d="M653.74,326.38s4,1,5.48-1.58,6.79-8.13,13.54-5.83-5.94-5.59-6.48-5.59l-7-.05s-5,4.11-5.18,4.56-1.62,5.37-1.62,5.37Z"/><path class="cls-39" d="M661.06,337.11l7.27,1.39a3.23,3.23,0,0,1-3.91,2.22C660.5,340.09,661.06,337.11,661.06,337.11Z"/><path class="cls-74" d="M577.65,406c13.16-2.44,22.14,6.33,22.14,6.33s3.78-18.84-.47-31.72c-2.56-1.77-7-3.75-9.83.59,1.54-3.33,3.46-5.63,7.69-5.34-7.4-12.22-23.21-4.32-21.51,5.78C553.81,382.87,565.73,408.18,577.65,406Z"/><path class="cls-75" d="M570.18,398.08l2.48-.46c-1.37-9.24-6.34-16.4-12.36-17.82-3.48-.83-10.41-.38-17.4,11.34l.44,3.75c4.51-7.52,11.51-13.52,16.44-12.35S569,390,570.18,398.08Z"/><path class="cls-74" d="M575.54,382.79l2.34-1c-1.65-4.6-6.51-11.7-11.68-12.34-1.77-.22-4.32.24-6.45,3.71l2.07,1.58c1.16-1.89,2.5-2.71,4.1-2.51C569.51,372.64,573.87,378.13,575.54,382.79Z"/><path class="cls-75" d="M545.6,463.5l2.51,0c0-3.78-2.45-47.62,4.86-68.32,1.89-5.33,4.92-11.28,7.87-17.84,8.85-19.66,19.61-44.37,17-68.26-1.83-16.68-8.57-21.83-13.91-23.21-7.28-1.89-15.49,2.49-18.59,7.77l2.1,1.53c2.23-3.79,9.18-8.32,15.92-6.58,6.53,1.7,10.68,8.9,12,20.83,2.53,23.05-8.29,47.1-17,66.43-3,6.61-5.79,12.86-7.71,18.31C543.14,415.33,545.61,458.34,545.6,463.5Z"/><path class="cls-74" d="M552.76,463.93c.27-21.58-6.1-49.54-10-74.22-4.11-26.29-8-51.13-4.8-60.17,2.29-6.51,7-10.38,13.39-10.9,7.62-.63,15.94,3.9,19.36,10.53l2.18-1.39a23.17,23.17,0,0,0-21.73-11.94c-7.35.61-12.88,5.11-15.54,12.68-3.45,9.77.31,33.82,4.67,61.67,3.84,24.56,10.19,52.39,9.92,73.7Z"/><path class="cls-75" d="M555.43,464.54l2.51-.23c0-.31-4.25-32.16-.87-52.29.66-3.89,1.45-8,2.22-12,3.37-17.43,6.85-35.46.38-43.79-7.32-9.42-18.1-9.24-28.82.47l1.58,2.18c4.59-4.15,16.23-12.54,25.34-.82,5.65,7.28,2.3,24.61-.94,41.37-.77,4-1.57,8.12-2.23,12.05C551.16,432,555.41,464.22,555.43,464.54Z"/><path class="cls-75" d="M554.55,452.56c3-15.05-.79-31.14-6.27-36.71-1.92-2-3.62-2.13-4.7-1.93a10.39,10.39,0,0,0-5.67,3.12c-1.36,1.3-2,1.94-4.41,1.18l-.78,2.38c3.78,1.24,5.45-.34,6.92-1.73a7.88,7.88,0,0,1,4.4-2.48,3.13,3.13,0,0,1,2.44,1.22c4.27,4.33,9.69,19.15,6.59,34.51Z"/><path class="cls-76" d="M510.39,386.11a29.29,29.29,0,0,1,14.35-6.2,10.73,10.73,0,0,0-6.77-3.34c4.95-.95,8,.85,10,3.09a27.48,27.48,0,0,1,7,.77l.82.15c-.89-2.7-3.28-8.29-8.19-10.18,7.17.42,10,6.38,11.06,10.14,3.46-.58,6.75-3,9.08-6.13-1.77-2.43-7.15-8.82-14.89-8.64,9.91-2.32,14.39,3.07,16.2,6.6,4.06-7.3,3-17-10.81-18.49,1.91-9-9.23-17.05-18-12.41,2.41,2.17,5.18,6.72,3.77,15.78-.6-11.54-6.68-13.16-6.68-13.16a2,2,0,0,1-.45-.06,16,16,0,0,0-1.93,2.42,26.27,26.27,0,0,0-2.88,6.06c3.37.76,7.38,3.69,8,13.11-1.64-7.32-6.56-9.39-8.9-10a60.55,60.55,0,0,0-1.51,10.67c1.85,1.66,3.44,4.44,4,9a12,12,0,0,0-4.09-6A104.69,104.69,0,0,0,510.39,386.11Z"/><path class="cls-77" d="M558.9,342.81c4.6-6.86,9.94-7.93,15.46-7.29-8.58.68-10.37,11.4-11.12,13.42,2.79,2.59,12.67,3.65,14.62,3.73.8-1.84,2.35-5.58,6.6-6.4a8.9,8.9,0,0,0-2.94,6.67,76,76,0,0,1,15.74,6.38s2.59-12.91,1.37-25.29c-2.87-2.33-5.84-2.64-11.41.46,1-3,5.41-7.84,10-8.25a27.45,27.45,0,0,0-2.79-6.77c-8.08-13.51-25.49-4.85-23.62,6.24C557.49,326.48,555.65,335.45,558.9,342.81Z"/><path class="cls-76" d="M550.31,407.47h0a33.51,33.51,0,0,0,3.93,7.89c.67-1.31,2.94-4.63,8.57-3.67-2.52,1.3-3.68,7.49-4,9.45C565.5,428.26,575.24,434,586.6,434c-1.45-4.59-1.51-9.88-.83-15.21-2.8-.38-4.1-2.58-6.46-7.13,2.89,3.12,5.14,3,6.94,3.72.65-3.48,1.7-7.5,2.65-10.68,2.77-9.25-9.22-24.16-18.44-10.8-5.53-5.14-17.52-5.14-20.75,5.15a9.78,9.78,0,0,0-.39,3.24c2.83-1.66,9.74-4.47,15.53,1.14C561.07,402.48,553.61,402.29,550.31,407.47Z"/><path class="cls-76" d="M510.63,326.05c11,6.32,23.89,7.23,33.69,5.26.69-3.89.5-10.8-1.36-14.49,6,1.92,8.16,8.87,8.85,12.22,7.38-3.59,12.52-9.6,13.46-17.08,1.56-12.49-10.76-19.6-18.9-17.59-2.51-15.54-15.71-13.14-21.51-5.75,3.19.75,7.67,3.54,6.94,12.57-1.89-5.94-5.81-8.56-8.83-9.23a18,18,0,0,0-.73,2.58,105.21,105.21,0,0,1-3.33,15.82c2.45.53,6.81,1.28,8.52,4.55a13.28,13.28,0,0,0-9.92-.47A34.49,34.49,0,0,1,510.63,326.05Z"/><path class="cls-76" d="M534.11,420.09c3.47,2.35,5.65,9.49,1.31,13.28s-19.17-1.6-23.45-15.59c4.69.05,9.69-3.38,13.61-6.71S538.83,412.17,534.11,420.09Z"/><polygon class="cls-78" points="571.56 474.12 568.57 497.32 534.37 497.32 531.14 474.12 571.56 474.12"/><polygon class="cls-79" points="534.37 497.32 568.57 497.32 568.3 499.42 566.99 509.56 536.07 509.56 534.66 499.42 534.37 497.32"/><polygon class="cls-80" points="572.94 463.48 571.83 472.01 571.56 474.12 531.14 474.12 530.85 472.01 529.67 463.48 572.94 463.48"/><path class="cls-77" d="M544.42,441.75c3.46,0,7.89,3.69,6.24,8.09s-14.59,7.47-23.28.22c3.44-2,5.71-6.5,7.24-10.42S544.7,434.48,544.42,441.75Z"/><polygon class="cls-81" points="571.83 472.01 571.56 474.12 531.14 474.12 530.85 472.01 571.83 472.01"/><polygon class="cls-81" points="568.57 497.32 568.3 499.42 534.66 499.42 534.37 497.32 568.57 497.32"/><path class="cls-73" d="M956.69,431.53c3,4,29.5-2.62,29.5-2.62l-3.71,9.95c-8.61,2.68-19.35,4.74-19.35,4.74l-5.08,2c-2.94,1.77-7.15,1.12-7.43-4s-7.29-12.27-6.64-16.87,1.17-7,1.17-7l.09,0a2.75,2.75,0,0,1,3.28,1.62l.93,2.31S952.56,426,956.69,431.53Z"/><path class="cls-82" d="M1113.53,428l-49.07-28.41s-29.91-21-37.46-18.49-50.67,57-50.67,57,11.33-.54,12.17-.54c.65,0,29-18.49,31.94-21.61l7.13-11.31s36.27,36.84,58.48,39.31C1113.7,447,1113.53,428,1113.53,428Z"/><path class="cls-83" d="M1116.1,418.51s1-7.68-12.43-4.7c-6.48,1.43-70,2.55-70,2.55l-68.53,15.91-.15,12s44.74-2.56,52-3.36,18.16-5.85,18.16-5.85l55.51,10.6c12.81,1.46,29.62-9.78,29-23.49h0Z"/><path class="cls-82" d="M1089.86,322.81c3.44-6.52,6.92-13.05,14.54-15.81,6.17-2.24,12.25-.63,17.14,3.8,13.86,12.55,3.89,20.91,17.26,44.67,12.35,21.95,8.2,38.73-.7,43.14-42.59,21.11-59.08-31.72-57.26-43.29C1082.19,346.71,1087.65,327,1089.86,322.81Z"/><polygon class="cls-73" points="1083.42 377.71 1078.85 388.39 1086.06 388.83 1087.26 377.94 1083.42 377.71"/><path class="cls-84" d="M1089.47,366.57c7.24-12.14,11.84-10.5,11.84-10.5L1090.78,384c-2.45-1.33-4.92-5-7.36-6.31C1085.24,373.77,1087.69,369.56,1089.47,366.57Z"/><path class="cls-85" d="M1120.61,425.92c-.15-3.33,12.75-61.28,8.47-66.54s-12.41-5.58-12.41-5.58-14.57.94-16.35,2.65-9.83,19.72-10.94,24.21c-.66,2.68-6,19.59-6.77,34.15Z"/><path class="cls-73" d="M1113.75,338.12l.11.93c.35,2.81,1.78,12.15,3,14.77,1.44,3.16-6.33,12.49-13.17,10.88-2-.48,2.28-8.87,2.15-9.79-.24-1.77-.57-4.19-.91-6.66-.19-1.4-.38-2.81-.57-4.14-.51-3.78-.93-6.87-.93-6.87Z"/><path class="cls-8" d="M1113.86,339.05l-.11-.93-10.35-.88s.42,3.09.93,6.87c.18,1.32.38,2.73.57,4.12a9.75,9.75,0,0,0,5.09-2.18,13,13,0,0,0,4.08-5.33C1114,340.05,1113.91,339.49,1113.86,339.05Z"/><path class="cls-73" d="M1109,313.12a12.23,12.23,0,0,1,7,5c2.82,4.13,5.39,16.55-2.62,22.73S1098.33,339,1097.7,331,1097.94,312.17,1109,313.12Z"/><path class="cls-73" d="M1095.6,328.9c.36,2,1.54,3.33,2.64,3.07s1.68-2,1.32-4-1.55-3.33-2.64-3.07S1095.24,327,1095.6,328.9Z"/><path class="cls-82" d="M1104.31,312.88s9.24,12,13.87,12.81,4.87,7,4.87,7-.8-14.33-5.26-17.35S1104.31,312.88,1104.31,312.88Z"/><path class="cls-73" d="M1116.49,328.37c-.51,2,.14,4,1.45,4.33s2.77-1,3.27-3.06-.14-4-1.45-4.33S1117,326.33,1116.49,328.37Z"/><path class="cls-39" d="M1102.21,335.24l7.22.4a3.15,3.15,0,0,1-3.49,2.65C1102.06,338.19,1102.21,335.24,1102.21,335.24Z"/><polygon class="cls-86" points="1099.64 378.03 1096.96 376.82 1079.5 380.27 1081.76 382.62 1099.64 378.03"/><polygon class="cls-86" points="1058.8 376.17 1061.29 375.19 1079.5 380.27 1077.64 382.43 1058.8 376.17"/><path class="cls-8" d="M1084,415.45l18.81-2.63a.93.93,0,0,0,.79-1l-2.93-33a1.26,1.26,0,0,0-1.37-1.13l-18.42,2.58Z"/><path class="cls-8" d="M1081.23,415.32l-19.43-4.38a1.28,1.28,0,0,1-1-1.1l-2.93-33a.94.94,0,0,1,1.19-1l19,4.29Z"/><path class="cls-10" d="M1081.65,415.75l2,.09a.33.33,0,0,0,.35-.37l-3.12-35.21a.45.45,0,0,0-.42-.4l-2-.09a.32.32,0,0,0-.35.37l3.11,35.2A.46.46,0,0,0,1081.65,415.75Z"/><g class="cls-87"><path class="cls-7" d="M1093.3,394.08l-1.72-2.79,1.15-2.69a.48.48,0,0,0-.51-.63l-3,.43-2.38-2.28a.39.39,0,0,0-.7.21l-.12,3.05-2.62,1.29a.44.44,0,0,0,.08.77l2.9,1.45.76,3.08a.46.46,0,0,0,.75.25l1.92-2.15,3.09.61A.38.38,0,0,0,1093.3,394.08Z"/><path class="cls-7" d="M1093.39,406l-.91-1.48.6-1.43a.26.26,0,0,0-.27-.34l-1.58.23-1.26-1.21c-.15-.13-.36-.07-.37.12l-.07,1.62-1.39.68a.23.23,0,0,0,0,.4l1.54.77.4,1.64a.25.25,0,0,0,.4.13l1-1.14,1.63.33A.21.21,0,0,0,1093.39,406Z"/><path class="cls-7" d="M1076.56,404.84l-1.19-1.92.79-1.87a.34.34,0,0,0-.35-.44l-2.06.3-1.65-1.57c-.19-.18-.47-.1-.48.14l-.08,2.11-1.82.89a.3.3,0,0,0,.06.53l2,1,.53,2.13a.31.31,0,0,0,.51.17l1.33-1.49,2.13.43A.27.27,0,0,0,1076.56,404.84Z"/><path class="cls-7" d="M1068.71,391.85l-.79-1.29.53-1.25a.22.22,0,0,0-.24-.29l-1.37.2-1.1-1.05a.19.19,0,0,0-.33.1l-.05,1.41-1.21.59a.2.2,0,0,0,0,.36l1.35.67.35,1.42a.21.21,0,0,0,.34.12l.89-1,1.43.29A.18.18,0,0,0,1068.71,391.85Z"/><path class="cls-7" d="M1059.08,375.78l5.15,1.17-.64,1.51,1.9,3.08a.42.42,0,0,1-.42.67l-3.42-.68-2.12,2.38a.51.51,0,0,1-.83-.28l-.31-1.28-.5-5.56A.94.94,0,0,1,1059.08,375.78Z"/><path class="cls-7" d="M1060.42,405.31l.11.1,3-.43a.48.48,0,0,1,.51.63l-1.15,2.7,1.72,2.78a.42.42,0,0,1,0,.48l-2.79-.63a1.28,1.28,0,0,1-1-1.1Z"/><path class="cls-7" d="M1098,412.12l2.62-1.29.12-3.05c0-.35.42-.47.7-.21l2,1.9.21,2.32a.93.93,0,0,1-.79,1l-3.83.53-.93-.47A.43.43,0,0,1,1098,412.12Z"/><path class="cls-7" d="M1096.85,384.5l2.41-1.18.11-2.8a.36.36,0,0,1,.64-.2l.87.83.69,7.79-.59.66a.41.41,0,0,1-.68-.24l-.7-2.82-2.67-1.34A.39.39,0,0,1,1096.85,384.5Z"/></g><path class="cls-88" d="M1085.5,403.34a27.14,27.14,0,0,0-3-4.63,6.19,6.19,0,0,0-2.25-1.51s-1.9-.72-2.19-.32a1,1,0,0,0,.15,1.29c.29.26,1.08.46,1.37.72a3,3,0,0,1,.24,2c-.13.44-5.64-1.87-5.64-1.87s-1.55-.74-2-1-1.63-1.08-1.63-1.08-1.78-1.09-2.09-.5c-.18.34,1.14,1.76,2.62,2.9s3.39,2.21,3.31,2.4c-.18.45-3.23-.75-3.23-.75a10.2,10.2,0,0,0-2-1.09c-.71-.69-2.17-1.45-2.49-.71a13.7,13.7,0,0,0,1.63,1.75s1.26.82,1.85,1.24a39.07,39.07,0,0,0,3.52,1.82c.61.38.3.46.31.54a16.8,16.8,0,0,1-2.08-.8,13.31,13.31,0,0,1-2-.79,15.5,15.5,0,0,0-2.09-1c-1.58-.61-1.69.51-.31,1.33.53.31,1.1.65,1.69,1,2.27,1.32,4.6,2,4.55,2.29s-4.24-1.16-4.24-1.16-2.49-.16-.45,1a19.52,19.52,0,0,0,4.54,2,18.38,18.38,0,0,0,5,1.37c1.67.07,4.07.11,5.22.13Z"/><path class="cls-73" d="M1127.62,388.51l-11.52-.17s-.94,9.68-1.27,10.77c0,0-20.9,3.68-29.33,4.23l-1.89,6.54c1.64-.06,3-.24,3.79-.24,1.58,0,26.65.45,26.65.45s10-.26,10.87-1.88S1127.62,388.51,1127.62,388.51Z"/><path class="cls-84" d="M1128.76,395.67s5.81-23.94,4.9-30.23-8.4-12-13.52-9.62-5.74,36.55-5.74,36.55Z"/><path class="cls-89" d="M659.34,330.38c.08-.21,1.15-2.07,2.17-2.41s1.47,1.25,1.78,3.1"/><path class="cls-89" d="M667.61,331.13c0-.21.5-2.77,1.44-2.95s1.65,1,2.21,2.68"/><path class="cls-90" d="M1108,327.73c0-.08,1-2.34,2.17-2.66s2.2,1.32,2.22,2.75"/><path class="cls-90" d="M1100.23,327.88c0-.09.18-2.44,1.39-2.9s2.16,1.23,2.54,2.64"/><path class="cls-91" d="M467.4,347.93s-6.73,0-12.6,6.33c-4.32,4.69.19,9.2-2.67,14.79-5.36,10.49-1.45,12.8,11.49,11.42S467.4,347.93,467.4,347.93Z"/><path class="cls-91" d="M454.92,358s2.07-5,9.15-7.8,11.07.95,13,2.77c2.28,2.2,4.5,20.16-4.89,20.86S454.92,358,454.92,358Z"/><path class="cls-31" d="M456.08,399.4a23.68,23.68,0,0,0,8.26,3.52c12.73,2.94,17.61-7.82,19.44-15.21a11,11,0,0,0-4.31-1.32c-.92-.11-1.89-.18-2.69-.22-1.43-1.1-3.56-5.58-4-12.53l-.6.16-10,2.74s.46,3.19.69,6.21c.17,2.35.2,4.61-.25,5.16l-1.25.28h0A64,64,0,0,0,456.08,399.4Z"/><path class="cls-44" d="M462.11,376.54s.47,3.19.69,6.21c5.68-.57,8.32-6,9.35-8.95Z"/><path class="cls-31" d="M460.42,379.54s13.49-.75,12.9-9.14.74-14.15-7.89-14-10.09,3.44-10.57,6.29S456.89,379.52,460.42,379.54Z"/><path class="cls-91" d="M454.92,358c1.91-2.67,3.52-2.23,4.46-1.54a9.45,9.45,0,0,1,12.25,1.07,16.07,16.07,0,0,0,5.92,9.1s-2.39,1.91-8.11.64a14.3,14.3,0,0,1-10.18-8.94,8.47,8.47,0,0,0-2.53,3,13.43,13.43,0,0,0-1.49,6.63S452.07,362,454.92,358Z"/><path class="cls-39" d="M457.89,374.71s1.28-.5,4.87-.21c0,0-.19,1.4-2.84,1.54A2.13,2.13,0,0,1,457.89,374.71Z"/><path class="cls-91" d="M467.4,347.93s7.25-.75,11.63,4.18,5.7,11.79,8.87,15.29,2.42,5.83,0,8.64c-4.12,4.79-14.68,6.28-16.36,3.5s3.42-9.71-2.1-12.3-7.33-14-7.33-14Z"/><path class="cls-44" d="M452.9,391s-20.86,17.6-20.59,18.57a4.73,4.73,0,0,0,6.77,2.81c4.49-2,17.37-10.74,17.05-11.17S452.9,391,452.9,391Z"/><path d="M454.55,402.41c-.73,6.51.8,4.71,7.54,19.72,5.7,12.7-.77,24.12-.77,24.12s18.15,15,28.66,19a13,13,0,0,0,4,.94,3.15,3.15,0,0,0,2.46-.81,6.25,6.25,0,0,0,.7-.9c5.9-9.11,7.83-52.08-3.77-73-1.6-2.89-5.3-5.06-7.07-5.83h0a20.52,20.52,0,0,0-3.32-1.09,27.61,27.61,0,0,0-5.54-.72h0c-.61,0-1.21,0-1.8,0-1.92,1.23-9.2,5.9-12.19,5.32l-.17,0c-1.41-.36-1.94-1.35-.76-2.2a14.29,14.29,0,0,0-7.7,1.16c-4.28,2-8.66,7-8.66,7S450.27,400.61,454.55,402.41Z"/><path class="cls-92" d="M490,465.23c.7,1.56,1.12,2.48,1.12,2.48s1.1-.57,2.89-1.54l3.16-1.71c5.9-9.11,7.83-52.08-3.77-73-1.6-2.89-5.3-5.06-7.07-5.83h0a20.52,20.52,0,0,0-3.32-1.09,27.61,27.61,0,0,0-5.54-.72c.19.07,6.18,2.31,7.83,5.17s1.78,15.62,2.17,19.14-1.29,4.86-2.7,9.62-8.27,5.12-9.51,8.9C474.2,429.84,486.19,456.84,490,465.23Z"/><path class="cls-93" d="M452.19,403.42s2.64-4.09,3.26-5.15.52-.63.6,1.13,1.22,4,.09,6S452.19,403.42,452.19,403.42Z"/><path class="cls-94" d="M459.66,476.58a6.2,6.2,0,0,1-4.49-2.73c-.16-.24-.34-.5-.52-.78-3.82-5.78-5.3-23.48-13.89-42.34-2.09-4.6-9.6-5.42-11.65-10.61,0,0-5-16.82,9.64-17.32s39.34,46.81,39.73,51.77S488.19,479.8,459.66,476.58Z"/><path class="cls-36" d="M401.28,476.2h20.91s.78-3.34-.59-5.61c-1.22-2-.75-3.15.15-4.81a8.08,8.08,0,0,1-3.52.66,7.31,7.31,0,0,1-3.11-1.09,76.07,76.07,0,0,1-6,6.26C407.79,472.59,401.7,472.24,401.28,476.2Z"/><path class="cls-94" d="M420.88,468.71c1.32-.34,3.52-2.45,4.53-3.36,7-6.34,21.33-24.31,21.33-38.71,0-7,.13-20.44-5-23.85-1.76-1.17-5.48-.68-8.52.62-2.41,1-4.39,2.59-4.61,4.25-1,7.42-4.24,27.42-9.8,42.7a65.65,65.65,0,0,1-5.05,11.06C411,466.1,420.83,468.73,420.88,468.71Z"/><path class="cls-95" d="M472.12,476.2s-.77-1.08-2.12-3.13c-1.61-2.43-3.39-7.23-5.55-13.37-2.27-6.45-5-14.38-8.32-22.63-1-2.55-2.14-5.13-3.31-7.71-2.09-4.59-7.85-3.95-9.89-9.14,0,0-8-18,6.69-18.49s43.83,43.92,45.44,48.63C496.81,455.51,504.14,481.14,472.12,476.2Z"/><path class="cls-50" d="M416.63,476.2h20.9s.78-3.34-.59-5.61c-1.21-2-.75-3.15.15-4.81a8,8,0,0,1-3.52.66,7.4,7.4,0,0,1-3.11-1.09,75.93,75.93,0,0,1-5.95,6.26C423.14,472.59,417.05,472.24,416.63,476.2Z"/><path class="cls-39" d="M431.59,466.81a19.55,19.55,0,0,0,4.64,1.9c1.32-.34,3.51-2.45,4.53-3.36,7-6.34,21.33-24.31,21.33-38.71,0-7-8.24-19.87-13.35-23.28a5,5,0,0,0-2.56-.85,5.19,5.19,0,0,0-5.35,4.48c-1.26,9.44-3,39.89-11.7,54.43C427.74,463.75,429.49,465.58,431.59,466.81Z"/><path class="cls-95" d="M431.59,466.81a19.55,19.55,0,0,0,4.64,1.9c1.32-.34,3.51-2.45,4.53-3.36,7-6.34,21.33-24.31,21.33-38.71,0-7-8.24-19.87-13.35-23.28a5,5,0,0,0-2.56-.85c.23.13,2.83,1.75,2.49,7.81-.35,6.33-8.9,48.1-13.55,51.57A9.19,9.19,0,0,0,431.59,466.81Z"/><path class="cls-31" d="M444.22,427.65s-4.12-.1-5.55-1.63-1.12-7.18,0-8.31,2.7,3.52,3.93,4.22-1.52-3.25-.53-3.19,2.51,1.79,2.78,2.71.51,2,.51,2Z"/><path class="cls-31" d="M481.4,390s-11.2,26-15,28.19c-2.5,1.45-21,5.3-21,5.3l-1.14,4.2s21.89,2.92,27.22-.63c10.52-7,17.67-26.33,18.86-28.93S488.11,387.43,481.4,390Z"/><path d="M473.31,402.41a22.62,22.62,0,0,0,6,3.59,20.6,20.6,0,0,0,2.22.72,14.51,14.51,0,0,0,1.9.37,12.71,12.71,0,0,0,4.29-.15s8.43-15.84-1.4-19.5a3.43,3.43,0,0,0-.63-.08,6.22,6.22,0,0,0-1.28,0l-.48.07C480.88,388,475.66,390.64,473.31,402.41Z"/><path class="cls-92" d="M479.93,406.22a11.88,11.88,0,0,0,7.81.72s8.43-15.84-1.4-19.5a3.43,3.43,0,0,0-.63-.08,6.22,6.22,0,0,0-1.28,0c-.15,0-2.51-1.52-2.68-1.49.55.48,3.1,2.52,3.74,4.38C488.51,399,479.32,406,479.93,406.22Z"/><path class="cls-39" d="M418.83,450.36c7.07-5,19.59-40.79,18.88-44.4s-4.47-2.55-4.47-2.55h0c-2.41,1-4.39,2.59-4.61,4.25C427.64,415.08,424.39,435.08,418.83,450.36Z"/><path class="cls-31" d="M427.06,417.63s-2.65,1-3.08,3.11a4.15,4.15,0,0,0,1.54,4.49c1.31,1,3.47,2.6,4.17.95a6.33,6.33,0,0,0-.88-5.7A10.44,10.44,0,0,1,427.06,417.63Z"/><path class="cls-45" d="M460.91,368.26c0-.05.72-1.67,1.56-1.79s1.69,1.24,1.75,2.32"/><path class="cls-45" d="M455.65,368.22c0-.07.18-1.77,1-2.06s1.44,1,1.66,2"/><path class="cls-89" d="M202.38,364.22c0-.23.24-2.36,1-3.07s1.85.57,2.86,2.15"/><path class="cls-89" d="M210.06,363.19c0-.21.5-2.78,1.45-2.95s1.64,1,2.2,2.68"/></g></g></svg>