<?xml version="1.0" encoding="utf-8"?>
<!-- Generator: Adobe Illustrator 25.0.0, SVG Export Plug-In . SVG Version: 6.00 Build 0)  -->
<svg version="1.1" id="Layer_1" xmlns="http://www.w3.org/2000/svg" xmlns:xlink="http://www.w3.org/1999/xlink" x="0px" y="0px"
	 viewBox="0 0 388.9 139.8" style="enable-background:new 0 0 388.9 139.8;" xml:space="preserve">
<style type="text/css">
	.st0{fill:#F5F5F5;}
	.st1{fill:#E0E0E0;}
	.st2{fill:#F0F0F0;}
	.st3{opacity:0.2;enable-background:new    ;}
	.st4{fill:#E6E6E6;}
	.st5{fill:#EBEBEB;}
	.st6{fill:#FFFFFF;}
	.st7{fill:#787878;}
	.st8{fill:#CFCFCF;}
	.st9{fill:#B67C52;}
	.st10{fill:#DF9960;}
	.st11{fill:#B16F47;}
	.st12{fill:#DC803A;}
	.st13{fill:#D8E9FF;}
	.st14{fill:#C5E0FF;}
	.st15{fill:#73B471;}
	.st16{fill:#9BD399;}
	.st17{fill:#B6947E;}
	.st18{fill:#B68766;}
	.st19{fill:#37474F;}
	.st20{fill:#455A64;}
	.st21{fill:#263238;}
	.st22{fill:#3F8C59;}
	.st23{opacity:0.3;enable-background:new    ;}
	.st24{opacity:0.1;fill:#FFFFFF;enable-background:new    ;}
	.st25{opacity:0.2;fill:#FFFFFF;enable-background:new    ;}
	.st26{opacity:0.4;fill:#FFFFFF;enable-background:new    ;}
	.st27{opacity:0.3;fill:#FFFFFF;enable-background:new    ;}
	.st28{opacity:0.7;}
	.st29{opacity:0.5;}
	.st30{opacity:0.5;fill:#FFFFFF;enable-background:new    ;}
	.st31{opacity:0.2;}
	.st32{opacity:0.6;}
	.st33{opacity:0.1;enable-background:new    ;}
	.st34{opacity:0.6;fill:#FFFFFF;enable-background:new    ;}
	.st35{opacity:0.8;}
	.st36{display:none;fill:#FFFFFF;}
	.st37{enable-background:new    ;}
	.st38{clip-path:url(#SVGID_2_);}
	.st39{fill:#BF8E8D;}
	.st40{fill:#AB6F68;}
	.st41{fill:#B48680;}
	.st42{fill:#617E8C;}
	.st43{fill:#DC8177;}
	.st44{fill:#9B5952;}
	.st45{fill:#FFAE73;}
	.st46{fill:#EBBD9C;}
	.st47{fill:#1C3C6A;}
	.st48{fill:#4B7FA4;}
	.st49{fill:#32759C;}
	.st50{fill:#F0AC79;}
	.st51{fill:#EED7C5;}
	.st52{fill:#D28350;}
	.st53{fill:#293458;}
	.st54{opacity:0.69;fill:#42210B;}
	.st55{fill:#2D3554;}
	.st56{clip-path:url(#SVGID_4_);}
	.st57{clip-path:url(#SVGID_6_);}
</style>
<g id="freepik--Floor--inject-17">
	<path class="st0" d="M49.3,119.8c31.1-4.4,81.2-4.2,112,0.4c30.8,4.6,30.6,12-0.5,16.4s-81.2,4.2-112-0.4S18.3,124.2,49.3,119.8z"
		/>
</g>
<g id="freepik--Floor--inject-17_1_">
	<path class="st0" d="M238.9,120c31.1-4.3,81.2-4.1,112,0.4c30.8,4.5,30.6,11.6-0.5,15.9s-81.2,4.1-112-0.4
		C207.6,131.4,207.8,124.3,238.9,120z"/>
</g>
<g id="freepik--Shadows--inject-17">
	<path class="st1" d="M88.1,123.2c7.2-2.6,18.9-2.6,26,0.1s7.1,6.9-0.1,9.6c-7.2,2.6-18.9,2.6-26-0.1
		C80.8,130.1,80.9,125.8,88.1,123.2z"/>
</g>
<g id="freepik--Shadows--inject-17_1_">
	<path class="st1" d="M284.2,122.8c9-2.6,23.6-2.6,32.5,0.1c8.9,2.7,8.9,7-0.1,9.6c-9,2.6-23.6,2.6-32.5-0.1
		S275.2,125.4,284.2,122.8z"/>
</g>
<g id="freepik--Window--inject-17">
	<polygon class="st1" points="48.1,40 45.4,68.4 43.8,69 46.4,40.7 	"/>
	<polygon class="st2" points="46.4,40.7 46.4,40.7 43.8,69 42.4,68.1 44.9,41.2 	"/>
	<rect x="47.2" y="39.4" class="st1" width="0" height="1.8"/>
	<polygon class="st3" points="46.3,41.8 46.4,40.7 48.1,40 48,41.2 46.3,41.8 	"/>
	<polygon class="st3" points="46.3,41.8 45.2,41.1 46.4,40.7 46.4,40.7 	"/>
	<rect x="47.2" y="39.4" class="st1" width="0" height="1.8"/>
	<polygon class="st2" points="68.3,32.1 67,31.2 64.3,59.6 65.6,60.5 	"/>
	<polygon class="st0" points="65.6,60.5 64.3,59.6 22.2,76 23.6,76.9 	"/>
	<path class="st1" d="M70.1,29.8L24.7,47.6l-2.9,31.7l45.4-17.8L70.1,29.8z M23.6,76.9l2.6-28.3l42.1-16.5l-2.6,28.4L23.6,76.9"/>
	<polygon class="st0" points="70.1,29.8 68.8,28.9 23.4,46.7 24.7,47.6 	"/>
	<polygon class="st2" points="24.7,47.6 23.4,46.7 20.4,78.4 21.7,79.2 	"/>
</g>
<path class="st1" d="M71.1,112.4c-3.4,1.2-3.4,3.2-0.1,4.5c3.3,1.2,8.8,1.3,12.2,0c3.4-1.2,3.4-3.2,0.1-4.5
	C80,111.2,74.5,111.2,71.1,112.4z"/>
<g id="freepik--Table--inject-17">
	<path class="st4" d="M75.5,88.1l1.6,0c0,6.4-0.4,27.5-0.4,27.5l0,0c0,0.1-0.1,0.2-0.2,0.2c-0.2,0.1-0.5,0.1-0.8,0
		c-0.1,0-0.1-0.1-0.2-0.2l0,0C75.7,115.6,75.5,94.5,75.5,88.1z"/>
	<path class="st4" d="M78.7,85.2l1.6,0c1.3,6.6,2.1,27.5,2.1,27.5l0,0c0,0.1-0.1,0.2-0.2,0.2c-0.2,0.1-0.5,0.1-0.8,0
		c-0.1,0-0.1-0.1-0.2-0.2l0,0C81.3,112.7,79.9,91.8,78.7,85.2z"/>
	<path class="st4" d="M74,85.2l-1.6,0c-1.4,6.6-2.3,27.5-2.3,27.5l0,0c0,0.1,0.1,0.2,0.2,0.2c0.2,0.1,0.5,0.1,0.8,0
		c0.1,0,0.1-0.1,0.2-0.2l0,0C71.2,112.7,72.7,91.7,74,85.2z"/>
	<path class="st2" d="M68,85l0.2,0c0.3-0.9,1.1-1.7,2.3-2.4c3.3-1.8,8.6-1.8,11.8,0c1.2,0.7,2,1.5,2.3,2.4l0.2,0l0,0.9l0,0
		c0,1.2-0.8,2.4-2.5,3.3c-3.3,1.8-8.6,1.8-11.8,0c-1.6-0.9-2.4-2.1-2.4-3.3l0,0L68,85z"/>
	<path class="st0" d="M70.5,81.7c-3.3,1.8-3.3,4.7-0.1,6.6c3.2,1.8,8.5,1.8,11.8,0c3.3-1.8,3.3-4.7,0.1-6.6
		C79,79.9,73.7,79.9,70.5,81.7z"/>
	<path class="st5" d="M72.3,79l8.2,0c0,2.6-1.3,4.8-1.7,5.4c0,0,0,0.1,0,0.1l0,0l0,0c-0.2,0.2-0.3,0.4-0.6,0.5
		c-1.1,0.6-2.5,0.5-3.6,0c-0.3-0.1-0.5-0.4-0.7-0.6C73.5,83.8,72.3,81.6,72.3,79z"/>
	<path class="st0" d="M73.5,77.4c-1.6,0.9-1.6,2.3,0,3.2c1.6,0.9,4.2,0.9,5.8,0c1.6-0.9,1.6-2.3,0-3.2
		C77.7,76.5,75.1,76.5,73.5,77.4z"/>
	<path class="st1" d="M76.8,78c0-1.7,0.4-3.3,1.2-4.9c0.3-0.5,0.5-1,0.6-1.5c0-0.5-0.3-1.1-0.8-1.2c-0.4-0.1-0.9,0.1-1.1,0.5
		c-0.2,0.4-0.4,0.8-0.4,1.2c-0.4,1.8-0.8,3.7-0.5,5.5c0,0.2,0.1,0.4,0.1,0.6c0.1,0.2,0.3,0.3,0.5,0.4c0.1,0,0.3,0,0.4-0.1
		C76.8,78.4,76.8,78.2,76.8,78z"/>
	<path class="st6" d="M76.4,78.2L76.4,78.2C76.4,78.2,76.4,78.1,76.4,78.2C76.4,78.1,76.4,78.1,76.4,78.2c-0.1-2.4,0.3-4.8,1.3-7
		c0,0,0-0.1,0-0.1c0,0-0.1,0-0.1,0c0,0,0,0,0,0C76.5,73.3,76.1,75.7,76.4,78.2C76.3,78.2,76.3,78.2,76.4,78.2z"/>
	<path class="st5" d="M80.8,75.3c0.4-0.2,0.8-0.4,0.9-0.8c0.1-0.4-0.1-0.7-0.4-0.9c-0.3-0.2-0.7-0.2-1.1-0.1c-0.4,0.1-0.7,0.3-1,0.5
		c-0.5,0.4-1,0.8-1.4,1.3c-0.5,0.6-0.9,1.2-1.1,1.9c-0.2,0.4-0.3,0.9-0.4,1.4c-0.1,0.4-0.2,1,0.2,1.2c0.2,0.1,0.4,0.1,0.6,0
		c0.2-0.1,0.3-0.3,0.4-0.4c0.1-0.2,0.2-0.4,0.2-0.6c0.3-0.7,0.7-1.4,1.3-2C79.5,76.2,80.1,75.7,80.8,75.3z"/>
	<path class="st6" d="M76.7,79.2L76.7,79.2C76.7,79.2,76.7,79.2,76.7,79.2c0.6-2.3,2.2-4.2,4.3-5.3c0,0,0.1-0.1,0-0.1
		s-0.1-0.1-0.1,0l0,0C78.7,74.9,77.1,76.8,76.7,79.2C76.6,79.2,76.6,79.2,76.7,79.2z"/>
	<path class="st5" d="M72.8,74.5c-0.3-0.3-0.6-0.6-0.6-1c0-0.4,0.3-0.7,0.7-0.8c0.4-0.1,0.8-0.1,1.1,0.1c0.3,0.2,0.6,0.4,0.8,0.7
		c0.4,0.5,0.7,1,1,1.6c0.3,0.7,0.5,1.4,0.6,2.1c0.1,0.5,0.1,1,0,1.4c0,0.4-0.1,1-0.5,1.1c-0.2,0.1-0.4,0-0.6-0.2
		c-0.1-0.1-0.2-0.3-0.3-0.5c0-0.2-0.1-0.4-0.1-0.6c-0.1-0.8-0.3-1.5-0.7-2.2C73.8,75.6,73.3,75,72.8,74.5z"/>
	<path class="st6" d="M75.7,79.3L75.7,79.3C75.7,79.3,75.7,79.3,75.7,79.3C75.7,79.2,75.7,79.2,75.7,79.3c0-2.4-1-4.6-2.8-6.2
		c0,0,0-0.1,0-0.1c0,0,0.1,0,0.1,0C74.9,74.6,75.9,76.9,75.7,79.3C75.8,79.3,75.8,79.3,75.7,79.3C75.7,79.3,75.7,79.3,75.7,79.3z"/>
</g>
<path class="st1" d="M58.3,130l16.7-6c0.4-0.1,0.5-0.4,0.3-0.6c-0.1-0.1-0.2-0.1-0.3-0.2l-14.7-5.5c-0.2-0.1-0.5-0.1-0.7,0
	l-17.1,6.2c-0.4,0.1-0.5,0.4-0.3,0.6c0.1,0.1,0.2,0.1,0.3,0.2l14.3,5.3C57.2,130.2,57.8,130.2,58.3,130z"/>
<g id="freepik--side-table--inject-17">
	<polygon class="st4" points="72.7,122.9 74.2,123.6 74.2,122.3 	"/>
	<polygon class="st7" points="74.1,116.3 74.1,116.3 74.1,116.3 74.1,116.3 	"/>
	<rect x="67" y="113.3" class="st8" width="0" height="12"/>
	<polygon class="st8" points="74.2,110.3 59.9,116.3 59.9,116.3 	"/>
	<path class="st5" d="M72.7,122.9l-12.8,5.4l0,1.2l-1.5,0.6l0-14.5l17.3-7.2l0,14.5l-1.5,0.6l0-1.2L72.7,122.9z M59.9,121l14.2-6
		l0-4.7l-14.2,6l0,0L59.9,121z M59.9,127l14.2-6l0-4.7l0,0l0,0l-14.2,6l0,0L59.9,127z"/>
	<polygon class="st0" points="74.1,121 74.1,116.3 74.1,116.3 59.9,122.3 59.9,122.3 59.9,127 	"/>
	<polygon class="st0" points="74.1,115 74.2,110.3 59.9,116.3 59.9,116.3 59.9,121 	"/>
	<polygon class="st4" points="58.4,115.6 43.3,109.2 43.3,123.7 58.4,130.2 	"/>
	<polygon class="st0" points="58.4,115.6 75.7,108.4 60.6,101.9 43.3,109.2 	"/>
</g>
<g>
	<path class="st9" d="M256.8,49.9l-7.3-1.5l-7.2-1.4c-0.4-0.1-0.6-0.3-0.7-0.6c-0.3-0.9,0.6-2.6,0.9-3.8l0-0.1
		c0.5-1.6,2.2-2.4,3.7-2l9.4,2.8l0,0l2.8,0.8c1.6,0.5,2.4,2.1,1.9,3.7l0,0.1C260,49.5,258.3,50.3,256.8,49.9z"/>
	<path class="st9" d="M240,21c0.3,0.6,0.2,1.9-0.8,2.8c-5.3,4.4-10.1,4.9-10.3,5c-4.4,2.8-8.5,3.3-8.9,4.7c0,0.1,0,0.1,0.1,0.2
		c1.9,1.1,22.3,3.5,23.3,4.6c1,1.2-20,23.3-20,23.3s-5.2,0.1-11.2-0.2c-3.1-0.2-6.4-0.4-9.3-0.9c-3-0.5-5.7-1.1-7.4-2c0,0,0,0,0,0
		c-0.3-0.1-0.5-0.3-0.7-0.4c0,0-0.1,0-0.1-0.1c-1.7-1.1-3.7-1.8-5.7-2.1c-5.3-0.9-10.8,0.3-10.8,0.3l12.1-21.5c0,0,18.1-8.9,21.8-9
		c5.4-0.2,14.8-3.7,16.9-3.8c1.6-0.1,9.2-1.9,9.8-2C239,19.8,239.6,20.2,240,21z"/>
	<path class="st10" d="M182.6,35.6c0,0,0,0,0.1,0.1l0,0c0.3,0.6,1.5,3.4,2.6,6.9l0,0c0,0.1,0.1,0.3,0.1,0.4c0,0,0,0,0,0
		c0,0.1,0,0.1,0,0.2l0,0c1.2,4.1,1.9,9.1,0.3,12.3l0,0c-0.1,0.2-0.2,0.4-0.3,0.5c-0.3,0.4-0.6,0.8-0.9,1.1c-0.3,0.2-0.5,0.5-0.9,0.7
		c0,0-2.5,1.2-6.3,3.1c-0.2,0.1-0.4,0.2-0.6,0.3c-6.8,3.3-17.2,8.3-24.5,11.8c-0.1-0.2-0.2-0.3-0.3-0.5c-7-12.2-4.1-24.8,3.4-35.8
		c7.5-0.3,14.6-0.6,19.7-0.7c0,0,0,0,0,0c0,0,0,0,0,0c0.3,0,0.6,0,0.9,0l0,0C180,35.7,182.6,35.6,182.6,35.6z"/>
	<path class="st11" d="M192.8,48.4C192.9,48.4,192.9,48.4,192.8,48.4c8.7,9.7,13.9,3.8,13.9,3.8l5.5,9c-3.1-0.2-6.4-0.4-9.3-0.9
		c-3-0.5-5.7-1.1-7.4-2c0,0,0,0,0,0c-0.3-0.2-0.6-0.3-0.7-0.4c0,0-0.1,0-0.1-0.1c-1.7-1.1-3.7-1.8-5.7-2.1c-0.1-1.6-0.1-3.4-0.1-5.1
		C188.6,48.5,191.1,47.2,192.8,48.4z"/>
	<path class="st12" d="M174.9,35.9c0,0-2.7,8.9-2.8,14l3.7,1.9l-3.2,1.7c0,0,2,6.5,4,7.8l8.7-4.5l-0.2-21L174.9,35.9z"/>
	<path class="st13" d="M178,62.1c-1.7-2-2.4-7.9-2.4-7.9l8.2-3.2l-9.3-2.2c-0.4-3.4,0.1-9.3,0.5-12.8c0.2-1.8,0.3-2.9,0.3-2.9
		c8,0.6,15.6,1.4,15.6,1.4c-1.7,2.3-2.2,5.9-2.3,9.5c-0.1,6,1.1,12.1,1.1,12.1C185,58.3,178,62.1,178,62.1z"/>
	<path class="st14" d="M178,62.1c-1.7-2-2.4-7.9-2.4-7.9l8.2-3.2l-9.3-2.2c-0.4-3.4,0.1-9.3,0.5-12.8c4.2,6.4,13.6,7.9,13.6,7.9
		c-0.1,6,1.1,12.1,1.1,12.1C185,58.3,178,62.1,178,62.1z"/>
	<path class="st10" d="M176.9,42.7c0.5-0.3,1.2-0.1,1.4,0.5c0.3,0.5,0,1.1-0.5,1.4c-0.5,0.3-1.2,0.1-1.4-0.5
		C176.2,43.6,176.4,43,176.9,42.7z"/>
	<polygon class="st15" points="200.6,56.4 222.7,75.7 265.5,27.3 243.3,8 	"/>
	<g>
		<polygon class="st16" points="269.8,30.2 222.6,74.4 202.5,53 249.6,8.9 		"/>
		<g>
			<path class="st15" d="M264.5,28.4l-10.1-10.7l0,0l-5-5.3l-0.5,0.5l-8.8,8.3l0,0l-0.1,0.1l-6.6,6.2l-0.8,0.8l0,0l-7.1,6.6
				l-18.6,17.5l0,0l0,0l-0.3,0.3l0,0l0,0l-0.5,0.4l3.6,3.8l4.2,4.5l9.1,9.7l10.2-9.5l0.5-0.4l1.7-1.6l0.4-0.4l0.5-0.5l0.5-0.4
				l0.9-0.8l2.1-2l0.6-0.6l0.8-0.8l0.7-0.7l4.2-4l0,0l0.9-0.8l0.7-0.6l5.9-5.5l5.3-4.9l1.9-1.8l5.9-5.5L264.5,28.4z M262.8,32.2
				l-9.5,8.9l0,0l-1.1,1.1l0,0l-6,5.6l-0.6,0.5l-4.2,3.9l-1.3,1.2l-0.9,0.8l-0.6,0.6l-2,1.9l-0.8,0.8l-0.5,0.5l-0.5,0.4l-0.4,0.4
				l-1.7,1.6l-0.5,0.4l-7.3,6.8c-1.1,1.1-2.9,1-4-0.1l-5.7-6.1l-5.9-6.3c-1.1-1.1-1-2.9,0.1-4L226.7,35l8.1-7.5l2.3-2.1l0,0l2.9-2.7
				l0.1-0.1l0,0l7.3-6.8c1.1-1.1,2.9-1,4,0.1l11.7,12.4c0.3,0.3,0.5,0.8,0.7,1.2C263.8,30.4,263.6,31.4,262.8,32.2z"/>
		</g>
		<path class="st15" d="M241,47c-3.1,2.8-7.7,2.5-10.5-0.5c-2.7-3-2.5-7.7,0.6-10.4c3.1-2.8,7.7-2.5,10.5,0.5
			C244.3,39.6,244,44.3,241,47z"/>
		<g>
			<path class="st15" d="M227,54c-1.1,1-2.9,0.9-3.9-0.2c-1-1.1-0.9-2.8,0.2-3.8c1.1-1,2.9-0.9,3.9,0.2C228.3,51.2,228.2,53,227,54z
				"/>
			<path class="st15" d="M249,33.4c-1.1,1-2.9,0.9-3.9-0.2c-1-1.1-0.9-2.8,0.2-3.8c1.1-1,2.9-0.9,3.9,0.2
				C250.2,30.7,250.1,32.4,249,33.4z"/>
		</g>
	</g>
	<g>
		<g>
			<path class="st9" d="M240.6,61.2l-0.5-0.4l-3.6-2.7c-0.1-0.1-0.2-0.1-0.2-0.2c-1-1-1.2-2.6-0.3-3.8L236,54c1-1.3,2.8-1.5,4-0.6
				l3.4,2.5l0.2,0.2l0.5,0.4c1.3,0.9,1.5,2.7,0.6,4l-0.1,0.1C243.7,61.9,241.8,62.1,240.6,61.2z"/>
			<path class="st17" d="M238.7,58.4c-0.6-0.4-1.7-1.3-2.1-1.8c-0.1-0.1-0.2-0.5-0.1-1c0.1-0.3,0.2-0.6,0.5-1
				c0.1-0.2,0.3-0.3,0.4-0.4c0.2-0.2,0.4-0.3,0.6-0.4c0.2-0.1,0.4-0.1,0.7,0.1c0,0,0,0,0,0c0.7,0.4,1.6,1,2.2,1.6
				c0.5,0.4,0.5,1.1,0.2,1.5l-0.2,0.2l-0.8,1C239.8,58.7,239.2,58.8,238.7,58.4z"/>
			<path class="st18" d="M238.7,58.4c-0.6-0.4-1.7-1.3-2.1-1.8c-0.1-0.1-0.2-0.5-0.1-1c0.1-0.1,0.1-0.1,0.2-0.2
				c0.1-0.2,0.3-0.3,0.4-0.4c0.2-0.2,0.4-0.3,0.6-0.4c0.2-0.1,0.4-0.1,0.7,0.1c0,0,0,0,0,0c0.7,0.4,1.6,1,2.2,1.6
				c0.3,0.3,0.4,0.6,0.4,1l-0.8,1C239.8,58.7,239.2,58.8,238.7,58.4z"/>
		</g>
		<g>
			<path class="st9" d="M234.5,62.8l-2.5-2.2c-0.8-0.7-0.8-1.9-0.1-2.6l0.3-0.3c0.7-0.8,1.9-0.8,2.6-0.1l2.5,2.2
				c0.8,0.7,0.8,1.9,0.1,2.6l-0.3,0.3C236.5,63.4,235.3,63.5,234.5,62.8z"/>
			<path class="st17" d="M233.7,61.2c-0.5-0.4-1.3-1.2-1.6-1.6c-0.1-0.2-0.2-0.6,0.1-1.1c0.1-0.1,0.2-0.3,0.3-0.4
				c0.1-0.1,0.2-0.2,0.4-0.3c0.2-0.1,0.3-0.2,0.5-0.2c0.2,0,0.4,0,0.5,0.1c0,0,0,0,0,0c0.5,0.4,1.2,1,1.7,1.5
				c0.3,0.4,0.4,0.9,0.1,1.2l-0.2,0.2l-0.6,0.7C234.6,61.6,234.1,61.6,233.7,61.2z"/>
			<path class="st18" d="M233.7,61.2c-0.5-0.4-1.3-1.2-1.6-1.6c-0.1-0.2-0.2-0.6,0.1-1.1c0.1-0.1,0.2-0.2,0.3-0.3
				c0.2-0.1,0.3-0.2,0.5-0.2c0.2,0,0.4,0,0.5,0.1c0,0,0,0,0,0c0.5,0.4,1.2,1,1.7,1.5c0.3,0.3,0.4,0.7,0.2,1l-0.6,0.7
				C234.6,61.6,234.1,61.6,233.7,61.2z"/>
		</g>
		<g>
			<path class="st9" d="M245.8,57.8C245.8,57.8,245.8,57.7,245.8,57.8l-3.2-3c-1.4-1.3-1.6-3.5-0.4-4.8l0.6-0.7
				c1.1-1.3,3.2-1.4,4.6-0.2l1.1,1l2.1,2c1.4,1.3,1.6,3.5,0.4,4.8l-0.6,0.7C249.2,58.8,247.2,58.9,245.8,57.8z"/>
			<path class="st17" d="M245.8,55.5l-1.9-1.2c0,0,0,0,0,0c-0.1-0.1-0.1-0.1-0.2-0.2c0,0,0-0.1-0.1-0.1c0,0,0,0,0,0
				c-0.1-0.2,0-0.5,0.2-0.5c0.5-0.1,0.9-0.3,1.3-0.7l0.1-0.1c0,0,0,0,0,0l0.4-0.5c0.3-0.4,0.5-0.8,0.6-1.2c0-0.1,0-0.1,0-0.2
				c0-0.5,0.6-0.8,1-0.4c0,0,0,0,0,0l1.5,1.7c0.4,0.4,0.3,1.1,0,1.5l-0.5,0.5l-1,1.1C246.8,55.7,246.2,55.9,245.8,55.5z"/>
			<path class="st18" d="M245.8,55.5l-1.9-1.2c0,0,0,0,0,0c0,0-0.1-0.1-0.3-0.3c-0.1-0.2,0-0.5,0.2-0.5c0.5-0.1,0.9-0.3,1.3-0.7
				l0.1-0.1c0,0,0,0,0,0l0.4-0.5c0.3-0.4,0.5-0.8,0.6-1.2c0.1,0,0.3,0.1,0.4,0.1c0,0,0,0,0,0l1.5,1.7c0.4,0.3,0.4,0.9,0.1,1.3
				l-1,1.1C246.8,55.7,246.2,55.9,245.8,55.5z"/>
		</g>
	</g>
	<g>
		<path class="st9" d="M213.5,32c0,0-5.3-6.2-1.5-6.4c5.4-0.2,14.8-3.7,16.9-3.8c1.6-0.1,9.2-1.9,9.8-2c0.2,0,1.1,0.5,1.2,1.4
			c0.1,0.7,0.1,2-0.8,3.1c-2.9,4-10.1,4.2-10.3,4.4c-4.4,2.8-8.9,5.1-10.1,6.1C218.5,35.2,213.5,32,213.5,32z"/>
		<path class="st18" d="M239.3,19.7l-5.3,1.2c0,0,0.1,1.1,0.7,1.5C235.1,22.8,239.8,21.2,239.3,19.7z"/>
	</g>
</g>
<g id="freepik--Plant--inject-17">
	<path class="st1" d="M55.5,107.2c2.4-1,6.4-1,8.8,0c2.4,1,2.4,2.7,0,3.7s-6.4,1-8.8,0C53,109.9,53.1,108.2,55.5,107.2z"/>
	<path class="st19" d="M54.8,102.9l4.9,0.1l4.9-0.1c0.2,2.4-0.5,4.9-1.4,6.1l0,0c-0.2,0.3-0.6,0.6-1,0.7c-1.6,0.6-3.6,0.6-5.2,0
		c-0.4-0.2-0.8-0.4-1-0.7C55.2,107.8,54.6,105.3,54.8,102.9z"/>
	<path class="st20" d="M56.3,101.4c-1.9,0.8-1.9,2.1,0,2.9s5,0.8,6.9,0s1.9-2.1,0-2.9S58.2,100.6,56.3,101.4z"/>
	<path class="st21" d="M57,101.8c-1.5,0.6-1.5,1.7,0,2.3c1.7,0.6,3.7,0.6,5.4,0c1.5-0.6,1.5-1.7,0-2.3
		C60.7,101.2,58.7,101.1,57,101.8z"/>
	<path class="st22" d="M60.1,103c-0.8,0.5-1.9,0.7-2.9,0.5c-1-0.2-1.7-0.8-2-1.5c0.6-0.2,1.1-0.5,1.6-0.8c-0.7-0.1-1.5-0.1-2.2,0
		c-0.4-0.5-0.5-1.1-0.2-1.6c0.8-0.3,1.8-0.3,2.7-0.1c-0.7-0.5-1.7-0.7-2.7-0.6c-0.1-1,0.2-2.1,0.7-3c1.8,0.1,3.6,0.7,4.2,1.1
		c0,0.5,0,1-0.2,1.4c0.5-0.2,0.8-0.5,0.9-0.9c1.1,0.2,1.6,0.6,1.8,1c-0.2,0.6-0.5,1.1-1.1,1.6c1.1-0.2,1.5-1.1,1.5-1.1
		C63.2,100.8,63,102.9,60.1,103z"/>
	<path class="st3" d="M60.1,103c-0.8,0.5-1.9,0.7-2.9,0.5c-1-0.2-1.7-0.8-2-1.5c0.6-0.2,1.1-0.5,1.6-0.8c-0.7-0.1-1.5-0.1-2.2,0
		c-0.4-0.5-0.5-1.1-0.2-1.6c0.8-0.3,1.8-0.3,2.7-0.1c-0.7-0.5-1.7-0.7-2.7-0.6c-0.1-1,0.2-2.1,0.7-3c1.8,0.1,3.6,0.7,4.2,1.1
		c0,0.5,0,1-0.2,1.4c0.5-0.2,0.8-0.5,0.9-0.9c1.1,0.2,1.6,0.6,1.8,1c-0.2,0.6-0.5,1.1-1.1,1.6c1.1-0.2,1.5-1.1,1.5-1.1
		C63.2,100.8,63,102.9,60.1,103z"/>
	<path class="st0" d="M60.2,103.2L60.2,103.2C60.3,103.2,60.3,103.2,60.2,103.2C60.3,103.2,60.3,103.2,60.2,103.2
		c-0.1-1.8-1.4-4.6-4.5-6.9c0,0-0.1,0-0.2,0c0,0,0,0.1,0,0.1c3.1,2.3,4.4,5,4.6,6.7C60.1,103.2,60.1,103.2,60.2,103.2
		C60.2,103.2,60.2,103.2,60.2,103.2z"/>
	<path class="st22" d="M59.3,103.9c1.3,0.8,3.2,0.6,4.2-0.3c0.2-0.2,0.4-0.4,0.5-0.6c-0.5-0.2-1-0.4-1.4-0.7
		c0.7-0.1,1.4-0.1,2.1,0.1c0.4-0.4,0.5-0.9,0.3-1.4c-0.8-0.2-1.7-0.3-2.5-0.1c0.7-0.4,1.7-0.6,2.6-0.6c0.2-0.9,0-1.8-0.3-2.7
		c-1.8,0.1-3.5,0.6-4.1,1c-0.1,0.4,0,0.8,0.1,1.3c-0.4-0.2-0.7-0.5-0.7-0.8c-1.1,0.2-1.6,0.6-1.8,0.8c0.1,0.5,0.4,1,0.9,1.4
		c-0.6-0.2-1.1-0.5-1.3-1C56.7,101.9,56.7,103.8,59.3,103.9z"/>
	<path class="st6" d="M59.3,104.1c0.1,0,0.1,0,0.1-0.1c0.3-1.5,1.8-3.9,4.9-5.9c0,0,0-0.1,0-0.1c0,0-0.1,0-0.1,0c0,0,0,0,0,0
		c-3.2,2.1-4.7,4.5-5,6C59.1,104.1,59.2,104.1,59.3,104.1L59.3,104.1z"/>
</g>
<g>
	<path class="st1" d="M115.2,116.7l2.5-1.4l0,0l-0.9-0.6c-0.5-0.3-0.6-1-0.3-1.5c0.1-0.2,0.2-0.3,0.4-0.4l3.2-1.7
		c1-0.5,2.2-0.5,3.1,0.1l30.5,20.2c0.5,0.3,0.6,1,0.3,1.5c-0.1,0.2-0.2,0.3-0.4,0.4l-3.2,1.8c-1,0.5-2.2,0.5-3.1-0.1l-2.9-1.9
		l-2.5,1.4c-0.8,0.4-1.7,0.4-2.5-0.1l-24.2-16.1c-0.4-0.3-0.5-0.8-0.2-1.2C114.9,116.9,115.1,116.8,115.2,116.7z"/>
	<g id="freepik--Device--inject-17">
		<path class="st20" d="M122.7,2.9L122.7,2.9c0.2-1,1.8-2.9,3.3-2.9c0.1,0,0.3,0,0.4,0.1l29.9,22.7c0.9,0.7,1.4,1.9,1.4,3.3
			l-0.3,85.9c0,2.2-1.9,4.3-3.7,3.3l0,0c0,0-0.1,0-0.1-0.1l-29.9-22.7c-0.9-0.7-1.4-1.9-1.4-3.3l0.3-85.9
			C122.6,3.2,122.6,3,122.7,2.9z"/>
		<path class="st22" d="M153.5,35.2c0-0.7-0.3-1.3-0.7-1.7l-27.7-21.1c-0.3-0.3-0.8-0.1-1,0.3c-0.1,0.1-0.1,0.3-0.1,0.5l-0.3,69.3
			c0,0.7,0.3,1.3,0.7,1.7l27.7,21.1c0.3,0.3,0.8,0.1,1-0.4c0.1-0.1,0.1-0.3,0.1-0.5L153.5,35.2z"/>
		<path class="st23" d="M157.7,26.1l-0.3,85.9c0,2.2-1.9,4.3-3.7,3.3l0,0c0.4,0.2,0.8-0.1,0.9-0.6c0-0.1,0-0.2,0-0.3l0.3-85.9
			c0-0.7-0.2-1.5-0.5-2.1l2.9-1.9C157.6,25,157.7,25.6,157.7,26.1z"/>
		<path class="st24" d="M126,0c0.1,0,0.3,0,0.4,0.1l29.9,22.7c0.5,0.4,0.9,1,1.1,1.6l-2.9,1.9c-0.2-0.5-0.6-0.9-1-1.2L123.7,2.5
			c-0.3-0.3-0.8-0.1-1,0.4c0,0,0,0,0,0l0,0C122.9,1.9,124.5,0,126,0z"/>
		<path class="st21" d="M135.1,16.7c-0.2-0.2-0.4,0-0.4,0.3c0,0.4,0.2,0.7,0.4,0.9l5.9,4.5c0.2,0.2,0.4,0,0.4-0.3
			c0-0.4-0.2-0.7-0.4-0.9L135.1,16.7z"/>
		<path class="st21" d="M142.5,22.4c-0.2-0.2-0.4,0-0.4,0.3c0,0.4,0.2,0.7,0.4,0.9c0.2,0.2,0.4,0,0.4-0.3
			C142.8,22.9,142.7,22.6,142.5,22.4z"/>
		<path class="st21" d="M138.7,16.1c-0.4-0.3-0.8-0.1-0.8,0.6c0,0.7,0.3,1.4,0.7,1.7c0.4,0.3,0.8,0.1,0.8-0.6
			C139.5,17.1,139.2,16.5,138.7,16.1z"/>
		<path class="st21" d="M138.4,96.9c-0.9-0.7-1.5-0.1-1.6,1.2c0,1.4,0.6,2.8,1.5,3.6c0.9,0.7,1.6,0.1,1.6-1.2
			C139.9,99,139.3,97.7,138.4,96.9z"/>
	</g>
</g>
<g id="freepik--Screen--inject-17">
	<path class="st22" d="M117.1,17.6L117.1,17.6c0.2-0.9,1.6-2.7,3-2.6c0.1,0,0.3,0,0.4,0.1l27.1,20.6c0.8,0.6,1.3,1.8,1.3,3l-0.3,78
		c0,2-1.7,3.9-3.4,2.9l0,0c0,0-0.1,0-0.1-0.1l-27.1-20.6c-0.8-0.6-1.3-1.8-1.3-3l0.3-77.9C117.1,17.8,117.1,17.7,117.1,17.6z"/>
	<path class="st25" d="M149,38.7l-0.3,78c0,2-1.7,3.9-3.4,2.9l0,0c0.3,0.2,0.7-0.1,0.8-0.5c0-0.1,0-0.2,0-0.3l0.3-77.9
		c0-0.7-0.1-1.3-0.4-1.9l2.7-1.7C148.9,37.7,149,38.2,149,38.7z"/>
	<path class="st26" d="M120.2,15c0.1,0,0.3,0,0.4,0.1l27.1,20.6c0.5,0.3,0.8,0.9,1,1.5l-2.7,1.8c-0.2-0.5-0.5-0.8-0.9-1.1L118,17.2
		c-0.3-0.2-0.7-0.1-0.9,0.3c0,0,0,0,0,0.1l0,0C117.3,16.7,118.7,14.9,120.2,15z"/>
	<path class="st27" d="M117.1,17.6L117.1,17.6c0.2-0.9,1.6-2.7,3-2.6c0.1,0,0.3,0,0.4,0.1l27.1,20.6c0.8,0.6,1.3,1.8,1.3,3l-0.3,78
		c0,2-1.7,3.9-3.4,2.9l0,0c0,0-0.1,0-0.1-0.1l-27.1-20.6c-0.8-0.6-1.3-1.8-1.3-3l0.3-77.9C117.1,17.8,117.1,17.7,117.1,17.6z"/>
	<path class="st22" d="M126.6,26.5c-0.3-0.2-0.5,0-0.5,0.4l0,3.8c0,0.4,0.2,0.8,0.5,1.1l17.6,13.6c0.3,0.2,0.5,0,0.5-0.4l0-3.8
		c0-0.4-0.2-0.8-0.5-1.1L126.6,26.5z"/>
	<g class="st28">
		<path class="st6" d="M126.6,26.5c-0.3-0.2-0.5,0-0.5,0.4l0,3.8c0,0.4,0.2,0.8,0.5,1.1l17.6,13.6c0.3,0.2,0.5,0,0.5-0.4l0-3.8
			c0-0.4-0.2-0.8-0.5-1.1L126.6,26.5z"/>
	</g>
	<g class="st29">
		<path class="st6" d="M119.5,22.5c-0.6-0.5-1.1-0.1-1.1,0.8c0,0.4,0.1,0.7,0.2,1.1l-0.2,0.6l0.5,0.1c0.2,0.3,0.4,0.6,0.6,0.8
			c0.6,0.5,1.1,0.1,1.1-0.8C120.6,24,120.2,23,119.5,22.5z"/>
	</g>
	<g class="st29">
		<path class="st6" d="M123.5,28.2c-0.1-0.1-0.3,0-0.3,0.2c0,0.2,0.1,0.4,0.2,0.6c0.1,0.1,0.3,0,0.3-0.2
			C123.8,28.6,123.7,28.3,123.5,28.2z"/>
		<path class="st6" d="M122.3,27.2c-0.1-0.1-0.3,0-0.3,0.2c0,0.2,0.1,0.4,0.3,0.6c0.1,0.1,0.3,0,0.3-0.2
			C122.5,27.6,122.4,27.4,122.3,27.2z"/>
		<polygon class="st6" points="121.8,24.3 122,26.8 123.9,28.3 124.1,26 		"/>
	</g>
	<path class="st22" d="M144.4,76c0-0.6-0.2-1.2-0.6-1.5L119.4,56c-0.3-0.2-0.7-0.1-0.9,0.3c-0.1,0.1-0.1,0.3-0.1,0.4l-0.1,15.6
		c0,0.6,0.2,1.2,0.6,1.5l24.4,18.6c0.3,0.2,0.7,0.1,0.9-0.3c0.1-0.1,0.1-0.3,0.1-0.4L144.4,76z"/>
	<path class="st30" d="M144.4,76c0-0.6-0.2-1.2-0.6-1.5L119.4,56c-0.3-0.2-0.7-0.1-0.9,0.3c-0.1,0.1-0.1,0.3-0.1,0.4l-0.1,15.6
		c0,0.6,0.2,1.2,0.6,1.5l24.4,18.6c0.3,0.2,0.7,0.1,0.9-0.3c0.1-0.1,0.1-0.3,0.1-0.4L144.4,76z"/>
	<polygon class="st22" points="133.8,68.9 133.7,83.3 143.2,90.6 143.2,76.2 	"/>
	<g class="st31">
		<polygon class="st6" points="133.8,68.9 133.7,83.3 143.2,90.6 143.2,76.2 		"/>
	</g>
	<g class="st32">
		<polygon class="st6" points="127.6,70.1 127.6,71 132.7,75 132.7,74.1 		"/>
		<polygon class="st6" points="121.3,63.7 121.3,64.7 132.7,73.4 132.7,72.5 		"/>
		<polygon class="st6" points="125.6,76.1 125.6,77.1 132.7,82.5 132.7,81.6 		"/>
		<polygon class="st6" points="123.9,73.2 123.9,74.1 132.7,81 132.7,80.1 		"/>
		<polygon class="st6" points="121.4,62.2 121.3,63.1 132.7,71.9 132.7,71 		"/>
		<polygon class="st6" points="126.6,63.7 126.6,65 132.7,69.8 132.8,68.5 		"/>
	</g>
	<path class="st22" d="M144.5,55.2c0-0.6-0.2-1.2-0.6-1.5l-24.4-18.5c-0.3-0.2-0.7-0.1-0.9,0.3c-0.1,0.1-0.1,0.3-0.1,0.4l-0.1,15.6
		c0,0.6,0.2,1.2,0.6,1.5l24.4,18.6c0.3,0.2,0.7,0.1,0.9-0.3c0.1-0.1,0.1-0.3,0.1-0.4L144.5,55.2z"/>
	<path class="st33" d="M144.5,55.2c0-0.6-0.2-1.2-0.6-1.5l-24.4-18.5c-0.3-0.2-0.7-0.1-0.9,0.3c-0.1,0.1-0.1,0.3-0.1,0.4l-0.1,15.6
		c0,0.6,0.2,1.2,0.6,1.5l24.4,18.6c0.3,0.2,0.7,0.1,0.9-0.3c0.1-0.1,0.1-0.3,0.1-0.4L144.5,55.2z"/>
	<path class="st22" d="M144.4,96.3c0-0.6-0.2-1.2-0.6-1.5l-24.4-18.6c-0.3-0.2-0.7-0.1-0.9,0.3c-0.1,0.1-0.1,0.3-0.1,0.4l-0.1,15.6
		c0,0.6,0.2,1.2,0.6,1.5l24.4,18.6c0.3,0.2,0.7,0.1,0.9-0.3c0.1-0.1,0.1-0.3,0.1-0.4L144.4,96.3z"/>
	<path class="st30" d="M144.4,96.3c0-0.6-0.2-1.2-0.6-1.5l-24.4-18.6c-0.3-0.2-0.7-0.1-0.9,0.3c-0.1,0.1-0.1,0.3-0.1,0.4l-0.1,15.6
		c0,0.6,0.2,1.2,0.6,1.5l24.4,18.6c0.3,0.2,0.7,0.1,0.9-0.3c0.1-0.1,0.1-0.3,0.1-0.4L144.4,96.3z"/>
	<polygon class="st22" points="133.7,89.2 133.7,103.6 143.1,110.9 143.2,96.5 	"/>
	<g class="st31">
		<polygon class="st6" points="133.7,89.2 133.7,103.6 143.1,110.9 143.2,96.5 		"/>
	</g>
	<g class="st32">
		<polygon class="st6" points="127.5,90.4 127.5,91.3 132.6,95.3 132.6,94.3 		"/>
		<polygon class="st6" points="121.3,84 121.3,85 132.6,93.7 132.6,92.8 		"/>
		<polygon class="st6" points="125.5,96.4 125.5,97.4 132.6,102.8 132.6,101.9 		"/>
		<polygon class="st6" points="123.8,93.5 123.8,94.4 132.6,101.3 132.6,100.4 		"/>
		<polygon class="st6" points="121.3,82.5 121.3,83.4 132.7,92.2 132.7,91.3 		"/>
		<polygon class="st6" points="126.5,84 126.5,85.3 132.7,90.1 132.7,88.8 		"/>
	</g>
	<path class="st22" d="M142.3,57.7c0-0.7-0.3-1.3-0.7-1.7L113.9,35c-0.3-0.3-0.8-0.1-1,0.4c-0.1,0.1-0.1,0.3-0.1,0.5l-0.1,17.8
		c0,0.7,0.3,1.3,0.7,1.7l27.7,21.1c0.3,0.3,0.8,0.1,1-0.3c0.1-0.1,0.1-0.3,0.1-0.5L142.3,57.7z"/>
	<path class="st34" d="M142.3,57.7c0-0.7-0.3-1.3-0.7-1.7L113.9,35c-0.3-0.3-0.8-0.1-1,0.4c-0.1,0.1-0.1,0.3-0.1,0.5l-0.1,17.8
		c0,0.7,0.3,1.3,0.7,1.7l27.7,21.1c0.3,0.3,0.8,0.1,1-0.3c0.1-0.1,0.1-0.3,0.1-0.5L142.3,57.7z"/>
	<polygon class="st22" points="130.3,49.8 130.2,66.1 140.9,74.4 141,58 	"/>
	<g class="st31">
		<polygon class="st6" points="130.3,49.8 130.2,66.1 140.9,74.4 141,58 		"/>
	</g>
	<g class="st32">
		<polygon class="st6" points="123.2,51.1 123.2,52.2 129,56.6 129,55.6 		"/>
		<polygon class="st6" points="116.1,43.9 116.1,44.9 129,54.9 129,53.9 		"/>
		<polygon class="st6" points="120.9,58 120.9,59 129,65.2 129,64.1 		"/>
		<polygon class="st6" points="118.9,54.6 118.9,55.7 129,63.4 129,62.4 		"/>
		<polygon class="st6" points="116.1,42.1 116.1,43.2 129,53.2 129,52.1 		"/>
		<polygon class="st6" points="122.1,43.9 122.1,45.3 129,50.7 129.1,49.2 		"/>
	</g>
	<g class="st35">
		<polygon class="st36" points="140.4,45.1 141.1,49.3 141.9,49.9 142.3,48 142.8,50.6 143.5,51.1 144.3,48.1 143.6,47.6 
			143.1,49.5 142.6,46.8 142,46.3 141.5,48.3 141,45.6 		"/>
		<polygon class="st36" points="139.5,44.4 139.4,48 140.1,48.5 140.1,44.9 		"/>
		<path class="st36" d="M138.1,43.2c-0.3-0.2-0.6-0.3-0.9-0.4l0.2,0.9c0.2,0,0.5,0.1,0.7,0.2c0.3,0.2,0.4,0.4,0.4,0.6
			c0,0.6-1.4-0.9-1.4,0.4c0,0.6,0.3,1.4,1,2c0.3,0.3,0.6,0.4,1,0.4l-0.2-0.9c-0.3,0-0.6-0.1-0.8-0.2c-0.3-0.2-0.4-0.4-0.4-0.6
			c0-0.6,1.4,0.9,1.4-0.5C139.1,44.6,138.8,43.8,138.1,43.2z"/>
		<polygon class="st36" points="134.5,40.6 134.5,44.2 135.2,44.7 135.2,43.3 136.1,44 136.1,45.4 136.8,45.9 136.8,42.3 
			136.1,41.8 136.1,43.1 135.2,42.4 135.2,41.1 		"/>
		<polygon class="st36" points="133.4,39.7 133.4,42.5 132.2,41.6 132.2,42.4 134,43.8 134,40.2 		"/>
		<polygon class="st36" points="131.3,38.1 131.3,41.7 131.9,42.2 132,38.6 		"/>
		<path class="st36" d="M129.9,36.9c-0.3-0.2-0.6-0.3-0.9-0.4l0.2,0.9c0.2,0,0.5,0.1,0.7,0.2c0.3,0.2,0.4,0.4,0.4,0.6
			c0,0.6-1.4-0.9-1.4,0.4c0,0.6,0.3,1.4,1,2c0.3,0.3,0.6,0.4,1,0.4l-0.2-0.9c-0.3,0-0.6-0.1-0.8-0.3c-0.3-0.2-0.4-0.4-0.4-0.6
			c0-0.6,1.4,0.9,1.4-0.5C130.9,38.2,130.6,37.5,129.9,36.9z"/>
		<polygon class="st36" points="126.7,34.6 126.7,35.4 127.5,35.9 127.4,38.7 128.1,39.3 128.1,36.4 128.9,37 128.9,36.2 		"/>
		
			<image style="overflow:visible;" width="8" height="8" xlink:href="580F395802ECFE8C.png"  transform="matrix(1 0 0 1 117.5727 28.1056)">
		</image>
		<polygon class="st6" points="120.1,32 120.1,33.5 125.2,37.4 125.2,35.9 		"/>
	</g>
</g>
<path class="st1" d="M139.8,84.2c0-0.3-0.2-0.3-0.4-0.3c-0.4,0-0.9-0.2-1.3-0.5c-0.7-0.4-0.9-0.8-1.4-1.5l-0.3,2.7
	c0,0.1,0.4,0.4,0.5,0.5l2.6,1.6c0.3,0.2,0.3-1.4,0.4-1.7L139.8,84.2z"/>
<path class="st1" d="M138.1,77.3c-1-0.8-1.9-0.2-1.9,1.4c0.1,1.7,0.8,3.4,1.9,4.3c1,0.8,1.9,0.2,1.9-1.4
	C139.9,79.8,139.2,78.2,138.1,77.3z"/>
<path class="st1" d="M139.8,104.2c0-0.3-0.2-0.3-0.4-0.3c-0.4,0-0.9-0.2-1.3-0.5c-0.7-0.4-0.9-0.8-1.4-1.5l-0.3,2.7
	c0,0.1,0.4,0.4,0.5,0.5l2.6,1.6c0.3,0.2,0.3-1.4,0.4-1.7L139.8,104.2z"/>
<path class="st1" d="M138.1,97.2c-1-0.8-1.9-0.2-1.9,1.4c0.1,1.7,0.8,3.4,1.9,4.3c1,0.8,1.9,0.2,1.9-1.4
	C139.9,99.8,139.2,98.2,138.1,97.2z"/>
<path class="st6" d="M136.1,79.2c-0.3-0.5-0.2-0.5-0.2-0.5s-0.3-0.1,0.1-1.1c0.4-1,2-1.7,3.3-1.2c0.1,0,0.2,0.1,0.2,0.1
	c-0.1-0.3-0.4-0.6-0.4-0.6c0.5,0.3,0.8,0.9,0.8,0.9l0,0c0,0,0,0,0,0c0.3,0,0.9,0.3,0.9,0.3c-0.2-0.1-0.4-0.1-0.5,0
	c0.7,0.7,1,1.7,0.7,2.3c-0.4,0.9-0.6,0.7-0.9,1.8c0,0-0.4-0.1-0.4-0.4c0-0.3,0.2-1-0.2-1c-0.5,0-0.3,0.4-0.6,0.3
	c-0.3-0.1-0.2-1-1.3-0.9C136.5,79.6,136.4,79.7,136.1,79.2z"/>
<path class="st6" d="M139.1,97.2c1.4,1.1,0.4,0.8,1.1,1.9c0.6,0.9,0.1,0.5-0.1,1.6c0,0-0.3,0.2-0.6,0.2c-0.3,0,0-0.2-0.5-0.3
	c-0.5-0.1-0.5-0.5-0.7-0.6c-0.2-0.1,0-0.3-1-0.4c-1-0.1-0.4,0.7-1.4-0.5c-0.4-0.4,0.4-0.5,0.4-0.5s-0.9-1.5,0-1.5
	c0.6,0,1.2-0.5,1.2-0.5C137.5,96.6,139,97.1,139.1,97.2"/>
<path class="st6" d="M139.9,96.8L139.9,96.8C139.9,96.8,139.9,96.8,139.9,96.8"/>
<g>
	<g>
		<g class="st37">
			<defs>
				<polygon id="SVGID_1_" class="st37" points="120.4,53.5 120.6,49.8 122.6,49.3 122.1,53.9 				"/>
			</defs>
			<clipPath id="SVGID_2_">
				<use xlink:href="#SVGID_1_"  style="overflow:visible;"/>
			</clipPath>
			<g class="st38">
				<g>
					<g>
						<g>
							<path class="st6" d="M121.6,49.6l-0.1,0.5c-0.1,0-0.2,0.1-0.3,0.1c-0.1,0-0.2,0.1-0.3,0.2c-0.1,0.1-0.1,0.2-0.2,0.3
								c-0.1,0.1-0.1,0.2-0.1,0.3c0,0.1,0,0.2,0,0.3c0,0.1,0.1,0.2,0.1,0.2c0.1,0.1,0.1,0.1,0.2,0.2c0.1,0.1,0.3,0.2,0.4,0.2
								l0.2,0.1l0.1,0.1l0,0.1l0,0.2l0,0.1l-0.1,0.1l-0.1,0.1l-0.2,0l-0.1-0.1l-0.1-0.1l-0.1-0.2c0-0.1,0-0.2,0-0.3l-0.5-0.1
								c0,0.1,0,0.3,0,0.4c0,0.1,0.1,0.2,0.1,0.3c0.1,0.1,0.1,0.2,0.2,0.2c0.1,0.1,0.2,0.1,0.3,0.2l-0.1,0.4l0.3,0.1l0.1-0.4
								c0.1,0,0.2,0,0.3,0c0.1,0,0.2-0.1,0.3-0.1c0.1-0.1,0.1-0.1,0.2-0.2c0.1-0.1,0.1-0.2,0.1-0.4c0-0.1,0-0.3,0-0.4
								c0-0.1-0.1-0.2-0.1-0.3c-0.1-0.1-0.3-0.2-0.4-0.3c-0.1-0.1-0.2-0.1-0.3-0.2l-0.2-0.1l-0.1-0.1l-0.1-0.1l0-0.1l0-0.1l0.1-0.1
								l0.1-0.1l0.2,0c0.1,0,0.2,0,0.2,0.1c0.1,0.1,0.1,0.2,0,0.4l0.6,0c0-0.2,0-0.3,0-0.4c0-0.1,0-0.2-0.1-0.3
								c0-0.1-0.1-0.2-0.2-0.2c-0.1,0-0.2-0.1-0.3-0.1l0.1-0.5L121.6,49.6"/>
						</g>
					</g>
				</g>
			</g>
		</g>
	</g>
</g>
<g id="freepik--Character--inject-17">
	<path class="st21" d="M97.9,133c0.2,0.5,0.9,1,1.6,1.1c0.7,0.1,1.5,0,2.2-0.2c1.1-0.2,2.2-0.2,3.3-0.1c0.7,0.1,1.4,0.2,2.1,0.2
		c0.7,0,1.4-0.2,2-0.7c0.4-0.4,0.7-0.9,0.7-1.5c0.1,0.8-0.2,1.5-0.7,2c-0.6,0.5-1.3,0.7-2,0.7c-0.7,0-1.4-0.1-2.1-0.2
		c-1.1-0.1-2.2-0.1-3.3,0.1c-0.7,0.1-1.6,0.4-2.3,0.2c-0.8-0.1-1.4-0.6-1.6-1.1L97.9,133z"/>
	<path class="st6" d="M106.1,131.4c-0.6,0-0.4-1.1-1-1.8c0.2,0,0.5,0,0.7,0C106.3,130.5,106.5,131.4,106.1,131.4z"/>
	<path class="st6" d="M104.8,131.3c-0.6,0-0.5-1.3-1.1-2c0.1,0.1,0.3,0.1,0.4,0.1c0.1,0,0.2,0.1,0.4,0.1
		C105,130.4,105.2,131.3,104.8,131.3z"/>
	<path class="st39" d="M98.6,128.9c0-0.2,0.2-0.4,0.3-0.6l3.4-0.1c0.4,0.5,0.8,0.9,1.4,1.1c0.6,0.8,0.5,2,1.1,2
		c0.4,0,0.3-0.9-0.3-1.8c0.2,0,0.4,0.1,0.6,0.1c0.6,0.7,0.4,1.8,1,1.8c0.4,0,0.3-0.9-0.3-1.8l0.5,0c0.1,0,0.3,0,0.4,0
		c1.2,1.1,1.3,2.4,1.2,4.3c-0.2,0-0.4,0.1-0.6,0.1c-0.7,0-1.4-0.1-2.1-0.2c-1.1-0.1-2.2-0.1-3.3,0.1c-0.7,0.1-1.5,0.3-2.2,0.2
		c-0.7-0.1-1.4-0.6-1.6-1.1L98.6,128.9z"/>
	<path class="st6" d="M106.7,129.6c0.6-0.1,1.1-0.1,1.7,0c0.7,0.2,1.3,0.7,1.5,1.5c0,0.2,0.1,0.4,0,0.7c-0.1,0.6-0.3,1.1-0.7,1.5
		c-0.4,0.3-0.8,0.6-1.3,0.6C108,132,107.9,130.7,106.7,129.6z"/>
	<path class="st40" d="M102.4,127.1l0,1.9c0,0.4-0.3,0.8-0.7,0.8c0,0,0,0,0,0l-1.7,0c-0.6,0-1.1-0.5-1.1-1.2l0-1.4L102.4,127.1z"/>
	<path class="st21" d="M91.1,126.2c0.2,0.5,0.6,0.8,1,0.8c0.5,0,0.9-0.1,1.3-0.4c0.6-0.4,0.8-1.1,1.2-1.7c0.4-0.6,0.9-1.1,1.4-1.6
		c0.6-0.5,1-1.1,1.3-1.8c0.1-0.2,0.1-0.4,0.2-0.7c0.1,0.4,0,0.9-0.2,1.3c-0.3,0.7-0.8,1.3-1.3,1.8c-0.5,0.5-1,1-1.4,1.6
		c-0.4,0.6-0.6,1.3-1.2,1.7c-0.4,0.3-0.8,0.4-1.3,0.4c-0.4,0-0.8-0.4-1-0.8c-0.1-0.3-0.1-0.7-0.1-1.1
		C91.1,125.9,91.1,126.1,91.1,126.2z"/>
	<path class="st6" d="M95,122.1c0.1,0.1,0.1,0.2,0.1,0.3c0,0.1-0.1,0.2-0.2,0.2c-0.1,0-0.3,0-0.4-0.1c-0.1-0.1-0.2-0.2-0.3-0.4
		c-0.2-0.3-0.5-0.6-0.9-0.7c-0.2-0.1-0.3-0.1-0.5-0.1l0.4-0.5C94,120.9,94.6,121.3,95,122.1L95,122.1z"/>
	<path class="st6" d="M94.9,120.5c0.4,0.2,0.7,0.6,0.9,1c0.1,0.1,0.1,0.2,0.1,0.3c0,0.1-0.1,0.2-0.2,0.2c-0.1,0-0.3,0-0.4-0.1
		c-0.1-0.1-0.2-0.2-0.3-0.4c-0.4-0.6-1.1-0.9-1.7-0.9l0.4-0.4C94.1,120.2,94.5,120.3,94.9,120.5z"/>
	<path class="st6" d="M94,120c0.4-0.4,0.8-0.8,1.3-1c0.6-0.3,1.4-0.2,1.8,0.3c0.3,0.4,0.5,1,0.4,1.6c0,0.2-0.1,0.5-0.2,0.7
		c-0.1,0.3-0.3,0.5-0.4,0.8C96.8,120.6,95.6,119.8,94,120z"/>
	<path class="st39" d="M91.1,124.6c0-0.6,0.1-1.1,0.3-1.7l0.8-1l0.6-0.6c0.2,0,0.4,0.1,0.5,0.1c0.3,0.1,0.6,0.4,0.9,0.7
		c0.1,0.1,0.2,0.3,0.3,0.4c0.1,0.1,0.2,0.2,0.4,0.1c0.1,0,0.2-0.1,0.2-0.2c0-0.1,0-0.2-0.1-0.3c-0.4-0.7-1-1.2-1.7-1.2l0.1-0.1
		c0.7-0.1,1.3,0.3,1.7,0.9c0.1,0.1,0.2,0.3,0.3,0.4c0.1,0.1,0.2,0.2,0.4,0.1c0.1,0,0.2-0.1,0.2-0.2c0-0.1,0-0.2-0.1-0.3
		c-0.4-0.8-1.2-1.3-2-1.2l0,0L94,120c1.5-0.2,2.8,0.6,3,2.3c-0.3,0.4-0.6,0.7-0.9,1.1c-0.5,0.5-1,1-1.4,1.6
		c-0.4,0.6-0.6,1.3-1.2,1.7c-0.4,0.3-0.8,0.4-1.3,0.4c-0.4,0-0.8-0.4-1-0.8c0-0.1-0.1-0.3-0.1-0.4C91.1,125.4,91.1,125,91.1,124.6z"
		/>
	<path class="st40" d="M94,121.6l-0.1,2c-1.1,0.7-2.3,0.3-2.6-0.1l-0.1-1.9L94,121.6z"/>
	<path class="st40" d="M91.9,77.5c0.1-0.2,0.2-0.5,0.2-0.7l0.1-1.8l10.7,0.8c0.1,0.9,0.3,1.9,0.4,3.2C99.4,80.2,95.4,79.6,91.9,77.5
		z"/>
	<path class="st40" d="M92.1,70.5l-2.3,5.1l2.1,4l-2.3,4.2l-3.4-6.2c-0.5-0.9-0.6-1.9-0.4-2.9c0.6-2.4,1.3-4.8,2.2-7.1L92.1,70.5z"
		/>
	<path class="st41" d="M93.9,60.5c-2.6-0.6-4.1,0.5-6.3,7.4c0.9,2.4,4.7,3.2,4.7,3.2L93.9,60.5z"/>
	<path class="st23" d="M93.9,60.5c-2.6-0.6-4.1,0.5-6.3,7.4c0.9,2.4,4.7,3.2,4.7,3.2L93.9,60.5z"/>
	<path class="st41" d="M98.8,61.4l2.9,0.7c0.6,1.3,1.3,2.6,1.9,4c0.5,1,1,2.1,0.9,3.3c-0.1,1.3-0.7,2.4-1.7,2.9l0.3,4.6
		c-4.5,1.6-10,0.2-11.2-1c-0.4-1.9-0.7-3.9-1-5.8c-0.3-1.2-0.4-2.5-0.5-3.8c-0.1-1.3,0.2-2.6,0.8-3.7l0,0c0.8-1.3,2.1-2,3.5-1.8
		L98.8,61.4z"/>
	<path class="st42" d="M91.7,77.8c0.1-0.1,0.1-0.2,0.2-0.3c3.5,2.1,7.5,2.7,11.4,1.5c0.8,7,1.5,18.8,1.1,26.6
		c-0.4,9.1-1.8,22-1.8,22c-1.9,0.7-3.3,0.3-3.8-0.2c-0.6-9-2-15.2-0.9-21.2c-0.7-4.2-1.2-9.4-1.2-9.4l-0.5,9.2l-1.8,16.2
		c-1,0.6-2.3,0.6-3.3-0.2c-1.3-9.3-1.8-15.5-0.7-20.1C88.5,86.7,88.5,82.8,91.7,77.8z"/>
	<path class="st23" d="M95.8,95l-1-4.8c-1.2-0.2-2.9-1.1-3.9-2.9c1.4,1.2,3,1.9,4.7,2l0.9,7.6l-0.2,3.2l-0.1-1.2
		C96.3,97.6,96.1,96.3,95.8,95z"/>
	<path class="st43" d="M120.1,55.9l-2.9,8.7c-0.4,1.1-1.2,2-2.3,2.2l-4.9,1c-1.2-1.4-1.5-3.6-0.9-5.4c1.5,0,3-0.2,4.4-0.6
		c0,0,3.1-4.4,4.4-6.7l-0.9-3.6c-0.1-0.3-0.1-0.7,0.1-1l0.5-1c0.1-0.3,0.3-0.5,0.6-0.6l0.7-0.3c0.3-0.1,0.7-0.1,1,0.1l1.1,0.7
		c0.1,0.1,0.2,0.3,0.2,0.4l0,0c0,0.2-0.1,0.3-0.2,0.4l-0.4,0.2l-0.6,1.1C120.8,52.9,120.8,54.6,120.1,55.9z"/>
	<path class="st41" d="M102.1,61.9c1.8,0.1,4.4,0.4,7,0.4c-0.6,1.8-0.3,3.9,0.9,5.4l-6.1,1.3c-1.3,0.2-2.6-0.7-3-2.3
		c-0.2-0.9-0.4-1.7-0.5-2.6c-0.1-1,0.5-2,1.4-2.2C101.9,61.9,102,61.9,102.1,61.9z"/>
	<path class="st23" d="M102.1,61.9c1.8,0.1,4.4,0.4,7,0.4c-0.6,1.8-0.3,3.9,0.9,5.4l-6.1,1.3c-1.3,0.2-2.6-0.7-3-2.3
		c-0.2-0.9-0.4-1.7-0.5-2.6c-0.1-1,0.5-2,1.4-2.2C101.9,61.9,102,61.9,102.1,61.9z"/>
	<path class="st19" d="M102.3,52.4c0.4-0.9,0.6-2,0.6-3.1c-0.1-1.1-0.6-2-1.4-2.6c-0.8-0.5-1.9-0.3-2.5,0.5
		c-1.5-0.9-3.3-0.9-4.7,0.2c-1.4,1.1-2.2,3-2.1,4.9c0.1,1.1,0.4,2.2,0.3,3.3c-0.1,0.6-0.3,1.3-0.1,1.9c0.1,0.5,0.5,1,0.9,1.2
		c0.4,0.3,1.4,0.2,1.8,0.3c1.4,1.5,3.1,0.9,4.3-0.4C100.5,57.3,102.3,52.4,102.3,52.4z"/>
	<polygon class="st44" points="102.6,53.9 103.5,55.6 102.5,56 	"/>
	<path class="st40" d="M102.7,53.1c-0.1-1.5-0.5-3-1.4-3.7c0.2,1.9-0.1,3.9-1,5.5c-0.1-0.5-0.3-1-0.6-1.3c-0.3-0.4-0.8-0.5-1.2-0.3
		c-0.3,0.2-0.5,0.4-0.6,0.8c-0.3,1,0.1,2.1,0.9,2.4c0.4,0.2,0.8,0.2,1.1,0c-0.2,1.4-1.2,2.5-2.4,2.8c-0.8,0.2-1.6,0.1-2.3-0.3
		l-0.4,2.1c1.4,1.8,3.9,0.6,3.9,0.6l0.3-2.1c2.9,0.2,3.1,0.1,3.4-1.7C102.7,56.4,102.8,54.7,102.7,53.1z"/>
	<path class="st23" d="M96.3,50.8c-0.4-1.3-1.2-2.5-2.3-3.2c-1.2,1.1-1.9,2.9-1.8,4.7c0.1,1.1,0.4,2.2,0.3,3.3
		c-0.1,0.6-0.3,1.3-0.1,1.9c0.1,0.5,0.5,1,0.9,1.2c0.4,0.3,1.4,0.2,1.8,0.3c0.1,0.1,0.1,0.1,0.2,0.2c0.5-1.1,0.9-2.2,1.1-3.4
		C96.8,54.2,96.8,52.5,96.3,50.8z"/>
	<path class="st19" d="M95.6,49.7c-0.6-2.2-2.6-3.5-4.5-2.8c-1.1,0.4-2,1.4-2.4,2.7c-0.9,3,1.3,6.3,0.9,9.4
		c-0.2,1.1-0.7,2.2-0.9,3.3c-0.4,2.7,1.1,5.2,3.4,5.7c0.1,0,0.2,0,0.3,0c-0.6-0.8-0.6-2-0.3-3c0.3-1,1-1.8,1.5-2.7
		C95.7,58.8,96.6,53.8,95.6,49.7z"/>
</g>
<g>
	<path class="st45" d="M303.6,70.7c0,0,0.4,0.2,0.5,0.8c0.1,0.4,0,1,0,1.6c-0.1,1.1,1.4,2.7,2.3,3.2c0.9,0.6,0-2.3,0-3
		c0-0.7,0.3-1.2-0.5-2.8C305.1,68.9,303.6,70.7,303.6,70.7z"/>
	<path class="st46" d="M285.6,48.2c-0.2-3.1,3-5.2,5.6-3.6c0.1,0,0.1,0.1,0.2,0.1c3.9,2.5,11.2,12.9,12.3,14.9
		c1.1,2.1,2.6,11.3,2.6,11.3s-2.1,0.8-3.1,0c0,0-3.3-7.9-4.5-9.3c-1.3-1.4-13-8.1-13.1-10.9C285.8,50,285.7,49.1,285.6,48.2z"/>
	<g>
		<path class="st47" d="M311.5,118.4c0,0,1.6,1.5,1.2,2.5c-0.3,1-1.7,1.7-1.9,3c-0.2,1.3-0.9,1.9-1.6,1.9c-0.7,0-3.2,0-3.2,0
			s-0.5-0.9,0.7-1.2c1.2-0.3,1.7-1.7,1.6-3.1c-0.1-1.4,0.1-3.2,0.1-3.2l2.6-0.6L311.5,118.4z"/>
		<path class="st47" d="M292.5,122.2c0,0,0.3,3.3-0.4,3.6l-8.7,0c0,0,0-1,1.4-1.3c1.4-0.2,3.9-1.1,4.3-2.9
			C289.4,119.7,292.5,122.2,292.5,122.2z"/>
		<path class="st48" d="M285.1,75.5c0,0,0.5,5.8,1,12.8c0.7,9.5,1.6,21.1,1.7,23.3c0.2,3.8,0.8,9.9,0.8,9.9s1.4,1.5,4.3,0.8
			c0,0,2.6-8.7,3.3-18c0-0.2,0-0.3,0-0.5c0.7-9.4,1.7-29.2,1.7-29.2L285.1,75.5z"/>
		<path class="st49" d="M285.1,75.5c0,0,0.5,5.8,1,12.8l10.1,16.1c0-0.2,0-0.3,0-0.5c0.7-9.4,1.7-29.2,1.7-29.2L285.1,75.5z"/>
		<path class="st48" d="M287.2,76.2c0,0,8.3,21,13.7,30.8s7.2,12.6,7.2,12.6s3.1-1.3,3.4-2.1c0,0-2.1-19-5.7-23.7
			c-2.1-2.6-4.5-10.5-4.6-13.2c-0.1-2.8-0.7-8.2-0.7-8.2L287.2,76.2z"/>
	</g>
	<path class="st50" d="M294.3,46c0,0-6.1,3.2-9.7,2.1c0,0,0.5-0.7,1.4-1.4c0.6-0.5,0.9-1.2,0.8-1.9c0-0.2-0.1-0.4-0.1-0.6
		c-0.2-1.2-0.1-2.1-0.1-2.1l2.3-1.8l2.2-1.9C291,43.6,294.3,46,294.3,46z"/>
	<path class="st51" d="M299.4,65.5c0.4,2.4,0.8,4.4,1,5.8c0.1,0.7,0.3,1.3,0.3,1.7c0.1,0.3-0.6,0.8-0.9,1c-2.2,1.4-4.4,2.4-6.9,3
		c-2.9,0.7-6.5,0.5-7.7,0.7c-0.1,0-0.2,0-0.4-0.1c-0.1,0-0.6-3.7-1.2-8.3c0-0.2,0-0.4-0.1-0.6l0-0.1c-0.2-1.8-0.4-3.7-0.5-5.6
		c-0.1-1.5-0.2-2.9-0.3-4.3c-0.1-1.7-0.1-3.3-0.1-4.6c0-0.6,0.1-1.1,0.1-1.6c0.3-2.7,1.4-4.6,2.6-6.1l1.4-1.1
		c1.1,0.1,2.1-0.2,3.2-0.9c1.2-0.8,1.9-1.5,2.2-1.4c1.8,1,3.2,3.4,4.3,6.9c0.6,2,1.5,4.7,1.8,7.2c0.1,0.8,0.2,1.4,0.3,2.2"/>
	<path class="st52" d="M291.2,40.4c0,0-1.5,3-4.5,3.8c-0.3-1.6-0.2-4-0.2-4l2.4,0.1L291.2,40.4z"/>
	<path class="st50" d="M284.8,40.9c0,0,5.5,2.3,6.9-1.2c1.4-3.5,3-5.6-0.5-7.2c-3.5-1.6-4.7-0.6-5.4,0.5
		C285,34.1,283.3,40.2,284.8,40.9z"/>
	<path class="st53" d="M295.3,32.9c0.1,0,0.2-0.1,0.4,0c0,0-0.2-0.2-0.4-0.2c0-0.4,0-1-0.6-1.3c0,0,0.3,0.2,0.2,0.6
		c-0.5-0.9-1.8-1.7-5.9-2.3c-5.4-0.8-4.4,3.1-3.8,3.6c0.6,0.6,2.6-0.2,3.8,0.3c1.2,0.4,1.1,2.3,1.4,2.7c0.4,0.4,0.3-0.1,1-0.3
		c0.6-0.1,0.5,0.9,0.2,1.5c-0.3,0.6,0.3,1.6,0.3,1.6s0,0,1-0.7c1-0.7,2.6-4.3,2.4-5.2C295.3,33.1,295.3,33,295.3,32.9z"/>
	<path class="st46" d="M292.2,54.4c0,0-4.5,3.5-9.3,4.3c-0.1-1.7-0.1-3.3-0.1-4.6L292.2,54.4z"/>
	<path class="st50" d="M265.4,42.1c-0.1-0.1,0-3.8-1.8-4.1c-1.2-0.2-4.2-1-4.2,0.6c0,0.7,3.8,4.7,3.8,4.7L265.4,42.1z"/>
	<path class="st51" d="M293.1,48.7c2,2.3,0.7,6-2.3,6.3c-0.1,0-0.1,0-0.2,0c-4.6,0.4-17.6-3.4-19.3-4.5c-3-1.7-8.1-7-8.1-7
		s1.2-1.9,2.4-1.9c0,0,6.8,4.5,9.3,5c1.7,0.4,14.8-2.1,16.6,0.1C291.9,47.3,292.5,48,293.1,48.7z"/>
	<path class="st45" d="M306.3,71.7c0,0,0.3,0.6,0.5,1.2c0.2,0.5,0.3,1.4,0.2,1.4c-0.2-0.1-0.7-0.8-0.9-1.1S306.3,71.7,306.3,71.7z"
		/>
	<path class="st6" d="M287.8,38.5c0,0-0.1,1.1-1.3,1c-1.5,0-1.4-1.2-1.4-1.2"/>
</g>
<path class="st54" d="M287.9,36.5c0,0,0.4-0.6,0.7-0.6c0.3,0,0.5,0.5,0.5,0.9"/>
<path class="st54" d="M285.8,36.2c0,0,0.2-0.7,0.5-0.7c0.3-0.1,0.5,0.4,0.6,0.8"/>
<path class="st55" d="M387.3,136.6H1.6c-0.9,0-1.6,0.7-1.6,1.6l0,0c0,0.9,0.7,1.6,1.6,1.6h385.7c0.9,0,1.6-0.7,1.6-1.6l0,0
	C388.9,137.3,388.1,136.6,387.3,136.6z"/>
<path class="st1" d="M137.1,66.1c0-0.3-0.2-0.3-0.4-0.3c-0.4,0-0.9-0.2-1.3-0.5c-0.7-0.4-0.9-0.8-1.4-1.5l-0.3,2.7
	c0,0.1,0.4,0.4,0.5,0.5l2.6,1.6c0.3,0.2,0.3-1.4,0.4-1.7L137.1,66.1z"/>
<path class="st1" d="M135.4,59.1c-1-0.8-1.9-0.2-1.9,1.4c0.1,1.7,0.8,3.4,1.9,4.3c1,0.8,1.9,0.2,1.9-1.4
	C137.2,61.7,136.5,60.1,135.4,59.1z"/>
<path class="st6" d="M137.2,58.6L137.2,58.6C137.2,58.6,137.2,58.6,137.2,58.6c0.3,0,0.8,0.4,0.8,0.4c-0.1-0.1-0.3-0.1-0.5,0
	c0.6,0.7,0.9,1.7,0.6,2.3c-0.4,0.9-0.6,0.7-0.8,1.8c0,0-0.4-0.1-0.4-0.4c0-0.3,0.2-1-0.2-1c-0.4,0-0.3,0.4-0.5,0.3
	c-0.2-0.1-0.2-1-1.1-0.9c-0.9,0.1-1.1,0.2-1.3-0.2c-0.3-0.5-0.2-0.5-0.2-0.5s-0.2-0.1,0.1-1.1c0.3-1,1.8-1.7,2.9-1.2
	c0.1,0,0.1,0.1,0.2,0.1"/>
<path class="st6" d="M135.1,60.6c-0.3-0.1-0.6-0.3-0.8-0.6c-0.2-0.3-0.4-0.6-0.4-0.9c0-0.3,0.2-0.5,0.5-0.4c0-0.5,0.3-0.9,0.8-0.9
	c0.5,0,1,0.2,1.5,0.6c0.3,0.3,0.5,0.6,0.7,0.8c0.2,0.1,0.4,0.2,0.5,0.4c0.1,0.1,0.2,0.3,0.1,0.4c0,0.1-0.2,0.3-0.2,0.4
	c0.1,0.6-0.3,0.9-0.7,0.8C136.6,61.3,135.1,60.6,135.1,60.6z"/>
<path class="st6" d="M136.7,59.7c0-1,0.5-1.6,1-1.4c0.3,0.1,0.7,0.5,0.9,1c0.5,1.2,0.1,2.6,0.5,3.9c0.1,0.5,0.4,0.9,0.5,1.3
	c0.3,1.1,0.1,2.2-0.5,2.5c0,0,0,0-0.1,0c0.1-0.4,0-0.9-0.1-1.3s-0.4-0.7-0.6-1C137.4,63.5,136.7,61.5,136.7,59.7z"/>
<g>
	<g>
		<g class="st37">
			<defs>
				<polygon id="SVGID_3_" class="st37" points="121,92.5 121.2,88.9 123.2,88.4 122.7,93 				"/>
			</defs>
			<clipPath id="SVGID_4_">
				<use xlink:href="#SVGID_3_"  style="overflow:visible;"/>
			</clipPath>
			<g class="st56">
				<g>
					<g>
						<g>
							<path class="st6" d="M122.2,88.6l-0.1,0.5c-0.1,0-0.2,0.1-0.3,0.1c-0.1,0-0.2,0.1-0.3,0.2c-0.1,0.1-0.1,0.2-0.2,0.3
								c-0.1,0.1-0.1,0.2-0.1,0.3c0,0.1,0,0.2,0,0.3c0,0.1,0.1,0.2,0.1,0.2c0.1,0.1,0.1,0.1,0.2,0.2c0.1,0.1,0.3,0.2,0.4,0.2
								l0.2,0.1l0.1,0.1l0,0.1l0,0.2l0,0.1l-0.1,0.1l-0.1,0.1l-0.2,0l-0.1-0.1l-0.1-0.1l-0.1-0.2c0-0.1,0-0.2,0-0.3l-0.5-0.1
								c0,0.1,0,0.3,0,0.4c0,0.1,0.1,0.2,0.1,0.3c0.1,0.1,0.1,0.2,0.2,0.2c0.1,0.1,0.2,0.1,0.3,0.2l-0.1,0.4l0.3,0.1l0.1-0.4
								c0.1,0,0.2,0,0.3,0c0.1,0,0.2-0.1,0.3-0.1c0.1-0.1,0.1-0.1,0.2-0.2c0.1-0.1,0.1-0.2,0.1-0.4c0-0.1,0-0.3,0-0.4
								c0-0.1-0.1-0.2-0.1-0.3c-0.1-0.1-0.3-0.2-0.4-0.3c-0.1-0.1-0.2-0.1-0.3-0.2l-0.2-0.1l-0.1-0.1l-0.1-0.1l0-0.1l0-0.1l0.1-0.1
								l0.1-0.1l0.2,0c0.1,0,0.2,0,0.2,0.1c0.1,0.1,0.1,0.2,0,0.4l0.6,0c0-0.2,0-0.3,0-0.4c0-0.1,0-0.2-0.1-0.3
								c0-0.1-0.1-0.2-0.2-0.2c-0.1,0-0.2-0.1-0.3-0.1l0.1-0.5L122.2,88.6"/>
						</g>
					</g>
				</g>
			</g>
		</g>
	</g>
</g>
<g>
	<g>
		<g class="st37">
			<defs>
				<polygon id="SVGID_5_" class="st37" points="121.1,71.4 121.3,67.7 123.3,67.2 122.8,71.8 				"/>
			</defs>
			<clipPath id="SVGID_6_">
				<use xlink:href="#SVGID_5_"  style="overflow:visible;"/>
			</clipPath>
			<g class="st57">
				<g>
					<g>
						<g>
							<path class="st6" d="M122.3,67.5l-0.1,0.5c-0.1,0-0.2,0.1-0.3,0.1c-0.1,0-0.2,0.1-0.3,0.2c-0.1,0.1-0.1,0.2-0.2,0.3
								c-0.1,0.1-0.1,0.2-0.1,0.3c0,0.1,0,0.2,0,0.3c0,0.1,0.1,0.2,0.1,0.2c0.1,0.1,0.1,0.1,0.2,0.2c0.1,0.1,0.3,0.2,0.4,0.2
								l0.2,0.1l0.1,0.1l0,0.1l0,0.2l0,0.1l-0.1,0.1l-0.1,0.1l-0.2,0l-0.1-0.1l-0.1-0.1l-0.1-0.2c0-0.1,0-0.2,0-0.3l-0.5-0.1
								c0,0.1,0,0.3,0,0.4c0,0.1,0.1,0.2,0.1,0.3c0.1,0.1,0.1,0.2,0.2,0.2c0.1,0.1,0.2,0.1,0.3,0.2l-0.1,0.4l0.3,0.1l0.1-0.4
								c0.1,0,0.2,0,0.3,0c0.1,0,0.2-0.1,0.3-0.1c0.1-0.1,0.1-0.1,0.2-0.2c0.1-0.1,0.1-0.2,0.1-0.4c0-0.1,0-0.3,0-0.4
								c0-0.1-0.1-0.2-0.1-0.3c-0.1-0.1-0.3-0.2-0.4-0.3c-0.1-0.1-0.2-0.1-0.3-0.2l-0.2-0.1l-0.1-0.1l-0.1-0.1l0-0.1l0-0.1l0.1-0.1
								l0.1-0.1l0.2,0c0.1,0,0.2,0,0.2,0.1c0.1,0.1,0.1,0.2,0,0.4l0.6,0c0-0.2,0-0.3,0-0.4c0-0.1,0-0.2-0.1-0.3
								c0-0.1-0.1-0.2-0.2-0.2c-0.1,0-0.2-0.1-0.3-0.1l0.1-0.5L122.3,67.5"/>
						</g>
					</g>
				</g>
			</g>
		</g>
	</g>
</g>
<path class="st6" d="M121,23.7"/>
<g>
	<path class="st1" d="M129.5,38.6c0.1-0.2,0.2-0.4,0.2-0.7c0-0.5-0.1-0.9-0.3-1.3c-0.2-0.4-0.5-0.8-0.9-1.1l-1.4-1l-0.2,4.2l0.7,0.5
		l0.1-1.2l0.7,0.5l0.1,0.1l0.4,1.6l0.8,0.6l-0.6-1.9C129.2,38.8,129.3,38.7,129.5,38.6z M128.8,37.8c-0.1,0-0.3,0-0.5-0.2l-0.7-0.5
		l0.1-1.4l0.7,0.5c0.2,0.1,0.3,0.3,0.4,0.5c0.1,0.2,0.1,0.4,0.1,0.6C129,37.6,128.9,37.7,128.8,37.8z"/>
	<polygon class="st1" points="130.9,39.8 132.4,41 132.4,40.2 130.9,39.1 131,38.1 132.6,39.4 132.7,38.6 130.3,36.8 130.1,41 
		132.5,42.9 132.6,42.1 130.9,40.8 	"/>
	<polygon class="st1" points="135.3,43.4 133.9,39.6 133.3,39.1 133.1,43.3 133.8,43.8 133.9,41.1 135.3,45 135.9,45.4 136.1,41.2 
		135.4,40.7 	"/>
	<polygon class="st1" points="136.4,42.3 137.4,43 137.2,46.5 137.9,47 138.1,43.6 139.1,44.3 139.1,43.5 136.5,41.5 	"/>
</g>
</svg>
